<svg width="414" height="980" viewBox="0 0 414 980" fill="none" xmlns="http://www.w3.org/2000/svg">
<g id="Cat&#195;&#161;logo">
<rect width="414" height="980" fill="white"/>
<g id="Toolbar">
<rect width="414" height="276" fill="#C4C4C4"/>
<g id="menu">
<path id="Icon" fill-rule="evenodd" clip-rule="evenodd" d="M351 28C351 26.8954 351.895 26 353 26H381C382.105 26 383 26.8954 383 28C383 29.1046 382.105 30 381 30H353C351.895 30 351 29.1046 351 28ZM351 38C351 36.8954 351.895 36 353 36H381C382.105 36 383 36.8954 383 38C383 39.1046 382.105 40 381 40H353C351.895 40 351 39.1046 351 38ZM351 48C351 46.8954 351.895 46 353 46H381C382.105 46 383 46.8954 383 48C383 49.1046 382.105 50 381 50H353C351.895 50 351 49.1046 351 48Z" fill="#0D0D0D"/>
</g>
<path id="imagen" d="M168.828 118H165.666V99.5088H168.828V118ZM165.41 94.604C165.41 94.0913 165.563 93.6584 165.871 93.3052C166.19 92.952 166.657 92.7754 167.272 92.7754C167.888 92.7754 168.355 92.952 168.674 93.3052C168.993 93.6584 169.152 94.0913 169.152 94.604C169.152 95.1167 168.993 95.5439 168.674 95.8857C168.355 96.2275 167.888 96.3984 167.272 96.3984C166.657 96.3984 166.19 96.2275 165.871 95.8857C165.563 95.5439 165.41 95.1167 165.41 94.604ZM176.877 99.5088L176.962 101.56C178.318 99.9645 180.147 99.167 182.448 99.167C185.035 99.167 186.795 100.158 187.729 102.141C188.344 101.252 189.142 100.534 190.122 99.9873C191.113 99.4404 192.281 99.167 193.625 99.167C197.681 99.167 199.743 101.315 199.812 105.61V118H196.65V105.798C196.65 104.476 196.348 103.491 195.744 102.841C195.14 102.181 194.126 101.85 192.702 101.85C191.529 101.85 190.555 102.203 189.78 102.91C189.005 103.605 188.555 104.545 188.43 105.729V118H185.251V105.883C185.251 103.194 183.935 101.85 181.303 101.85C179.23 101.85 177.811 102.733 177.048 104.499V118H173.886V99.5088H176.877ZM216.013 118C215.83 117.635 215.682 116.986 215.568 116.052C214.099 117.578 212.344 118.342 210.305 118.342C208.482 118.342 206.984 117.829 205.81 116.804C204.648 115.767 204.067 114.457 204.067 112.873C204.067 110.948 204.796 109.455 206.254 108.396C207.724 107.325 209.786 106.789 212.441 106.789H215.517V105.336C215.517 104.231 215.187 103.354 214.526 102.705C213.865 102.044 212.891 101.713 211.604 101.713C210.476 101.713 209.53 101.998 208.767 102.568C208.003 103.138 207.622 103.827 207.622 104.636H204.443C204.443 103.713 204.768 102.824 205.417 101.97C206.078 101.104 206.966 100.42 208.083 99.9189C209.211 99.4176 210.447 99.167 211.792 99.167C213.922 99.167 215.591 99.7025 216.799 100.773C218.007 101.833 218.633 103.297 218.679 105.166V113.676C218.679 115.374 218.895 116.724 219.328 117.727V118H216.013ZM210.766 115.59C211.757 115.59 212.697 115.334 213.586 114.821C214.475 114.309 215.118 113.642 215.517 112.822V109.028H213.039C209.165 109.028 207.229 110.161 207.229 112.429C207.229 113.42 207.559 114.195 208.22 114.753C208.881 115.311 209.729 115.59 210.766 115.59ZM222.883 108.601C222.883 105.718 223.549 103.428 224.882 101.73C226.215 100.021 227.981 99.167 230.18 99.167C232.436 99.167 234.196 99.9645 235.461 101.56L235.615 99.5088H238.503V117.556C238.503 119.948 237.791 121.834 236.367 123.212C234.954 124.591 233.051 125.28 230.659 125.28C229.326 125.28 228.021 124.995 226.745 124.426C225.469 123.856 224.495 123.076 223.823 122.084L225.463 120.188C226.819 121.862 228.477 122.7 230.437 122.7C231.975 122.7 233.171 122.267 234.025 121.401C234.891 120.535 235.324 119.316 235.324 117.744V116.154C234.06 117.613 232.333 118.342 230.146 118.342C227.981 118.342 226.227 117.47 224.882 115.727C223.549 113.984 222.883 111.608 222.883 108.601ZM226.062 108.959C226.062 111.044 226.489 112.685 227.343 113.881C228.198 115.066 229.394 115.659 230.932 115.659C232.926 115.659 234.39 114.753 235.324 112.941V104.499C234.356 102.733 232.903 101.85 230.966 101.85C229.428 101.85 228.226 102.448 227.36 103.645C226.494 104.841 226.062 106.612 226.062 108.959ZM250.961 118.342C248.455 118.342 246.416 117.521 244.843 115.881C243.271 114.229 242.485 112.024 242.485 109.267V108.686C242.485 106.852 242.832 105.217 243.527 103.781C244.234 102.334 245.214 101.206 246.467 100.397C247.731 99.5771 249.099 99.167 250.568 99.167C252.972 99.167 254.841 99.9588 256.174 101.542C257.507 103.126 258.173 105.393 258.173 108.344V109.66H245.646C245.692 111.483 246.222 112.958 247.236 114.086C248.261 115.203 249.56 115.761 251.132 115.761C252.249 115.761 253.194 115.533 253.969 115.078C254.744 114.622 255.422 114.018 256.003 113.266L257.934 114.77C256.385 117.151 254.06 118.342 250.961 118.342ZM250.568 101.765C249.292 101.765 248.221 102.232 247.355 103.166C246.49 104.089 245.954 105.388 245.749 107.062H255.012V106.823C254.921 105.217 254.488 103.975 253.713 103.098C252.938 102.209 251.89 101.765 250.568 101.765ZM264.838 99.5088L264.941 101.833C266.354 100.056 268.199 99.167 270.478 99.167C274.386 99.167 276.357 101.372 276.391 105.781V118H273.229V105.764C273.218 104.431 272.91 103.445 272.307 102.807C271.714 102.169 270.786 101.85 269.521 101.85C268.496 101.85 267.596 102.124 266.821 102.67C266.046 103.217 265.442 103.935 265.009 104.824V118H261.848V99.5088H264.838Z" fill="white"/>
<g id="T&#195;&#173;tulo">
<rect id="Rectangle 2" x="18" y="173" width="357" height="82" fill="#0E0101"/>
<path id="t&#195;&#173;tulo general" d="M38.873 202.375V206.98H42.4238V209.494H38.873V221.289C38.873 222.051 39.0312 222.625 39.3477 223.012C39.6641 223.387 40.2031 223.574 40.9648 223.574C41.3398 223.574 41.8555 223.504 42.5117 223.363V226C41.6562 226.234 40.8242 226.352 40.0156 226.352C38.5625 226.352 37.4668 225.912 36.7285 225.033C35.9902 224.154 35.6211 222.906 35.6211 221.289V209.494H32.1582V206.98H35.6211V202.375H38.873ZM49.7715 226H46.502V206.98H49.7715V226ZM49.8066 199.018H53.7441L49.0332 204.186H46.4141L49.8066 199.018ZM59.5449 202.375V206.98H63.0957V209.494H59.5449V221.289C59.5449 222.051 59.7031 222.625 60.0195 223.012C60.3359 223.387 60.875 223.574 61.6367 223.574C62.0117 223.574 62.5273 223.504 63.1836 223.363V226C62.3281 226.234 61.4961 226.352 60.6875 226.352C59.2344 226.352 58.1387 225.912 57.4004 225.033C56.6621 224.154 56.293 222.906 56.293 221.289V209.494H52.8301V206.98H56.293V202.375H59.5449ZM78.6523 224.119C77.3867 225.607 75.5293 226.352 73.0801 226.352C71.0527 226.352 69.5059 225.766 68.4395 224.594C67.3848 223.41 66.8516 221.664 66.8398 219.355V206.98H70.0918V219.268C70.0918 222.15 71.2637 223.592 73.6074 223.592C76.0918 223.592 77.7441 222.666 78.5645 220.814V206.98H81.8164V226H78.7227L78.6523 224.119ZM90.3066 226H87.0547V199H90.3066V226ZM94.666 216.314C94.666 214.451 95.0293 212.775 95.7559 211.287C96.4941 209.799 97.5137 208.65 98.8145 207.842C100.127 207.033 101.621 206.629 103.297 206.629C105.887 206.629 107.979 207.525 109.572 209.318C111.178 211.111 111.98 213.496 111.98 216.473V216.701C111.98 218.553 111.623 220.217 110.908 221.693C110.205 223.158 109.191 224.301 107.867 225.121C106.555 225.941 105.043 226.352 103.332 226.352C100.754 226.352 98.6621 225.455 97.0566 223.662C95.4629 221.869 94.666 219.496 94.666 216.543V216.314ZM97.9355 216.701C97.9355 218.811 98.4219 220.504 99.3945 221.781C100.379 223.059 101.691 223.697 103.332 223.697C104.984 223.697 106.297 223.053 107.27 221.764C108.242 220.463 108.729 218.646 108.729 216.314C108.729 214.229 108.23 212.541 107.234 211.252C106.25 209.951 104.938 209.301 103.297 209.301C101.691 209.301 100.396 209.939 99.4121 211.217C98.4277 212.494 97.9355 214.322 97.9355 216.701ZM124.215 216.332C124.215 213.367 124.9 211.012 126.271 209.266C127.643 207.508 129.459 206.629 131.721 206.629C134.041 206.629 135.852 207.449 137.152 209.09L137.311 206.98H140.281V225.543C140.281 228.004 139.549 229.943 138.084 231.361C136.631 232.779 134.674 233.488 132.213 233.488C130.842 233.488 129.5 233.195 128.188 232.609C126.875 232.023 125.873 231.221 125.182 230.201L126.869 228.25C128.264 229.973 129.969 230.834 131.984 230.834C133.566 230.834 134.797 230.389 135.676 229.498C136.566 228.607 137.012 227.354 137.012 225.736V224.102C135.711 225.602 133.936 226.352 131.686 226.352C129.459 226.352 127.654 225.455 126.271 223.662C124.9 221.869 124.215 219.426 124.215 216.332ZM127.484 216.701C127.484 218.846 127.924 220.533 128.803 221.764C129.682 222.982 130.912 223.592 132.494 223.592C134.545 223.592 136.051 222.66 137.012 220.797V212.113C136.016 210.297 134.521 209.389 132.529 209.389C130.947 209.389 129.711 210.004 128.82 211.234C127.93 212.465 127.484 214.287 127.484 216.701ZM153.096 226.352C150.518 226.352 148.42 225.508 146.803 223.82C145.186 222.121 144.377 219.854 144.377 217.018V216.42C144.377 214.533 144.734 212.852 145.449 211.375C146.176 209.887 147.184 208.727 148.473 207.895C149.773 207.051 151.18 206.629 152.691 206.629C155.164 206.629 157.086 207.443 158.457 209.072C159.828 210.701 160.514 213.033 160.514 216.068V217.422H147.629C147.676 219.297 148.221 220.814 149.264 221.975C150.318 223.123 151.654 223.697 153.271 223.697C154.42 223.697 155.393 223.463 156.189 222.994C156.986 222.525 157.684 221.904 158.281 221.131L160.268 222.678C158.674 225.127 156.283 226.352 153.096 226.352ZM152.691 209.301C151.379 209.301 150.277 209.781 149.387 210.742C148.496 211.691 147.945 213.027 147.734 214.75H157.262V214.504C157.168 212.852 156.723 211.574 155.926 210.672C155.129 209.758 154.051 209.301 152.691 209.301ZM167.369 206.98L167.475 209.371C168.928 207.543 170.826 206.629 173.17 206.629C177.189 206.629 179.217 208.896 179.252 213.432V226H176V213.414C175.988 212.043 175.672 211.029 175.051 210.373C174.441 209.717 173.486 209.389 172.186 209.389C171.131 209.389 170.205 209.67 169.408 210.232C168.611 210.795 167.99 211.533 167.545 212.447V226H164.293V206.98H167.369ZM192.049 226.352C189.471 226.352 187.373 225.508 185.756 223.82C184.139 222.121 183.33 219.854 183.33 217.018V216.42C183.33 214.533 183.688 212.852 184.402 211.375C185.129 209.887 186.137 208.727 187.426 207.895C188.727 207.051 190.133 206.629 191.645 206.629C194.117 206.629 196.039 207.443 197.41 209.072C198.781 210.701 199.467 213.033 199.467 216.068V217.422H186.582C186.629 219.297 187.174 220.814 188.217 221.975C189.271 223.123 190.607 223.697 192.225 223.697C193.373 223.697 194.346 223.463 195.143 222.994C195.939 222.525 196.637 221.904 197.234 221.131L199.221 222.678C197.627 225.127 195.236 226.352 192.049 226.352ZM191.645 209.301C190.332 209.301 189.23 209.781 188.34 210.742C187.449 211.691 186.898 213.027 186.688 214.75H196.215V214.504C196.121 212.852 195.676 211.574 194.879 210.672C194.082 209.758 193.004 209.301 191.645 209.301ZM212.439 209.898C211.947 209.816 211.414 209.775 210.84 209.775C208.707 209.775 207.26 210.684 206.498 212.5V226H203.246V206.98H206.41L206.463 209.178C207.529 207.479 209.041 206.629 210.998 206.629C211.631 206.629 212.111 206.711 212.439 206.875V209.898ZM226.484 226C226.297 225.625 226.145 224.957 226.027 223.996C224.516 225.566 222.711 226.352 220.613 226.352C218.738 226.352 217.197 225.824 215.99 224.77C214.795 223.703 214.197 222.355 214.197 220.727C214.197 218.746 214.947 217.211 216.447 216.121C217.959 215.02 220.08 214.469 222.811 214.469H225.975V212.975C225.975 211.838 225.635 210.936 224.955 210.268C224.275 209.588 223.273 209.248 221.949 209.248C220.789 209.248 219.816 209.541 219.031 210.127C218.246 210.713 217.854 211.422 217.854 212.254H214.584C214.584 211.305 214.918 210.391 215.586 209.512C216.266 208.621 217.18 207.918 218.328 207.402C219.488 206.887 220.76 206.629 222.143 206.629C224.334 206.629 226.051 207.18 227.293 208.281C228.535 209.371 229.18 210.877 229.227 212.799V221.553C229.227 223.299 229.449 224.688 229.895 225.719V226H226.484ZM221.088 223.521C222.107 223.521 223.074 223.258 223.988 222.73C224.902 222.203 225.564 221.518 225.975 220.674V216.771H223.426C219.441 216.771 217.449 217.938 217.449 220.27C217.449 221.289 217.789 222.086 218.469 222.66C219.148 223.234 220.021 223.521 221.088 223.521ZM237.857 226H234.605V199H237.857V226Z" fill="white"/>
</g>
<g id="arrow-left">
<path id="Icon_2" d="M41.4142 24.5858C42.1953 25.3668 42.1953 26.6332 41.4142 27.4142L32.8284 36H56C57.1046 36 58 36.8954 58 38C58 39.1046 57.1046 40 56 40H32.8284L41.4142 48.5858C42.1953 49.3668 42.1953 50.6332 41.4142 51.4142C40.6332 52.1953 39.3668 52.1953 38.5858 51.4142L26.5858 39.4142C26.2107 39.0391 26 38.5304 26 38C26 37.4696 26.2107 36.9609 26.5858 36.5858L38.5858 24.5858C39.3668 23.8047 40.6332 23.8047 41.4142 24.5858Z" fill="#0D0D0D"/>
</g>
</g>
<g id="Frame 2">
<g id="Receta">
<rect id="Rectangle 5" x="70" y="383" width="123.027" height="123.417" fill="#0E0101"/>
<g id="Group 8">
<rect id="Rectangle 11" x="70" y="514.029" width="124" height="36.9709" fill="#0E0101"/>
<path id="titulo receta" d="M87.4365 526.828V529.131H89.2119V530.388H87.4365V536.285C87.4365 536.666 87.5156 536.953 87.6738 537.147C87.832 537.334 88.1016 537.428 88.4824 537.428C88.6699 537.428 88.9277 537.393 89.2559 537.322V538.641C88.8281 538.758 88.4121 538.817 88.0078 538.817C87.2812 538.817 86.7334 538.597 86.3643 538.157C85.9951 537.718 85.8105 537.094 85.8105 536.285V530.388H84.0791V529.131H85.8105V526.828H87.4365ZM92.8857 538.641H91.2598V529.131H92.8857V538.641ZM91.1279 526.609C91.1279 526.345 91.207 526.122 91.3652 525.941C91.5293 525.759 91.7695 525.668 92.0859 525.668C92.4023 525.668 92.6426 525.759 92.8066 525.941C92.9707 526.122 93.0527 526.345 93.0527 526.609C93.0527 526.872 92.9707 527.092 92.8066 527.268C92.6426 527.444 92.4023 527.531 92.0859 527.531C91.7695 527.531 91.5293 527.444 91.3652 527.268C91.207 527.092 91.1279 526.872 91.1279 526.609ZM97.7021 526.828V529.131H99.4775V530.388H97.7021V536.285C97.7021 536.666 97.7812 536.953 97.9395 537.147C98.0977 537.334 98.3672 537.428 98.748 537.428C98.9355 537.428 99.1934 537.393 99.5215 537.322V538.641C99.0938 538.758 98.6777 538.817 98.2734 538.817C97.5469 538.817 96.999 538.597 96.6299 538.157C96.2607 537.718 96.0762 537.094 96.0762 536.285V530.388H94.3447V529.131H96.0762V526.828H97.7021ZM107.256 537.7C106.623 538.444 105.694 538.817 104.47 538.817C103.456 538.817 102.683 538.524 102.149 537.938C101.622 537.346 101.355 536.473 101.35 535.319V529.131H102.976V535.275C102.976 536.716 103.562 537.437 104.733 537.437C105.976 537.437 106.802 536.974 107.212 536.048V529.131H108.838V538.641H107.291L107.256 537.7ZM113.083 538.641H111.457V525.141H113.083V538.641ZM115.263 533.798C115.263 532.866 115.444 532.028 115.808 531.284C116.177 530.54 116.687 529.966 117.337 529.562C117.993 529.157 118.74 528.955 119.578 528.955C120.873 528.955 121.919 529.403 122.716 530.3C123.519 531.196 123.92 532.389 123.92 533.877V533.991C123.92 534.917 123.741 535.749 123.384 536.487C123.032 537.22 122.525 537.791 121.863 538.201C121.207 538.611 120.451 538.817 119.596 538.817C118.307 538.817 117.261 538.368 116.458 537.472C115.661 536.575 115.263 535.389 115.263 533.912V533.798ZM116.897 533.991C116.897 535.046 117.141 535.893 117.627 536.531C118.119 537.17 118.775 537.489 119.596 537.489C120.422 537.489 121.078 537.167 121.564 536.523C122.051 535.872 122.294 534.964 122.294 533.798C122.294 532.755 122.045 531.911 121.547 531.267C121.055 530.616 120.398 530.291 119.578 530.291C118.775 530.291 118.128 530.611 117.636 531.249C117.144 531.888 116.897 532.802 116.897 533.991ZM135.021 530.59C134.774 530.549 134.508 530.528 134.221 530.528C133.154 530.528 132.431 530.983 132.05 531.891V538.641H130.424V529.131H132.006L132.032 530.23C132.565 529.38 133.321 528.955 134.3 528.955C134.616 528.955 134.856 528.996 135.021 529.078V530.59ZM140.294 538.817C139.005 538.817 137.956 538.395 137.147 537.551C136.339 536.701 135.935 535.568 135.935 534.15V533.851C135.935 532.907 136.113 532.067 136.471 531.328C136.834 530.584 137.338 530.004 137.982 529.588C138.633 529.166 139.336 528.955 140.092 528.955C141.328 528.955 142.289 529.362 142.975 530.177C143.66 530.991 144.003 532.157 144.003 533.675V534.352H137.561C137.584 535.289 137.856 536.048 138.378 536.628C138.905 537.202 139.573 537.489 140.382 537.489C140.956 537.489 141.442 537.372 141.841 537.138C142.239 536.903 142.588 536.593 142.887 536.206L143.88 536.98C143.083 538.204 141.888 538.817 140.294 538.817ZM140.092 530.291C139.436 530.291 138.885 530.531 138.439 531.012C137.994 531.486 137.719 532.154 137.613 533.016H142.377V532.893C142.33 532.067 142.107 531.428 141.709 530.977C141.311 530.52 140.771 530.291 140.092 530.291ZM149.707 537.489C150.287 537.489 150.794 537.314 151.228 536.962C151.661 536.611 151.901 536.171 151.948 535.644H153.486C153.457 536.189 153.27 536.707 152.924 537.199C152.578 537.692 152.115 538.084 151.535 538.377C150.961 538.67 150.352 538.817 149.707 538.817C148.412 538.817 147.381 538.386 146.613 537.525C145.852 536.657 145.471 535.474 145.471 533.974V533.701C145.471 532.776 145.641 531.952 145.98 531.232C146.32 530.511 146.807 529.951 147.439 529.553C148.078 529.154 148.831 528.955 149.698 528.955C150.765 528.955 151.649 529.275 152.353 529.913C153.062 530.552 153.439 531.381 153.486 532.401H151.948C151.901 531.785 151.667 531.281 151.245 530.889C150.829 530.49 150.313 530.291 149.698 530.291C148.872 530.291 148.23 530.59 147.773 531.188C147.322 531.779 147.097 532.638 147.097 533.763V534.07C147.097 535.166 147.322 536.01 147.773 536.602C148.225 537.194 148.869 537.489 149.707 537.489ZM159.261 538.817C157.972 538.817 156.923 538.395 156.114 537.551C155.306 536.701 154.901 535.568 154.901 534.15V533.851C154.901 532.907 155.08 532.067 155.438 531.328C155.801 530.584 156.305 530.004 156.949 529.588C157.6 529.166 158.303 528.955 159.059 528.955C160.295 528.955 161.256 529.362 161.941 530.177C162.627 530.991 162.97 532.157 162.97 533.675V534.352H156.527C156.551 535.289 156.823 536.048 157.345 536.628C157.872 537.202 158.54 537.489 159.349 537.489C159.923 537.489 160.409 537.372 160.808 537.138C161.206 536.903 161.555 536.593 161.854 536.206L162.847 536.98C162.05 538.204 160.854 538.817 159.261 538.817ZM159.059 530.291C158.402 530.291 157.852 530.531 157.406 531.012C156.961 531.486 156.686 532.154 156.58 533.016H161.344V532.893C161.297 532.067 161.074 531.428 160.676 530.977C160.277 530.52 159.738 530.291 159.059 530.291ZM167.065 526.828V529.131H168.841V530.388H167.065V536.285C167.065 536.666 167.145 536.953 167.303 537.147C167.461 537.334 167.73 537.428 168.111 537.428C168.299 537.428 168.557 537.393 168.885 537.322V538.641C168.457 538.758 168.041 538.817 167.637 538.817C166.91 538.817 166.362 538.597 165.993 538.157C165.624 537.718 165.439 537.094 165.439 536.285V530.388H163.708V529.131H165.439V526.828H167.065ZM176.619 538.641C176.525 538.453 176.449 538.119 176.391 537.639C175.635 538.424 174.732 538.817 173.684 538.817C172.746 538.817 171.976 538.553 171.372 538.026C170.774 537.492 170.476 536.819 170.476 536.004C170.476 535.014 170.851 534.246 171.601 533.701C172.356 533.151 173.417 532.875 174.782 532.875H176.364V532.128C176.364 531.56 176.194 531.109 175.854 530.775C175.515 530.435 175.014 530.265 174.352 530.265C173.771 530.265 173.285 530.411 172.893 530.704C172.5 530.997 172.304 531.352 172.304 531.768H170.669C170.669 531.293 170.836 530.836 171.17 530.397C171.51 529.951 171.967 529.6 172.541 529.342C173.121 529.084 173.757 528.955 174.448 528.955C175.544 528.955 176.402 529.231 177.023 529.781C177.645 530.326 177.967 531.079 177.99 532.04V536.417C177.99 537.29 178.102 537.985 178.324 538.5V538.641H176.619ZM173.921 537.402C174.431 537.402 174.914 537.27 175.371 537.006C175.828 536.742 176.159 536.4 176.364 535.978V534.027H175.09C173.098 534.027 172.102 534.61 172.102 535.776C172.102 536.285 172.271 536.684 172.611 536.971C172.951 537.258 173.388 537.402 173.921 537.402Z" fill="white"/>
</g>
</g>
<g id="Receta_2">
<rect id="Rectangle 5_2" x="221" y="383" width="123.027" height="123.417" fill="#0E0101"/>
<g id="Group 8_2">
<rect id="Rectangle 11_2" x="221" y="514.029" width="124" height="36.9709" fill="#0E0101"/>
<path id="titulo receta_2" d="M238.437 526.828V529.131H240.212V530.388H238.437V536.285C238.437 536.666 238.516 536.953 238.674 537.147C238.832 537.334 239.102 537.428 239.482 537.428C239.67 537.428 239.928 537.393 240.256 537.322V538.641C239.828 538.758 239.412 538.817 239.008 538.817C238.281 538.817 237.733 538.597 237.364 538.157C236.995 537.718 236.811 537.094 236.811 536.285V530.388H235.079V529.131H236.811V526.828H238.437ZM243.886 538.641H242.26V529.131H243.886V538.641ZM242.128 526.609C242.128 526.345 242.207 526.122 242.365 525.941C242.529 525.759 242.77 525.668 243.086 525.668C243.402 525.668 243.643 525.759 243.807 525.941C243.971 526.122 244.053 526.345 244.053 526.609C244.053 526.872 243.971 527.092 243.807 527.268C243.643 527.444 243.402 527.531 243.086 527.531C242.77 527.531 242.529 527.444 242.365 527.268C242.207 527.092 242.128 526.872 242.128 526.609ZM248.702 526.828V529.131H250.478V530.388H248.702V536.285C248.702 536.666 248.781 536.953 248.939 537.147C249.098 537.334 249.367 537.428 249.748 537.428C249.936 537.428 250.193 537.393 250.521 537.322V538.641C250.094 538.758 249.678 538.817 249.273 538.817C248.547 538.817 247.999 538.597 247.63 538.157C247.261 537.718 247.076 537.094 247.076 536.285V530.388H245.345V529.131H247.076V526.828H248.702ZM258.256 537.7C257.623 538.444 256.694 538.817 255.47 538.817C254.456 538.817 253.683 538.524 253.149 537.938C252.622 537.346 252.355 536.473 252.35 535.319V529.131H253.976V535.275C253.976 536.716 254.562 537.437 255.733 537.437C256.976 537.437 257.802 536.974 258.212 536.048V529.131H259.838V538.641H258.291L258.256 537.7ZM264.083 538.641H262.457V525.141H264.083V538.641ZM266.263 533.798C266.263 532.866 266.444 532.028 266.808 531.284C267.177 530.54 267.687 529.966 268.337 529.562C268.993 529.157 269.74 528.955 270.578 528.955C271.873 528.955 272.919 529.403 273.716 530.3C274.519 531.196 274.92 532.389 274.92 533.877V533.991C274.92 534.917 274.741 535.749 274.384 536.487C274.032 537.22 273.525 537.791 272.863 538.201C272.207 538.611 271.451 538.817 270.596 538.817C269.307 538.817 268.261 538.368 267.458 537.472C266.661 536.575 266.263 535.389 266.263 533.912V533.798ZM267.897 533.991C267.897 535.046 268.141 535.893 268.627 536.531C269.119 537.17 269.775 537.489 270.596 537.489C271.422 537.489 272.078 537.167 272.564 536.523C273.051 535.872 273.294 534.964 273.294 533.798C273.294 532.755 273.045 531.911 272.547 531.267C272.055 530.616 271.398 530.291 270.578 530.291C269.775 530.291 269.128 530.611 268.636 531.249C268.144 531.888 267.897 532.802 267.897 533.991ZM286.021 530.59C285.774 530.549 285.508 530.528 285.221 530.528C284.154 530.528 283.431 530.983 283.05 531.891V538.641H281.424V529.131H283.006L283.032 530.23C283.565 529.38 284.321 528.955 285.3 528.955C285.616 528.955 285.856 528.996 286.021 529.078V530.59ZM291.294 538.817C290.005 538.817 288.956 538.395 288.147 537.551C287.339 536.701 286.935 535.568 286.935 534.15V533.851C286.935 532.907 287.113 532.067 287.471 531.328C287.834 530.584 288.338 530.004 288.982 529.588C289.633 529.166 290.336 528.955 291.092 528.955C292.328 528.955 293.289 529.362 293.975 530.177C294.66 530.991 295.003 532.157 295.003 533.675V534.352H288.561C288.584 535.289 288.856 536.048 289.378 536.628C289.905 537.202 290.573 537.489 291.382 537.489C291.956 537.489 292.442 537.372 292.841 537.138C293.239 536.903 293.588 536.593 293.887 536.206L294.88 536.98C294.083 538.204 292.888 538.817 291.294 538.817ZM291.092 530.291C290.436 530.291 289.885 530.531 289.439 531.012C288.994 531.486 288.719 532.154 288.613 533.016H293.377V532.893C293.33 532.067 293.107 531.428 292.709 530.977C292.311 530.52 291.771 530.291 291.092 530.291ZM300.707 537.489C301.287 537.489 301.794 537.314 302.228 536.962C302.661 536.611 302.901 536.171 302.948 535.644H304.486C304.457 536.189 304.27 536.707 303.924 537.199C303.578 537.692 303.115 538.084 302.535 538.377C301.961 538.67 301.352 538.817 300.707 538.817C299.412 538.817 298.381 538.386 297.613 537.525C296.852 536.657 296.471 535.474 296.471 533.974V533.701C296.471 532.776 296.641 531.952 296.98 531.232C297.32 530.511 297.807 529.951 298.439 529.553C299.078 529.154 299.831 528.955 300.698 528.955C301.765 528.955 302.649 529.275 303.353 529.913C304.062 530.552 304.439 531.381 304.486 532.401H302.948C302.901 531.785 302.667 531.281 302.245 530.889C301.829 530.49 301.313 530.291 300.698 530.291C299.872 530.291 299.23 530.59 298.773 531.188C298.322 531.779 298.097 532.638 298.097 533.763V534.07C298.097 535.166 298.322 536.01 298.773 536.602C299.225 537.194 299.869 537.489 300.707 537.489ZM310.261 538.817C308.972 538.817 307.923 538.395 307.114 537.551C306.306 536.701 305.901 535.568 305.901 534.15V533.851C305.901 532.907 306.08 532.067 306.438 531.328C306.801 530.584 307.305 530.004 307.949 529.588C308.6 529.166 309.303 528.955 310.059 528.955C311.295 528.955 312.256 529.362 312.941 530.177C313.627 530.991 313.97 532.157 313.97 533.675V534.352H307.527C307.551 535.289 307.823 536.048 308.345 536.628C308.872 537.202 309.54 537.489 310.349 537.489C310.923 537.489 311.409 537.372 311.808 537.138C312.206 536.903 312.555 536.593 312.854 536.206L313.847 536.98C313.05 538.204 311.854 538.817 310.261 538.817ZM310.059 530.291C309.402 530.291 308.852 530.531 308.406 531.012C307.961 531.486 307.686 532.154 307.58 533.016H312.344V532.893C312.297 532.067 312.074 531.428 311.676 530.977C311.277 530.52 310.738 530.291 310.059 530.291ZM318.065 526.828V529.131H319.841V530.388H318.065V536.285C318.065 536.666 318.145 536.953 318.303 537.147C318.461 537.334 318.73 537.428 319.111 537.428C319.299 537.428 319.557 537.393 319.885 537.322V538.641C319.457 538.758 319.041 538.817 318.637 538.817C317.91 538.817 317.362 538.597 316.993 538.157C316.624 537.718 316.439 537.094 316.439 536.285V530.388H314.708V529.131H316.439V526.828H318.065ZM327.619 538.641C327.525 538.453 327.449 538.119 327.391 537.639C326.635 538.424 325.732 538.817 324.684 538.817C323.746 538.817 322.976 538.553 322.372 538.026C321.774 537.492 321.476 536.819 321.476 536.004C321.476 535.014 321.851 534.246 322.601 533.701C323.356 533.151 324.417 532.875 325.782 532.875H327.364V532.128C327.364 531.56 327.194 531.109 326.854 530.775C326.515 530.435 326.014 530.265 325.352 530.265C324.771 530.265 324.285 530.411 323.893 530.704C323.5 530.997 323.304 531.352 323.304 531.768H321.669C321.669 531.293 321.836 530.836 322.17 530.397C322.51 529.951 322.967 529.6 323.541 529.342C324.121 529.084 324.757 528.955 325.448 528.955C326.544 528.955 327.402 529.231 328.023 529.781C328.645 530.326 328.967 531.079 328.99 532.04V536.417C328.99 537.29 329.102 537.985 329.324 538.5V538.641H327.619ZM324.921 537.402C325.431 537.402 325.914 537.27 326.371 537.006C326.828 536.742 327.159 536.4 327.364 535.978V534.027H326.09C324.098 534.027 323.102 534.61 323.102 535.776C323.102 536.285 323.271 536.684 323.611 536.971C323.951 537.258 324.388 537.402 324.921 537.402Z" fill="white"/>
</g>
</g>
<g id="Receta_3">
<rect id="Rectangle 5_3" x="70" y="574" width="123.027" height="123.417" fill="#0E0101"/>
<g id="Group 8_3">
<rect id="Rectangle 11_3" x="70" y="705.029" width="124" height="36.9709" fill="#0E0101"/>
<path id="titulo receta_3" d="M87.4365 717.828V720.131H89.2119V721.388H87.4365V727.285C87.4365 727.666 87.5156 727.953 87.6738 728.147C87.832 728.334 88.1016 728.428 88.4824 728.428C88.6699 728.428 88.9277 728.393 89.2559 728.322V729.641C88.8281 729.758 88.4121 729.817 88.0078 729.817C87.2812 729.817 86.7334 729.597 86.3643 729.157C85.9951 728.718 85.8105 728.094 85.8105 727.285V721.388H84.0791V720.131H85.8105V717.828H87.4365ZM92.8857 729.641H91.2598V720.131H92.8857V729.641ZM91.1279 717.609C91.1279 717.345 91.207 717.122 91.3652 716.941C91.5293 716.759 91.7695 716.668 92.0859 716.668C92.4023 716.668 92.6426 716.759 92.8066 716.941C92.9707 717.122 93.0527 717.345 93.0527 717.609C93.0527 717.872 92.9707 718.092 92.8066 718.268C92.6426 718.444 92.4023 718.531 92.0859 718.531C91.7695 718.531 91.5293 718.444 91.3652 718.268C91.207 718.092 91.1279 717.872 91.1279 717.609ZM97.7021 717.828V720.131H99.4775V721.388H97.7021V727.285C97.7021 727.666 97.7812 727.953 97.9395 728.147C98.0977 728.334 98.3672 728.428 98.748 728.428C98.9355 728.428 99.1934 728.393 99.5215 728.322V729.641C99.0938 729.758 98.6777 729.817 98.2734 729.817C97.5469 729.817 96.999 729.597 96.6299 729.157C96.2607 728.718 96.0762 728.094 96.0762 727.285V721.388H94.3447V720.131H96.0762V717.828H97.7021ZM107.256 728.7C106.623 729.444 105.694 729.817 104.47 729.817C103.456 729.817 102.683 729.524 102.149 728.938C101.622 728.346 101.355 727.473 101.35 726.319V720.131H102.976V726.275C102.976 727.716 103.562 728.437 104.733 728.437C105.976 728.437 106.802 727.974 107.212 727.048V720.131H108.838V729.641H107.291L107.256 728.7ZM113.083 729.641H111.457V716.141H113.083V729.641ZM115.263 724.798C115.263 723.866 115.444 723.028 115.808 722.284C116.177 721.54 116.687 720.966 117.337 720.562C117.993 720.157 118.74 719.955 119.578 719.955C120.873 719.955 121.919 720.403 122.716 721.3C123.519 722.196 123.92 723.389 123.92 724.877V724.991C123.92 725.917 123.741 726.749 123.384 727.487C123.032 728.22 122.525 728.791 121.863 729.201C121.207 729.611 120.451 729.817 119.596 729.817C118.307 729.817 117.261 729.368 116.458 728.472C115.661 727.575 115.263 726.389 115.263 724.912V724.798ZM116.897 724.991C116.897 726.046 117.141 726.893 117.627 727.531C118.119 728.17 118.775 728.489 119.596 728.489C120.422 728.489 121.078 728.167 121.564 727.523C122.051 726.872 122.294 725.964 122.294 724.798C122.294 723.755 122.045 722.911 121.547 722.267C121.055 721.616 120.398 721.291 119.578 721.291C118.775 721.291 118.128 721.611 117.636 722.249C117.144 722.888 116.897 723.802 116.897 724.991ZM135.021 721.59C134.774 721.549 134.508 721.528 134.221 721.528C133.154 721.528 132.431 721.983 132.05 722.891V729.641H130.424V720.131H132.006L132.032 721.23C132.565 720.38 133.321 719.955 134.3 719.955C134.616 719.955 134.856 719.996 135.021 720.078V721.59ZM140.294 729.817C139.005 729.817 137.956 729.395 137.147 728.551C136.339 727.701 135.935 726.568 135.935 725.15V724.851C135.935 723.907 136.113 723.067 136.471 722.328C136.834 721.584 137.338 721.004 137.982 720.588C138.633 720.166 139.336 719.955 140.092 719.955C141.328 719.955 142.289 720.362 142.975 721.177C143.66 721.991 144.003 723.157 144.003 724.675V725.352H137.561C137.584 726.289 137.856 727.048 138.378 727.628C138.905 728.202 139.573 728.489 140.382 728.489C140.956 728.489 141.442 728.372 141.841 728.138C142.239 727.903 142.588 727.593 142.887 727.206L143.88 727.98C143.083 729.204 141.888 729.817 140.294 729.817ZM140.092 721.291C139.436 721.291 138.885 721.531 138.439 722.012C137.994 722.486 137.719 723.154 137.613 724.016H142.377V723.893C142.33 723.067 142.107 722.428 141.709 721.977C141.311 721.52 140.771 721.291 140.092 721.291ZM149.707 728.489C150.287 728.489 150.794 728.314 151.228 727.962C151.661 727.611 151.901 727.171 151.948 726.644H153.486C153.457 727.189 153.27 727.707 152.924 728.199C152.578 728.692 152.115 729.084 151.535 729.377C150.961 729.67 150.352 729.817 149.707 729.817C148.412 729.817 147.381 729.386 146.613 728.525C145.852 727.657 145.471 726.474 145.471 724.974V724.701C145.471 723.776 145.641 722.952 145.98 722.232C146.32 721.511 146.807 720.951 147.439 720.553C148.078 720.154 148.831 719.955 149.698 719.955C150.765 719.955 151.649 720.275 152.353 720.913C153.062 721.552 153.439 722.381 153.486 723.401H151.948C151.901 722.785 151.667 722.281 151.245 721.889C150.829 721.49 150.313 721.291 149.698 721.291C148.872 721.291 148.23 721.59 147.773 722.188C147.322 722.779 147.097 723.638 147.097 724.763V725.07C147.097 726.166 147.322 727.01 147.773 727.602C148.225 728.194 148.869 728.489 149.707 728.489ZM159.261 729.817C157.972 729.817 156.923 729.395 156.114 728.551C155.306 727.701 154.901 726.568 154.901 725.15V724.851C154.901 723.907 155.08 723.067 155.438 722.328C155.801 721.584 156.305 721.004 156.949 720.588C157.6 720.166 158.303 719.955 159.059 719.955C160.295 719.955 161.256 720.362 161.941 721.177C162.627 721.991 162.97 723.157 162.97 724.675V725.352H156.527C156.551 726.289 156.823 727.048 157.345 727.628C157.872 728.202 158.54 728.489 159.349 728.489C159.923 728.489 160.409 728.372 160.808 728.138C161.206 727.903 161.555 727.593 161.854 727.206L162.847 727.98C162.05 729.204 160.854 729.817 159.261 729.817ZM159.059 721.291C158.402 721.291 157.852 721.531 157.406 722.012C156.961 722.486 156.686 723.154 156.58 724.016H161.344V723.893C161.297 723.067 161.074 722.428 160.676 721.977C160.277 721.52 159.738 721.291 159.059 721.291ZM167.065 717.828V720.131H168.841V721.388H167.065V727.285C167.065 727.666 167.145 727.953 167.303 728.147C167.461 728.334 167.73 728.428 168.111 728.428C168.299 728.428 168.557 728.393 168.885 728.322V729.641C168.457 729.758 168.041 729.817 167.637 729.817C166.91 729.817 166.362 729.597 165.993 729.157C165.624 728.718 165.439 728.094 165.439 727.285V721.388H163.708V720.131H165.439V717.828H167.065ZM176.619 729.641C176.525 729.453 176.449 729.119 176.391 728.639C175.635 729.424 174.732 729.817 173.684 729.817C172.746 729.817 171.976 729.553 171.372 729.026C170.774 728.492 170.476 727.819 170.476 727.004C170.476 726.014 170.851 725.246 171.601 724.701C172.356 724.151 173.417 723.875 174.782 723.875H176.364V723.128C176.364 722.56 176.194 722.109 175.854 721.775C175.515 721.435 175.014 721.265 174.352 721.265C173.771 721.265 173.285 721.411 172.893 721.704C172.5 721.997 172.304 722.352 172.304 722.768H170.669C170.669 722.293 170.836 721.836 171.17 721.397C171.51 720.951 171.967 720.6 172.541 720.342C173.121 720.084 173.757 719.955 174.448 719.955C175.544 719.955 176.402 720.231 177.023 720.781C177.645 721.326 177.967 722.079 177.99 723.04V727.417C177.99 728.29 178.102 728.985 178.324 729.5V729.641H176.619ZM173.921 728.402C174.431 728.402 174.914 728.27 175.371 728.006C175.828 727.742 176.159 727.4 176.364 726.978V725.027H175.09C173.098 725.027 172.102 725.61 172.102 726.776C172.102 727.285 172.271 727.684 172.611 727.971C172.951 728.258 173.388 728.402 173.921 728.402Z" fill="white"/>
</g>
</g>
<g id="Receta_4">
<rect id="Rectangle 5_4" x="221" y="574" width="123.027" height="123.417" fill="#0E0101"/>
<g id="Group 8_4">
<rect id="Rectangle 11_4" x="221" y="705.029" width="124" height="36.9709" fill="#0E0101"/>
<path id="titulo receta_4" d="M238.437 717.828V720.131H240.212V721.388H238.437V727.285C238.437 727.666 238.516 727.953 238.674 728.147C238.832 728.334 239.102 728.428 239.482 728.428C239.67 728.428 239.928 728.393 240.256 728.322V729.641C239.828 729.758 239.412 729.817 239.008 729.817C238.281 729.817 237.733 729.597 237.364 729.157C236.995 728.718 236.811 728.094 236.811 727.285V721.388H235.079V720.131H236.811V717.828H238.437ZM243.886 729.641H242.26V720.131H243.886V729.641ZM242.128 717.609C242.128 717.345 242.207 717.122 242.365 716.941C242.529 716.759 242.77 716.668 243.086 716.668C243.402 716.668 243.643 716.759 243.807 716.941C243.971 717.122 244.053 717.345 244.053 717.609C244.053 717.872 243.971 718.092 243.807 718.268C243.643 718.444 243.402 718.531 243.086 718.531C242.77 718.531 242.529 718.444 242.365 718.268C242.207 718.092 242.128 717.872 242.128 717.609ZM248.702 717.828V720.131H250.478V721.388H248.702V727.285C248.702 727.666 248.781 727.953 248.939 728.147C249.098 728.334 249.367 728.428 249.748 728.428C249.936 728.428 250.193 728.393 250.521 728.322V729.641C250.094 729.758 249.678 729.817 249.273 729.817C248.547 729.817 247.999 729.597 247.63 729.157C247.261 728.718 247.076 728.094 247.076 727.285V721.388H245.345V720.131H247.076V717.828H248.702ZM258.256 728.7C257.623 729.444 256.694 729.817 255.47 729.817C254.456 729.817 253.683 729.524 253.149 728.938C252.622 728.346 252.355 727.473 252.35 726.319V720.131H253.976V726.275C253.976 727.716 254.562 728.437 255.733 728.437C256.976 728.437 257.802 727.974 258.212 727.048V720.131H259.838V729.641H258.291L258.256 728.7ZM264.083 729.641H262.457V716.141H264.083V729.641ZM266.263 724.798C266.263 723.866 266.444 723.028 266.808 722.284C267.177 721.54 267.687 720.966 268.337 720.562C268.993 720.157 269.74 719.955 270.578 719.955C271.873 719.955 272.919 720.403 273.716 721.3C274.519 722.196 274.92 723.389 274.92 724.877V724.991C274.92 725.917 274.741 726.749 274.384 727.487C274.032 728.22 273.525 728.791 272.863 729.201C272.207 729.611 271.451 729.817 270.596 729.817C269.307 729.817 268.261 729.368 267.458 728.472C266.661 727.575 266.263 726.389 266.263 724.912V724.798ZM267.897 724.991C267.897 726.046 268.141 726.893 268.627 727.531C269.119 728.17 269.775 728.489 270.596 728.489C271.422 728.489 272.078 728.167 272.564 727.523C273.051 726.872 273.294 725.964 273.294 724.798C273.294 723.755 273.045 722.911 272.547 722.267C272.055 721.616 271.398 721.291 270.578 721.291C269.775 721.291 269.128 721.611 268.636 722.249C268.144 722.888 267.897 723.802 267.897 724.991ZM286.021 721.59C285.774 721.549 285.508 721.528 285.221 721.528C284.154 721.528 283.431 721.983 283.05 722.891V729.641H281.424V720.131H283.006L283.032 721.23C283.565 720.38 284.321 719.955 285.3 719.955C285.616 719.955 285.856 719.996 286.021 720.078V721.59ZM291.294 729.817C290.005 729.817 288.956 729.395 288.147 728.551C287.339 727.701 286.935 726.568 286.935 725.15V724.851C286.935 723.907 287.113 723.067 287.471 722.328C287.834 721.584 288.338 721.004 288.982 720.588C289.633 720.166 290.336 719.955 291.092 719.955C292.328 719.955 293.289 720.362 293.975 721.177C294.66 721.991 295.003 723.157 295.003 724.675V725.352H288.561C288.584 726.289 288.856 727.048 289.378 727.628C289.905 728.202 290.573 728.489 291.382 728.489C291.956 728.489 292.442 728.372 292.841 728.138C293.239 727.903 293.588 727.593 293.887 727.206L294.88 727.98C294.083 729.204 292.888 729.817 291.294 729.817ZM291.092 721.291C290.436 721.291 289.885 721.531 289.439 722.012C288.994 722.486 288.719 723.154 288.613 724.016H293.377V723.893C293.33 723.067 293.107 722.428 292.709 721.977C292.311 721.52 291.771 721.291 291.092 721.291ZM300.707 728.489C301.287 728.489 301.794 728.314 302.228 727.962C302.661 727.611 302.901 727.171 302.948 726.644H304.486C304.457 727.189 304.27 727.707 303.924 728.199C303.578 728.692 303.115 729.084 302.535 729.377C301.961 729.67 301.352 729.817 300.707 729.817C299.412 729.817 298.381 729.386 297.613 728.525C296.852 727.657 296.471 726.474 296.471 724.974V724.701C296.471 723.776 296.641 722.952 296.98 722.232C297.32 721.511 297.807 720.951 298.439 720.553C299.078 720.154 299.831 719.955 300.698 719.955C301.765 719.955 302.649 720.275 303.353 720.913C304.062 721.552 304.439 722.381 304.486 723.401H302.948C302.901 722.785 302.667 722.281 302.245 721.889C301.829 721.49 301.313 721.291 300.698 721.291C299.872 721.291 299.23 721.59 298.773 722.188C298.322 722.779 298.097 723.638 298.097 724.763V725.07C298.097 726.166 298.322 727.01 298.773 727.602C299.225 728.194 299.869 728.489 300.707 728.489ZM310.261 729.817C308.972 729.817 307.923 729.395 307.114 728.551C306.306 727.701 305.901 726.568 305.901 725.15V724.851C305.901 723.907 306.08 723.067 306.438 722.328C306.801 721.584 307.305 721.004 307.949 720.588C308.6 720.166 309.303 719.955 310.059 719.955C311.295 719.955 312.256 720.362 312.941 721.177C313.627 721.991 313.97 723.157 313.97 724.675V725.352H307.527C307.551 726.289 307.823 727.048 308.345 727.628C308.872 728.202 309.54 728.489 310.349 728.489C310.923 728.489 311.409 728.372 311.808 728.138C312.206 727.903 312.555 727.593 312.854 727.206L313.847 727.98C313.05 729.204 311.854 729.817 310.261 729.817ZM310.059 721.291C309.402 721.291 308.852 721.531 308.406 722.012C307.961 722.486 307.686 723.154 307.58 724.016H312.344V723.893C312.297 723.067 312.074 722.428 311.676 721.977C311.277 721.52 310.738 721.291 310.059 721.291ZM318.065 717.828V720.131H319.841V721.388H318.065V727.285C318.065 727.666 318.145 727.953 318.303 728.147C318.461 728.334 318.73 728.428 319.111 728.428C319.299 728.428 319.557 728.393 319.885 728.322V729.641C319.457 729.758 319.041 729.817 318.637 729.817C317.91 729.817 317.362 729.597 316.993 729.157C316.624 728.718 316.439 728.094 316.439 727.285V721.388H314.708V720.131H316.439V717.828H318.065ZM327.619 729.641C327.525 729.453 327.449 729.119 327.391 728.639C326.635 729.424 325.732 729.817 324.684 729.817C323.746 729.817 322.976 729.553 322.372 729.026C321.774 728.492 321.476 727.819 321.476 727.004C321.476 726.014 321.851 725.246 322.601 724.701C323.356 724.151 324.417 723.875 325.782 723.875H327.364V723.128C327.364 722.56 327.194 722.109 326.854 721.775C326.515 721.435 326.014 721.265 325.352 721.265C324.771 721.265 324.285 721.411 323.893 721.704C323.5 721.997 323.304 722.352 323.304 722.768H321.669C321.669 722.293 321.836 721.836 322.17 721.397C322.51 720.951 322.967 720.6 323.541 720.342C324.121 720.084 324.757 719.955 325.448 719.955C326.544 719.955 327.402 720.231 328.023 720.781C328.645 721.326 328.967 722.079 328.99 723.04V727.417C328.99 728.29 329.102 728.985 329.324 729.5V729.641H327.619ZM324.921 728.402C325.431 728.402 325.914 728.27 326.371 728.006C326.828 727.742 327.159 727.4 327.364 726.978V725.027H326.09C324.098 725.027 323.102 725.61 323.102 726.776C323.102 727.285 323.271 727.684 323.611 727.971C323.951 728.258 324.388 728.402 324.921 728.402Z" fill="white"/>
</g>
</g>
<g id="Receta_5">
<rect id="Rectangle 5_5" x="70" y="765" width="123.027" height="123.417" fill="#0E0101"/>
<g id="Group 8_5">
<rect id="Rectangle 11_5" x="70" y="896.029" width="124" height="36.9709" fill="#0E0101"/>
<path id="titulo receta_5" d="M87.4365 908.828V911.131H89.2119V912.388H87.4365V918.285C87.4365 918.666 87.5156 918.953 87.6738 919.147C87.832 919.334 88.1016 919.428 88.4824 919.428C88.6699 919.428 88.9277 919.393 89.2559 919.322V920.641C88.8281 920.758 88.4121 920.817 88.0078 920.817C87.2812 920.817 86.7334 920.597 86.3643 920.157C85.9951 919.718 85.8105 919.094 85.8105 918.285V912.388H84.0791V911.131H85.8105V908.828H87.4365ZM92.8857 920.641H91.2598V911.131H92.8857V920.641ZM91.1279 908.609C91.1279 908.345 91.207 908.122 91.3652 907.941C91.5293 907.759 91.7695 907.668 92.0859 907.668C92.4023 907.668 92.6426 907.759 92.8066 907.941C92.9707 908.122 93.0527 908.345 93.0527 908.609C93.0527 908.872 92.9707 909.092 92.8066 909.268C92.6426 909.444 92.4023 909.531 92.0859 909.531C91.7695 909.531 91.5293 909.444 91.3652 909.268C91.207 909.092 91.1279 908.872 91.1279 908.609ZM97.7021 908.828V911.131H99.4775V912.388H97.7021V918.285C97.7021 918.666 97.7812 918.953 97.9395 919.147C98.0977 919.334 98.3672 919.428 98.748 919.428C98.9355 919.428 99.1934 919.393 99.5215 919.322V920.641C99.0938 920.758 98.6777 920.817 98.2734 920.817C97.5469 920.817 96.999 920.597 96.6299 920.157C96.2607 919.718 96.0762 919.094 96.0762 918.285V912.388H94.3447V911.131H96.0762V908.828H97.7021ZM107.256 919.7C106.623 920.445 105.694 920.817 104.47 920.817C103.456 920.817 102.683 920.524 102.149 919.938C101.622 919.346 101.355 918.473 101.35 917.319V911.131H102.976V917.275C102.976 918.716 103.562 919.437 104.733 919.437C105.976 919.437 106.802 918.974 107.212 918.048V911.131H108.838V920.641H107.291L107.256 919.7ZM113.083 920.641H111.457V907.141H113.083V920.641ZM115.263 915.798C115.263 914.866 115.444 914.028 115.808 913.284C116.177 912.54 116.687 911.966 117.337 911.562C117.993 911.157 118.74 910.955 119.578 910.955C120.873 910.955 121.919 911.403 122.716 912.3C123.519 913.196 123.92 914.389 123.92 915.877V915.991C123.92 916.917 123.741 917.749 123.384 918.487C123.032 919.22 122.525 919.791 121.863 920.201C121.207 920.611 120.451 920.817 119.596 920.817C118.307 920.817 117.261 920.368 116.458 919.472C115.661 918.575 115.263 917.389 115.263 915.912V915.798ZM116.897 915.991C116.897 917.046 117.141 917.893 117.627 918.531C118.119 919.17 118.775 919.489 119.596 919.489C120.422 919.489 121.078 919.167 121.564 918.523C122.051 917.872 122.294 916.964 122.294 915.798C122.294 914.755 122.045 913.911 121.547 913.267C121.055 912.616 120.398 912.291 119.578 912.291C118.775 912.291 118.128 912.611 117.636 913.249C117.144 913.888 116.897 914.802 116.897 915.991ZM135.021 912.59C134.774 912.549 134.508 912.528 134.221 912.528C133.154 912.528 132.431 912.983 132.05 913.891V920.641H130.424V911.131H132.006L132.032 912.23C132.565 911.38 133.321 910.955 134.3 910.955C134.616 910.955 134.856 910.996 135.021 911.078V912.59ZM140.294 920.817C139.005 920.817 137.956 920.395 137.147 919.551C136.339 918.701 135.935 917.568 135.935 916.15V915.851C135.935 914.907 136.113 914.067 136.471 913.328C136.834 912.584 137.338 912.004 137.982 911.588C138.633 911.166 139.336 910.955 140.092 910.955C141.328 910.955 142.289 911.362 142.975 912.177C143.66 912.991 144.003 914.157 144.003 915.675V916.352H137.561C137.584 917.289 137.856 918.048 138.378 918.628C138.905 919.202 139.573 919.489 140.382 919.489C140.956 919.489 141.442 919.372 141.841 919.138C142.239 918.903 142.588 918.593 142.887 918.206L143.88 918.98C143.083 920.204 141.888 920.817 140.294 920.817ZM140.092 912.291C139.436 912.291 138.885 912.531 138.439 913.012C137.994 913.486 137.719 914.154 137.613 915.016H142.377V914.893C142.33 914.067 142.107 913.428 141.709 912.977C141.311 912.52 140.771 912.291 140.092 912.291ZM149.707 919.489C150.287 919.489 150.794 919.314 151.228 918.962C151.661 918.611 151.901 918.171 151.948 917.644H153.486C153.457 918.189 153.27 918.707 152.924 919.199C152.578 919.692 152.115 920.084 151.535 920.377C150.961 920.67 150.352 920.817 149.707 920.817C148.412 920.817 147.381 920.386 146.613 919.525C145.852 918.657 145.471 917.474 145.471 915.974V915.701C145.471 914.776 145.641 913.952 145.98 913.232C146.32 912.511 146.807 911.951 147.439 911.553C148.078 911.154 148.831 910.955 149.698 910.955C150.765 910.955 151.649 911.275 152.353 911.913C153.062 912.552 153.439 913.381 153.486 914.401H151.948C151.901 913.785 151.667 913.281 151.245 912.889C150.829 912.49 150.313 912.291 149.698 912.291C148.872 912.291 148.23 912.59 147.773 913.188C147.322 913.779 147.097 914.638 147.097 915.763V916.07C147.097 917.166 147.322 918.01 147.773 918.602C148.225 919.194 148.869 919.489 149.707 919.489ZM159.261 920.817C157.972 920.817 156.923 920.395 156.114 919.551C155.306 918.701 154.901 917.568 154.901 916.15V915.851C154.901 914.907 155.08 914.067 155.438 913.328C155.801 912.584 156.305 912.004 156.949 911.588C157.6 911.166 158.303 910.955 159.059 910.955C160.295 910.955 161.256 911.362 161.941 912.177C162.627 912.991 162.97 914.157 162.97 915.675V916.352H156.527C156.551 917.289 156.823 918.048 157.345 918.628C157.872 919.202 158.54 919.489 159.349 919.489C159.923 919.489 160.409 919.372 160.808 919.138C161.206 918.903 161.555 918.593 161.854 918.206L162.847 918.98C162.05 920.204 160.854 920.817 159.261 920.817ZM159.059 912.291C158.402 912.291 157.852 912.531 157.406 913.012C156.961 913.486 156.686 914.154 156.58 915.016H161.344V914.893C161.297 914.067 161.074 913.428 160.676 912.977C160.277 912.52 159.738 912.291 159.059 912.291ZM167.065 908.828V911.131H168.841V912.388H167.065V918.285C167.065 918.666 167.145 918.953 167.303 919.147C167.461 919.334 167.73 919.428 168.111 919.428C168.299 919.428 168.557 919.393 168.885 919.322V920.641C168.457 920.758 168.041 920.817 167.637 920.817C166.91 920.817 166.362 920.597 165.993 920.157C165.624 919.718 165.439 919.094 165.439 918.285V912.388H163.708V911.131H165.439V908.828H167.065ZM176.619 920.641C176.525 920.453 176.449 920.119 176.391 919.639C175.635 920.424 174.732 920.817 173.684 920.817C172.746 920.817 171.976 920.553 171.372 920.026C170.774 919.492 170.476 918.819 170.476 918.004C170.476 917.014 170.851 916.246 171.601 915.701C172.356 915.151 173.417 914.875 174.782 914.875H176.364V914.128C176.364 913.56 176.194 913.109 175.854 912.775C175.515 912.435 175.014 912.265 174.352 912.265C173.771 912.265 173.285 912.411 172.893 912.704C172.5 912.997 172.304 913.352 172.304 913.768H170.669C170.669 913.293 170.836 912.836 171.17 912.397C171.51 911.951 171.967 911.6 172.541 911.342C173.121 911.084 173.757 910.955 174.448 910.955C175.544 910.955 176.402 911.231 177.023 911.781C177.645 912.326 177.967 913.079 177.99 914.04V918.417C177.99 919.29 178.102 919.985 178.324 920.5V920.641H176.619ZM173.921 919.402C174.431 919.402 174.914 919.27 175.371 919.006C175.828 918.742 176.159 918.4 176.364 917.978V916.027H175.09C173.098 916.027 172.102 916.61 172.102 917.776C172.102 918.285 172.271 918.684 172.611 918.971C172.951 919.258 173.388 919.402 173.921 919.402Z" fill="white"/>
</g>
</g>
<g id="Receta_6">
<rect id="Rectangle 5_6" x="221" y="765" width="123.027" height="123.417" fill="#0E0101"/>
<g id="Group 8_6">
<rect id="Rectangle 11_6" x="221" y="896.029" width="124" height="36.9709" fill="#0E0101"/>
<path id="titulo receta_6" d="M238.437 908.828V911.131H240.212V912.388H238.437V918.285C238.437 918.666 238.516 918.953 238.674 919.147C238.832 919.334 239.102 919.428 239.482 919.428C239.67 919.428 239.928 919.393 240.256 919.322V920.641C239.828 920.758 239.412 920.817 239.008 920.817C238.281 920.817 237.733 920.597 237.364 920.157C236.995 919.718 236.811 919.094 236.811 918.285V912.388H235.079V911.131H236.811V908.828H238.437ZM243.886 920.641H242.26V911.131H243.886V920.641ZM242.128 908.609C242.128 908.345 242.207 908.122 242.365 907.941C242.529 907.759 242.77 907.668 243.086 907.668C243.402 907.668 243.643 907.759 243.807 907.941C243.971 908.122 244.053 908.345 244.053 908.609C244.053 908.872 243.971 909.092 243.807 909.268C243.643 909.444 243.402 909.531 243.086 909.531C242.77 909.531 242.529 909.444 242.365 909.268C242.207 909.092 242.128 908.872 242.128 908.609ZM248.702 908.828V911.131H250.478V912.388H248.702V918.285C248.702 918.666 248.781 918.953 248.939 919.147C249.098 919.334 249.367 919.428 249.748 919.428C249.936 919.428 250.193 919.393 250.521 919.322V920.641C250.094 920.758 249.678 920.817 249.273 920.817C248.547 920.817 247.999 920.597 247.63 920.157C247.261 919.718 247.076 919.094 247.076 918.285V912.388H245.345V911.131H247.076V908.828H248.702ZM258.256 919.7C257.623 920.445 256.694 920.817 255.47 920.817C254.456 920.817 253.683 920.524 253.149 919.938C252.622 919.346 252.355 918.473 252.35 917.319V911.131H253.976V917.275C253.976 918.716 254.562 919.437 255.733 919.437C256.976 919.437 257.802 918.974 258.212 918.048V911.131H259.838V920.641H258.291L258.256 919.7ZM264.083 920.641H262.457V907.141H264.083V920.641ZM266.263 915.798C266.263 914.866 266.444 914.028 266.808 913.284C267.177 912.54 267.687 911.966 268.337 911.562C268.993 911.157 269.74 910.955 270.578 910.955C271.873 910.955 272.919 911.403 273.716 912.3C274.519 913.196 274.92 914.389 274.92 915.877V915.991C274.92 916.917 274.741 917.749 274.384 918.487C274.032 919.22 273.525 919.791 272.863 920.201C272.207 920.611 271.451 920.817 270.596 920.817C269.307 920.817 268.261 920.368 267.458 919.472C266.661 918.575 266.263 917.389 266.263 915.912V915.798ZM267.897 915.991C267.897 917.046 268.141 917.893 268.627 918.531C269.119 919.17 269.775 919.489 270.596 919.489C271.422 919.489 272.078 919.167 272.564 918.523C273.051 917.872 273.294 916.964 273.294 915.798C273.294 914.755 273.045 913.911 272.547 913.267C272.055 912.616 271.398 912.291 270.578 912.291C269.775 912.291 269.128 912.611 268.636 913.249C268.144 913.888 267.897 914.802 267.897 915.991ZM286.021 912.59C285.774 912.549 285.508 912.528 285.221 912.528C284.154 912.528 283.431 912.983 283.05 913.891V920.641H281.424V911.131H283.006L283.032 912.23C283.565 911.38 284.321 910.955 285.3 910.955C285.616 910.955 285.856 910.996 286.021 911.078V912.59ZM291.294 920.817C290.005 920.817 288.956 920.395 288.147 919.551C287.339 918.701 286.935 917.568 286.935 916.15V915.851C286.935 914.907 287.113 914.067 287.471 913.328C287.834 912.584 288.338 912.004 288.982 911.588C289.633 911.166 290.336 910.955 291.092 910.955C292.328 910.955 293.289 911.362 293.975 912.177C294.66 912.991 295.003 914.157 295.003 915.675V916.352H288.561C288.584 917.289 288.856 918.048 289.378 918.628C289.905 919.202 290.573 919.489 291.382 919.489C291.956 919.489 292.442 919.372 292.841 919.138C293.239 918.903 293.588 918.593 293.887 918.206L294.88 918.98C294.083 920.204 292.888 920.817 291.294 920.817ZM291.092 912.291C290.436 912.291 289.885 912.531 289.439 913.012C288.994 913.486 288.719 914.154 288.613 915.016H293.377V914.893C293.33 914.067 293.107 913.428 292.709 912.977C292.311 912.52 291.771 912.291 291.092 912.291ZM300.707 919.489C301.287 919.489 301.794 919.314 302.228 918.962C302.661 918.611 302.901 918.171 302.948 917.644H304.486C304.457 918.189 304.27 918.707 303.924 919.199C303.578 919.692 303.115 920.084 302.535 920.377C301.961 920.67 301.352 920.817 300.707 920.817C299.412 920.817 298.381 920.386 297.613 919.525C296.852 918.657 296.471 917.474 296.471 915.974V915.701C296.471 914.776 296.641 913.952 296.98 913.232C297.32 912.511 297.807 911.951 298.439 911.553C299.078 911.154 299.831 910.955 300.698 910.955C301.765 910.955 302.649 911.275 303.353 911.913C304.062 912.552 304.439 913.381 304.486 914.401H302.948C302.901 913.785 302.667 913.281 302.245 912.889C301.829 912.49 301.313 912.291 300.698 912.291C299.872 912.291 299.23 912.59 298.773 913.188C298.322 913.779 298.097 914.638 298.097 915.763V916.07C298.097 917.166 298.322 918.01 298.773 918.602C299.225 919.194 299.869 919.489 300.707 919.489ZM310.261 920.817C308.972 920.817 307.923 920.395 307.114 919.551C306.306 918.701 305.901 917.568 305.901 916.15V915.851C305.901 914.907 306.08 914.067 306.438 913.328C306.801 912.584 307.305 912.004 307.949 911.588C308.6 911.166 309.303 910.955 310.059 910.955C311.295 910.955 312.256 911.362 312.941 912.177C313.627 912.991 313.97 914.157 313.97 915.675V916.352H307.527C307.551 917.289 307.823 918.048 308.345 918.628C308.872 919.202 309.54 919.489 310.349 919.489C310.923 919.489 311.409 919.372 311.808 919.138C312.206 918.903 312.555 918.593 312.854 918.206L313.847 918.98C313.05 920.204 311.854 920.817 310.261 920.817ZM310.059 912.291C309.402 912.291 308.852 912.531 308.406 913.012C307.961 913.486 307.686 914.154 307.58 915.016H312.344V914.893C312.297 914.067 312.074 913.428 311.676 912.977C311.277 912.52 310.738 912.291 310.059 912.291ZM318.065 908.828V911.131H319.841V912.388H318.065V918.285C318.065 918.666 318.145 918.953 318.303 919.147C318.461 919.334 318.73 919.428 319.111 919.428C319.299 919.428 319.557 919.393 319.885 919.322V920.641C319.457 920.758 319.041 920.817 318.637 920.817C317.91 920.817 317.362 920.597 316.993 920.157C316.624 919.718 316.439 919.094 316.439 918.285V912.388H314.708V911.131H316.439V908.828H318.065ZM327.619 920.641C327.525 920.453 327.449 920.119 327.391 919.639C326.635 920.424 325.732 920.817 324.684 920.817C323.746 920.817 322.976 920.553 322.372 920.026C321.774 919.492 321.476 918.819 321.476 918.004C321.476 917.014 321.851 916.246 322.601 915.701C323.356 915.151 324.417 914.875 325.782 914.875H327.364V914.128C327.364 913.56 327.194 913.109 326.854 912.775C326.515 912.435 326.014 912.265 325.352 912.265C324.771 912.265 324.285 912.411 323.893 912.704C323.5 912.997 323.304 913.352 323.304 913.768H321.669C321.669 913.293 321.836 912.836 322.17 912.397C322.51 911.951 322.967 911.6 323.541 911.342C324.121 911.084 324.757 910.955 325.448 910.955C326.544 910.955 327.402 911.231 328.023 911.781C328.645 912.326 328.967 913.079 328.99 914.04V918.417C328.99 919.29 329.102 919.985 329.324 920.5V920.641H327.619ZM324.921 919.402C325.431 919.402 325.914 919.27 326.371 919.006C326.828 918.742 327.159 918.4 327.364 917.978V916.027H326.09C324.098 916.027 323.102 916.61 323.102 917.776C323.102 918.285 323.271 918.684 323.611 918.971C323.951 919.258 324.388 919.402 324.921 919.402Z" fill="white"/>
</g>
</g>
<g id="Receta_7">
<rect id="Rectangle 5_7" x="70" y="383" width="123.027" height="123.417" fill="#0E0101"/>
<g id="Group 8_7">
<rect id="Rectangle 11_7" x="70" y="514.029" width="124" height="36.9709" fill="#0E0101"/>
<path id="titulo receta_7" d="M87.4365 526.828V529.131H89.2119V530.388H87.4365V536.285C87.4365 536.666 87.5156 536.953 87.6738 537.147C87.832 537.334 88.1016 537.428 88.4824 537.428C88.6699 537.428 88.9277 537.393 89.2559 537.322V538.641C88.8281 538.758 88.4121 538.817 88.0078 538.817C87.2812 538.817 86.7334 538.597 86.3643 538.157C85.9951 537.718 85.8105 537.094 85.8105 536.285V530.388H84.0791V529.131H85.8105V526.828H87.4365ZM92.8857 538.641H91.2598V529.131H92.8857V538.641ZM91.1279 526.609C91.1279 526.345 91.207 526.122 91.3652 525.941C91.5293 525.759 91.7695 525.668 92.0859 525.668C92.4023 525.668 92.6426 525.759 92.8066 525.941C92.9707 526.122 93.0527 526.345 93.0527 526.609C93.0527 526.872 92.9707 527.092 92.8066 527.268C92.6426 527.444 92.4023 527.531 92.0859 527.531C91.7695 527.531 91.5293 527.444 91.3652 527.268C91.207 527.092 91.1279 526.872 91.1279 526.609ZM97.7021 526.828V529.131H99.4775V530.388H97.7021V536.285C97.7021 536.666 97.7812 536.953 97.9395 537.147C98.0977 537.334 98.3672 537.428 98.748 537.428C98.9355 537.428 99.1934 537.393 99.5215 537.322V538.641C99.0938 538.758 98.6777 538.817 98.2734 538.817C97.5469 538.817 96.999 538.597 96.6299 538.157C96.2607 537.718 96.0762 537.094 96.0762 536.285V530.388H94.3447V529.131H96.0762V526.828H97.7021ZM107.256 537.7C106.623 538.444 105.694 538.817 104.47 538.817C103.456 538.817 102.683 538.524 102.149 537.938C101.622 537.346 101.355 536.473 101.35 535.319V529.131H102.976V535.275C102.976 536.716 103.562 537.437 104.733 537.437C105.976 537.437 106.802 536.974 107.212 536.048V529.131H108.838V538.641H107.291L107.256 537.7ZM113.083 538.641H111.457V525.141H113.083V538.641ZM115.263 533.798C115.263 532.866 115.444 532.028 115.808 531.284C116.177 530.54 116.687 529.966 117.337 529.562C117.993 529.157 118.74 528.955 119.578 528.955C120.873 528.955 121.919 529.403 122.716 530.3C123.519 531.196 123.92 532.389 123.92 533.877V533.991C123.92 534.917 123.741 535.749 123.384 536.487C123.032 537.22 122.525 537.791 121.863 538.201C121.207 538.611 120.451 538.817 119.596 538.817C118.307 538.817 117.261 538.368 116.458 537.472C115.661 536.575 115.263 535.389 115.263 533.912V533.798ZM116.897 533.991C116.897 535.046 117.141 535.893 117.627 536.531C118.119 537.17 118.775 537.489 119.596 537.489C120.422 537.489 121.078 537.167 121.564 536.523C122.051 535.872 122.294 534.964 122.294 533.798C122.294 532.755 122.045 531.911 121.547 531.267C121.055 530.616 120.398 530.291 119.578 530.291C118.775 530.291 118.128 530.611 117.636 531.249C117.144 531.888 116.897 532.802 116.897 533.991ZM135.021 530.59C134.774 530.549 134.508 530.528 134.221 530.528C133.154 530.528 132.431 530.983 132.05 531.891V538.641H130.424V529.131H132.006L132.032 530.23C132.565 529.38 133.321 528.955 134.3 528.955C134.616 528.955 134.856 528.996 135.021 529.078V530.59ZM140.294 538.817C139.005 538.817 137.956 538.395 137.147 537.551C136.339 536.701 135.935 535.568 135.935 534.15V533.851C135.935 532.907 136.113 532.067 136.471 531.328C136.834 530.584 137.338 530.004 137.982 529.588C138.633 529.166 139.336 528.955 140.092 528.955C141.328 528.955 142.289 529.362 142.975 530.177C143.66 530.991 144.003 532.157 144.003 533.675V534.352H137.561C137.584 535.289 137.856 536.048 138.378 536.628C138.905 537.202 139.573 537.489 140.382 537.489C140.956 537.489 141.442 537.372 141.841 537.138C142.239 536.903 142.588 536.593 142.887 536.206L143.88 536.98C143.083 538.204 141.888 538.817 140.294 538.817ZM140.092 530.291C139.436 530.291 138.885 530.531 138.439 531.012C137.994 531.486 137.719 532.154 137.613 533.016H142.377V532.893C142.33 532.067 142.107 531.428 141.709 530.977C141.311 530.52 140.771 530.291 140.092 530.291ZM149.707 537.489C150.287 537.489 150.794 537.314 151.228 536.962C151.661 536.611 151.901 536.171 151.948 535.644H153.486C153.457 536.189 153.27 536.707 152.924 537.199C152.578 537.692 152.115 538.084 151.535 538.377C150.961 538.67 150.352 538.817 149.707 538.817C148.412 538.817 147.381 538.386 146.613 537.525C145.852 536.657 145.471 535.474 145.471 533.974V533.701C145.471 532.776 145.641 531.952 145.98 531.232C146.32 530.511 146.807 529.951 147.439 529.553C148.078 529.154 148.831 528.955 149.698 528.955C150.765 528.955 151.649 529.275 152.353 529.913C153.062 530.552 153.439 531.381 153.486 532.401H151.948C151.901 531.785 151.667 531.281 151.245 530.889C150.829 530.49 150.313 530.291 149.698 530.291C148.872 530.291 148.23 530.59 147.773 531.188C147.322 531.779 147.097 532.638 147.097 533.763V534.07C147.097 535.166 147.322 536.01 147.773 536.602C148.225 537.194 148.869 537.489 149.707 537.489ZM159.261 538.817C157.972 538.817 156.923 538.395 156.114 537.551C155.306 536.701 154.901 535.568 154.901 534.15V533.851C154.901 532.907 155.08 532.067 155.438 531.328C155.801 530.584 156.305 530.004 156.949 529.588C157.6 529.166 158.303 528.955 159.059 528.955C160.295 528.955 161.256 529.362 161.941 530.177C162.627 530.991 162.97 532.157 162.97 533.675V534.352H156.527C156.551 535.289 156.823 536.048 157.345 536.628C157.872 537.202 158.54 537.489 159.349 537.489C159.923 537.489 160.409 537.372 160.808 537.138C161.206 536.903 161.555 536.593 161.854 536.206L162.847 536.98C162.05 538.204 160.854 538.817 159.261 538.817ZM159.059 530.291C158.402 530.291 157.852 530.531 157.406 531.012C156.961 531.486 156.686 532.154 156.58 533.016H161.344V532.893C161.297 532.067 161.074 531.428 160.676 530.977C160.277 530.52 159.738 530.291 159.059 530.291ZM167.065 526.828V529.131H168.841V530.388H167.065V536.285C167.065 536.666 167.145 536.953 167.303 537.147C167.461 537.334 167.73 537.428 168.111 537.428C168.299 537.428 168.557 537.393 168.885 537.322V538.641C168.457 538.758 168.041 538.817 167.637 538.817C166.91 538.817 166.362 538.597 165.993 538.157C165.624 537.718 165.439 537.094 165.439 536.285V530.388H163.708V529.131H165.439V526.828H167.065ZM176.619 538.641C176.525 538.453 176.449 538.119 176.391 537.639C175.635 538.424 174.732 538.817 173.684 538.817C172.746 538.817 171.976 538.553 171.372 538.026C170.774 537.492 170.476 536.819 170.476 536.004C170.476 535.014 170.851 534.246 171.601 533.701C172.356 533.151 173.417 532.875 174.782 532.875H176.364V532.128C176.364 531.56 176.194 531.109 175.854 530.775C175.515 530.435 175.014 530.265 174.352 530.265C173.771 530.265 173.285 530.411 172.893 530.704C172.5 530.997 172.304 531.352 172.304 531.768H170.669C170.669 531.293 170.836 530.836 171.17 530.397C171.51 529.951 171.967 529.6 172.541 529.342C173.121 529.084 173.757 528.955 174.448 528.955C175.544 528.955 176.402 529.231 177.023 529.781C177.645 530.326 177.967 531.079 177.99 532.04V536.417C177.99 537.29 178.102 537.985 178.324 538.5V538.641H176.619ZM173.921 537.402C174.431 537.402 174.914 537.27 175.371 537.006C175.828 536.742 176.159 536.4 176.364 535.978V534.027H175.09C173.098 534.027 172.102 534.61 172.102 535.776C172.102 536.285 172.271 536.684 172.611 536.971C172.951 537.258 173.388 537.402 173.921 537.402Z" fill="white"/>
</g>
</g>
<g id="Receta_8">
<rect id="Rectangle 5_8" x="221" y="383" width="123.027" height="123.417" fill="#0E0101"/>
<g id="Group 8_8">
<rect id="Rectangle 11_8" x="221" y="514.029" width="124" height="36.9709" fill="#0E0101"/>
<path id="titulo receta_8" d="M238.437 526.828V529.131H240.212V530.388H238.437V536.285C238.437 536.666 238.516 536.953 238.674 537.147C238.832 537.334 239.102 537.428 239.482 537.428C239.67 537.428 239.928 537.393 240.256 537.322V538.641C239.828 538.758 239.412 538.817 239.008 538.817C238.281 538.817 237.733 538.597 237.364 538.157C236.995 537.718 236.811 537.094 236.811 536.285V530.388H235.079V529.131H236.811V526.828H238.437ZM243.886 538.641H242.26V529.131H243.886V538.641ZM242.128 526.609C242.128 526.345 242.207 526.122 242.365 525.941C242.529 525.759 242.77 525.668 243.086 525.668C243.402 525.668 243.643 525.759 243.807 525.941C243.971 526.122 244.053 526.345 244.053 526.609C244.053 526.872 243.971 527.092 243.807 527.268C243.643 527.444 243.402 527.531 243.086 527.531C242.77 527.531 242.529 527.444 242.365 527.268C242.207 527.092 242.128 526.872 242.128 526.609ZM248.702 526.828V529.131H250.478V530.388H248.702V536.285C248.702 536.666 248.781 536.953 248.939 537.147C249.098 537.334 249.367 537.428 249.748 537.428C249.936 537.428 250.193 537.393 250.521 537.322V538.641C250.094 538.758 249.678 538.817 249.273 538.817C248.547 538.817 247.999 538.597 247.63 538.157C247.261 537.718 247.076 537.094 247.076 536.285V530.388H245.345V529.131H247.076V526.828H248.702ZM258.256 537.7C257.623 538.444 256.694 538.817 255.47 538.817C254.456 538.817 253.683 538.524 253.149 537.938C252.622 537.346 252.355 536.473 252.35 535.319V529.131H253.976V535.275C253.976 536.716 254.562 537.437 255.733 537.437C256.976 537.437 257.802 536.974 258.212 536.048V529.131H259.838V538.641H258.291L258.256 537.7ZM264.083 538.641H262.457V525.141H264.083V538.641ZM266.263 533.798C266.263 532.866 266.444 532.028 266.808 531.284C267.177 530.54 267.687 529.966 268.337 529.562C268.993 529.157 269.74 528.955 270.578 528.955C271.873 528.955 272.919 529.403 273.716 530.3C274.519 531.196 274.92 532.389 274.92 533.877V533.991C274.92 534.917 274.741 535.749 274.384 536.487C274.032 537.22 273.525 537.791 272.863 538.201C272.207 538.611 271.451 538.817 270.596 538.817C269.307 538.817 268.261 538.368 267.458 537.472C266.661 536.575 266.263 535.389 266.263 533.912V533.798ZM267.897 533.991C267.897 535.046 268.141 535.893 268.627 536.531C269.119 537.17 269.775 537.489 270.596 537.489C271.422 537.489 272.078 537.167 272.564 536.523C273.051 535.872 273.294 534.964 273.294 533.798C273.294 532.755 273.045 531.911 272.547 531.267C272.055 530.616 271.398 530.291 270.578 530.291C269.775 530.291 269.128 530.611 268.636 531.249C268.144 531.888 267.897 532.802 267.897 533.991ZM286.021 530.59C285.774 530.549 285.508 530.528 285.221 530.528C284.154 530.528 283.431 530.983 283.05 531.891V538.641H281.424V529.131H283.006L283.032 530.23C283.565 529.38 284.321 528.955 285.3 528.955C285.616 528.955 285.856 528.996 286.021 529.078V530.59ZM291.294 538.817C290.005 538.817 288.956 538.395 288.147 537.551C287.339 536.701 286.935 535.568 286.935 534.15V533.851C286.935 532.907 287.113 532.067 287.471 531.328C287.834 530.584 288.338 530.004 288.982 529.588C289.633 529.166 290.336 528.955 291.092 528.955C292.328 528.955 293.289 529.362 293.975 530.177C294.66 530.991 295.003 532.157 295.003 533.675V534.352H288.561C288.584 535.289 288.856 536.048 289.378 536.628C289.905 537.202 290.573 537.489 291.382 537.489C291.956 537.489 292.442 537.372 292.841 537.138C293.239 536.903 293.588 536.593 293.887 536.206L294.88 536.98C294.083 538.204 292.888 538.817 291.294 538.817ZM291.092 530.291C290.436 530.291 289.885 530.531 289.439 531.012C288.994 531.486 288.719 532.154 288.613 533.016H293.377V532.893C293.33 532.067 293.107 531.428 292.709 530.977C292.311 530.52 291.771 530.291 291.092 530.291ZM300.707 537.489C301.287 537.489 301.794 537.314 302.228 536.962C302.661 536.611 302.901 536.171 302.948 535.644H304.486C304.457 536.189 304.27 536.707 303.924 537.199C303.578 537.692 303.115 538.084 302.535 538.377C301.961 538.67 301.352 538.817 300.707 538.817C299.412 538.817 298.381 538.386 297.613 537.525C296.852 536.657 296.471 535.474 296.471 533.974V533.701C296.471 532.776 296.641 531.952 296.98 531.232C297.32 530.511 297.807 529.951 298.439 529.553C299.078 529.154 299.831 528.955 300.698 528.955C301.765 528.955 302.649 529.275 303.353 529.913C304.062 530.552 304.439 531.381 304.486 532.401H302.948C302.901 531.785 302.667 531.281 302.245 530.889C301.829 530.49 301.313 530.291 300.698 530.291C299.872 530.291 299.23 530.59 298.773 531.188C298.322 531.779 298.097 532.638 298.097 533.763V534.07C298.097 535.166 298.322 536.01 298.773 536.602C299.225 537.194 299.869 537.489 300.707 537.489ZM310.261 538.817C308.972 538.817 307.923 538.395 307.114 537.551C306.306 536.701 305.901 535.568 305.901 534.15V533.851C305.901 532.907 306.08 532.067 306.438 531.328C306.801 530.584 307.305 530.004 307.949 529.588C308.6 529.166 309.303 528.955 310.059 528.955C311.295 528.955 312.256 529.362 312.941 530.177C313.627 530.991 313.97 532.157 313.97 533.675V534.352H307.527C307.551 535.289 307.823 536.048 308.345 536.628C308.872 537.202 309.54 537.489 310.349 537.489C310.923 537.489 311.409 537.372 311.808 537.138C312.206 536.903 312.555 536.593 312.854 536.206L313.847 536.98C313.05 538.204 311.854 538.817 310.261 538.817ZM310.059 530.291C309.402 530.291 308.852 530.531 308.406 531.012C307.961 531.486 307.686 532.154 307.58 533.016H312.344V532.893C312.297 532.067 312.074 531.428 311.676 530.977C311.277 530.52 310.738 530.291 310.059 530.291ZM318.065 526.828V529.131H319.841V530.388H318.065V536.285C318.065 536.666 318.145 536.953 318.303 537.147C318.461 537.334 318.73 537.428 319.111 537.428C319.299 537.428 319.557 537.393 319.885 537.322V538.641C319.457 538.758 319.041 538.817 318.637 538.817C317.91 538.817 317.362 538.597 316.993 538.157C316.624 537.718 316.439 537.094 316.439 536.285V530.388H314.708V529.131H316.439V526.828H318.065ZM327.619 538.641C327.525 538.453 327.449 538.119 327.391 537.639C326.635 538.424 325.732 538.817 324.684 538.817C323.746 538.817 322.976 538.553 322.372 538.026C321.774 537.492 321.476 536.819 321.476 536.004C321.476 535.014 321.851 534.246 322.601 533.701C323.356 533.151 324.417 532.875 325.782 532.875H327.364V532.128C327.364 531.56 327.194 531.109 326.854 530.775C326.515 530.435 326.014 530.265 325.352 530.265C324.771 530.265 324.285 530.411 323.893 530.704C323.5 530.997 323.304 531.352 323.304 531.768H321.669C321.669 531.293 321.836 530.836 322.17 530.397C322.51 529.951 322.967 529.6 323.541 529.342C324.121 529.084 324.757 528.955 325.448 528.955C326.544 528.955 327.402 529.231 328.023 529.781C328.645 530.326 328.967 531.079 328.99 532.04V536.417C328.99 537.29 329.102 537.985 329.324 538.5V538.641H327.619ZM324.921 537.402C325.431 537.402 325.914 537.27 326.371 537.006C326.828 536.742 327.159 536.4 327.364 535.978V534.027H326.09C324.098 534.027 323.102 534.61 323.102 535.776C323.102 536.285 323.271 536.684 323.611 536.971C323.951 537.258 324.388 537.402 324.921 537.402Z" fill="white"/>
</g>
</g>
</g>
<g id="Orden">
<rect id="Rectangle 36" x="23" y="305" width="85" height="32" fill="#0E0101"/>
<path id="orden" d="M43.7998 323.157C43.7998 322.226 43.9814 321.388 44.3447 320.644C44.7139 319.899 45.2236 319.325 45.874 318.921C46.5303 318.517 47.2773 318.314 48.1152 318.314C49.4102 318.314 50.4561 318.763 51.2529 319.659C52.0557 320.556 52.457 321.748 52.457 323.236V323.351C52.457 324.276 52.2783 325.108 51.9209 325.847C51.5693 326.579 51.0625 327.15 50.4004 327.561C49.7441 327.971 48.9883 328.176 48.1328 328.176C46.8438 328.176 45.7979 327.728 44.9951 326.831C44.1982 325.935 43.7998 324.748 43.7998 323.271V323.157ZM45.4346 323.351C45.4346 324.405 45.6777 325.252 46.1641 325.891C46.6562 326.529 47.3125 326.849 48.1328 326.849C48.959 326.849 49.6152 326.526 50.1016 325.882C50.5879 325.231 50.8311 324.323 50.8311 323.157C50.8311 322.114 50.582 321.271 50.084 320.626C49.5918 319.976 48.9355 319.65 48.1152 319.65C47.3125 319.65 46.665 319.97 46.1729 320.608C45.6807 321.247 45.4346 322.161 45.4346 323.351ZM59.0928 319.949C58.8467 319.908 58.5801 319.888 58.293 319.888C57.2266 319.888 56.5029 320.342 56.1221 321.25V328H54.4961V318.49H56.0781L56.1045 319.589C56.6377 318.739 57.3936 318.314 58.3721 318.314C58.6885 318.314 58.9287 318.355 59.0928 318.438V319.949ZM60.0244 323.166C60.0244 321.707 60.3701 320.535 61.0615 319.65C61.7529 318.76 62.6582 318.314 63.7773 318.314C64.8906 318.314 65.7725 318.695 66.4229 319.457V314.5H68.0488V328H66.5547L66.4756 326.98C65.8252 327.777 64.9199 328.176 63.7598 328.176C62.6582 328.176 61.7588 327.725 61.0615 326.822C60.3701 325.92 60.0244 324.742 60.0244 323.289V323.166ZM61.6504 323.351C61.6504 324.429 61.873 325.272 62.3184 325.882C62.7637 326.491 63.3789 326.796 64.1641 326.796C65.1953 326.796 65.9482 326.333 66.4229 325.407V321.039C65.9365 320.143 65.1895 319.694 64.1816 319.694C63.3848 319.694 62.7637 320.002 62.3184 320.617C61.873 321.232 61.6504 322.144 61.6504 323.351ZM74.5264 328.176C73.2373 328.176 72.1885 327.754 71.3799 326.91C70.5713 326.061 70.167 324.927 70.167 323.509V323.21C70.167 322.267 70.3457 321.426 70.7031 320.688C71.0664 319.943 71.5703 319.363 72.2148 318.947C72.8652 318.525 73.5684 318.314 74.3242 318.314C75.5605 318.314 76.5215 318.722 77.207 319.536C77.8926 320.351 78.2354 321.517 78.2354 323.034V323.711H71.793C71.8164 324.648 72.0889 325.407 72.6104 325.987C73.1377 326.562 73.8057 326.849 74.6143 326.849C75.1885 326.849 75.6748 326.731 76.0732 326.497C76.4717 326.263 76.8203 325.952 77.1191 325.565L78.1123 326.339C77.3154 327.563 76.1201 328.176 74.5264 328.176ZM74.3242 319.65C73.668 319.65 73.1172 319.891 72.6719 320.371C72.2266 320.846 71.9512 321.514 71.8457 322.375H76.6094V322.252C76.5625 321.426 76.3398 320.787 75.9414 320.336C75.543 319.879 75.0039 319.65 74.3242 319.65ZM81.6631 318.49L81.7158 319.686C82.4424 318.771 83.3916 318.314 84.5635 318.314C86.5732 318.314 87.5869 319.448 87.6045 321.716V328H85.9785V321.707C85.9727 321.021 85.8145 320.515 85.5039 320.187C85.1992 319.858 84.7217 319.694 84.0713 319.694C83.5439 319.694 83.0811 319.835 82.6826 320.116C82.2842 320.397 81.9736 320.767 81.751 321.224V328H80.125V318.49H81.6631Z" fill="white"/>
</g>
</g>
</svg>
