<svg width="414" height="736" viewBox="0 0 414 736" fill="none" xmlns="http://www.w3.org/2000/svg">
<g id="Men&#195;&#186; desplegado">
<rect width="414" height="736" fill="white"/>
<rect id="Rectangle 30" width="414" height="570" fill="#C4C4C4"/>
<g id="Group 5">
<g id="Group 3">
<rect id="Rectangle 30_2" x="91" y="432" width="231" height="68" fill="#0E0101"/>
<path id="ingredientes" d="M116.454 477H113.292V458.509H116.454V477ZM113.036 453.604C113.036 453.091 113.189 452.658 113.497 452.305C113.816 451.952 114.283 451.775 114.898 451.775C115.514 451.775 115.981 451.952 116.3 452.305C116.619 452.658 116.778 453.091 116.778 453.604C116.778 454.117 116.619 454.544 116.3 454.886C115.981 455.228 115.514 455.398 114.898 455.398C114.283 455.398 113.816 455.228 113.497 454.886C113.189 454.544 113.036 454.117 113.036 453.604ZM124.52 458.509L124.623 460.833C126.035 459.056 127.881 458.167 130.16 458.167C134.068 458.167 136.039 460.372 136.073 464.781V477H132.911V464.764C132.9 463.431 132.592 462.445 131.988 461.807C131.396 461.169 130.467 460.85 129.203 460.85C128.177 460.85 127.277 461.124 126.502 461.67C125.728 462.217 125.124 462.935 124.691 463.824V477H121.529V458.509H124.52ZM140.089 467.601C140.089 464.718 140.755 462.428 142.088 460.73C143.421 459.021 145.187 458.167 147.386 458.167C149.642 458.167 151.402 458.965 152.667 460.56L152.821 458.509H155.709V476.556C155.709 478.948 154.997 480.834 153.573 482.212C152.16 483.591 150.257 484.28 147.865 484.28C146.532 484.28 145.227 483.995 143.951 483.426C142.675 482.856 141.701 482.076 141.029 481.084L142.669 479.188C144.025 480.862 145.683 481.7 147.643 481.7C149.181 481.7 150.377 481.267 151.231 480.401C152.097 479.535 152.53 478.316 152.53 476.744V475.154C151.266 476.613 149.54 477.342 147.352 477.342C145.187 477.342 143.433 476.47 142.088 474.727C140.755 472.984 140.089 470.608 140.089 467.601ZM143.268 467.959C143.268 470.044 143.695 471.685 144.549 472.881C145.404 474.066 146.6 474.659 148.138 474.659C150.132 474.659 151.596 473.753 152.53 471.941V463.499C151.562 461.733 150.109 460.85 148.172 460.85C146.634 460.85 145.432 461.448 144.566 462.645C143.701 463.841 143.268 465.612 143.268 467.959ZM169.432 461.346C168.954 461.266 168.435 461.226 167.877 461.226C165.803 461.226 164.396 462.109 163.656 463.875V477H160.494V458.509H163.57L163.622 460.645C164.658 458.993 166.128 458.167 168.031 458.167C168.646 458.167 169.113 458.247 169.432 458.406V461.346ZM179.686 477.342C177.18 477.342 175.14 476.521 173.568 474.881C171.996 473.229 171.209 471.024 171.209 468.267V467.686C171.209 465.852 171.557 464.217 172.252 462.781C172.958 461.334 173.938 460.206 175.191 459.397C176.456 458.577 177.823 458.167 179.293 458.167C181.697 458.167 183.565 458.959 184.898 460.542C186.231 462.126 186.898 464.393 186.898 467.344V468.66H174.371C174.417 470.483 174.946 471.958 175.96 473.086C176.986 474.203 178.285 474.761 179.857 474.761C180.973 474.761 181.919 474.533 182.694 474.078C183.469 473.622 184.146 473.018 184.728 472.266L186.659 473.77C185.109 476.151 182.785 477.342 179.686 477.342ZM179.293 460.765C178.017 460.765 176.946 461.232 176.08 462.166C175.214 463.089 174.679 464.388 174.474 466.062H183.736V465.823C183.645 464.217 183.212 462.975 182.438 462.098C181.663 461.209 180.615 460.765 179.293 460.765ZM189.803 467.601C189.803 464.764 190.475 462.485 191.82 460.765C193.164 459.033 194.924 458.167 197.101 458.167C199.265 458.167 200.98 458.908 202.245 460.389V450.75H205.406V477H202.501L202.347 475.018C201.083 476.567 199.322 477.342 197.066 477.342C194.924 477.342 193.176 476.465 191.82 474.71C190.475 472.955 189.803 470.665 189.803 467.84V467.601ZM192.965 467.959C192.965 470.056 193.398 471.696 194.264 472.881C195.13 474.066 196.326 474.659 197.853 474.659C199.858 474.659 201.322 473.759 202.245 471.958V463.465C201.299 461.722 199.846 460.85 197.887 460.85C196.337 460.85 195.13 461.448 194.264 462.645C193.398 463.841 192.965 465.612 192.965 467.959ZM213.763 477H210.602V458.509H213.763V477ZM210.345 453.604C210.345 453.091 210.499 452.658 210.807 452.305C211.126 451.952 211.593 451.775 212.208 451.775C212.823 451.775 213.29 451.952 213.609 452.305C213.928 452.658 214.088 453.091 214.088 453.604C214.088 454.117 213.928 454.544 213.609 454.886C213.29 455.228 212.823 455.398 212.208 455.398C211.593 455.398 211.126 455.228 210.807 454.886C210.499 454.544 210.345 454.117 210.345 453.604ZM226.512 477.342C224.006 477.342 221.966 476.521 220.394 474.881C218.822 473.229 218.036 471.024 218.036 468.267V467.686C218.036 465.852 218.383 464.217 219.078 462.781C219.785 461.334 220.764 460.206 222.018 459.397C223.282 458.577 224.649 458.167 226.119 458.167C228.523 458.167 230.392 458.959 231.725 460.542C233.058 462.126 233.724 464.393 233.724 467.344V468.66H221.197C221.243 470.483 221.773 471.958 222.787 473.086C223.812 474.203 225.111 474.761 226.683 474.761C227.8 474.761 228.745 474.533 229.52 474.078C230.295 473.622 230.973 473.018 231.554 472.266L233.485 473.77C231.935 476.151 229.611 477.342 226.512 477.342ZM226.119 460.765C224.843 460.765 223.772 461.232 222.906 462.166C222.04 463.089 221.505 464.388 221.3 466.062H230.562V465.823C230.471 464.217 230.038 462.975 229.264 462.098C228.489 461.209 227.441 460.765 226.119 460.765ZM240.389 458.509L240.492 460.833C241.904 459.056 243.75 458.167 246.029 458.167C249.937 458.167 251.908 460.372 251.942 464.781V477H248.78V464.764C248.769 463.431 248.461 462.445 247.857 461.807C247.265 461.169 246.336 460.85 245.072 460.85C244.046 460.85 243.146 461.124 242.372 461.67C241.597 462.217 240.993 462.935 240.56 463.824V477H237.398V458.509H240.389ZM261 454.031V458.509H264.452V460.953H261V472.42C261 473.16 261.153 473.719 261.461 474.095C261.769 474.459 262.293 474.642 263.033 474.642C263.398 474.642 263.899 474.573 264.537 474.437V477C263.705 477.228 262.896 477.342 262.11 477.342C260.698 477.342 259.632 476.915 258.915 476.06C258.197 475.206 257.838 473.992 257.838 472.42V460.953H254.471V458.509H257.838V454.031H261ZM275.833 477.342C273.327 477.342 271.288 476.521 269.715 474.881C268.143 473.229 267.357 471.024 267.357 468.267V467.686C267.357 465.852 267.704 464.217 268.399 462.781C269.106 461.334 270.086 460.206 271.339 459.397C272.604 458.577 273.971 458.167 275.44 458.167C277.844 458.167 279.713 458.959 281.046 460.542C282.379 462.126 283.045 464.393 283.045 467.344V468.66H270.519C270.564 470.483 271.094 471.958 272.108 473.086C273.133 474.203 274.432 474.761 276.004 474.761C277.121 474.761 278.067 474.533 278.841 474.078C279.616 473.622 280.294 473.018 280.875 472.266L282.806 473.77C281.257 476.151 278.932 477.342 275.833 477.342ZM275.44 460.765C274.164 460.765 273.093 461.232 272.228 462.166C271.362 463.089 270.826 464.388 270.621 466.062H279.884V465.823C279.793 464.217 279.36 462.975 278.585 462.098C277.81 461.209 276.762 460.765 275.44 460.765ZM297.486 472.095C297.486 471.241 297.162 470.58 296.512 470.113C295.874 469.634 294.752 469.224 293.146 468.882C291.55 468.541 290.28 468.13 289.334 467.652C288.4 467.173 287.705 466.604 287.25 465.943C286.805 465.282 286.583 464.496 286.583 463.584C286.583 462.069 287.221 460.787 288.497 459.739C289.785 458.691 291.425 458.167 293.419 458.167C295.515 458.167 297.213 458.708 298.512 459.791C299.822 460.873 300.477 462.257 300.477 463.943H297.298C297.298 463.077 296.928 462.331 296.188 461.705C295.458 461.078 294.535 460.765 293.419 460.765C292.268 460.765 291.368 461.015 290.719 461.517C290.069 462.018 289.745 462.673 289.745 463.482C289.745 464.245 290.047 464.821 290.65 465.208C291.254 465.595 292.342 465.966 293.915 466.319C295.498 466.672 296.78 467.094 297.76 467.583C298.74 468.073 299.463 468.666 299.93 469.361C300.409 470.044 300.648 470.882 300.648 471.873C300.648 473.525 299.987 474.852 298.666 475.855C297.344 476.846 295.629 477.342 293.521 477.342C292.04 477.342 290.73 477.08 289.591 476.556C288.451 476.032 287.557 475.302 286.908 474.368C286.27 473.423 285.951 472.403 285.951 471.309H289.112C289.169 472.369 289.591 473.212 290.377 473.838C291.174 474.454 292.223 474.761 293.521 474.761C294.718 474.761 295.675 474.522 296.393 474.043C297.122 473.554 297.486 472.904 297.486 472.095Z" fill="white"/>
</g>
<g id="Group 2">
<rect id="Rectangle 31" x="91" y="319" width="231" height="68" fill="#0E0101"/>
<path id="por pa&#195;&#173;s" d="M161.742 354.959C161.742 357.774 161.098 360.041 159.811 361.761C158.523 363.482 156.78 364.342 154.581 364.342C152.337 364.342 150.571 363.63 149.283 362.206V371.109H146.122V345.509H149.01L149.164 347.56C150.451 345.965 152.24 345.167 154.53 345.167C156.751 345.167 158.506 346.004 159.793 347.679C161.092 349.354 161.742 351.684 161.742 354.669V354.959ZM158.58 354.601C158.58 352.516 158.136 350.869 157.247 349.662C156.358 348.454 155.139 347.85 153.59 347.85C151.676 347.85 150.24 348.699 149.283 350.396V359.232C150.229 360.918 151.676 361.761 153.624 361.761C155.139 361.761 156.341 361.163 157.23 359.967C158.13 358.759 158.58 356.97 158.58 354.601ZM164.938 354.583C164.938 352.772 165.291 351.143 165.997 349.696C166.715 348.249 167.706 347.132 168.971 346.346C170.247 345.56 171.699 345.167 173.329 345.167C175.847 345.167 177.88 346.039 179.43 347.782C180.991 349.525 181.771 351.843 181.771 354.737V354.959C181.771 356.76 181.424 358.377 180.729 359.813C180.045 361.237 179.059 362.348 177.772 363.146C176.496 363.943 175.026 364.342 173.363 364.342C170.856 364.342 168.823 363.47 167.262 361.727C165.712 359.984 164.938 357.677 164.938 354.806V354.583ZM168.116 354.959C168.116 357.01 168.589 358.657 169.535 359.898C170.492 361.14 171.768 361.761 173.363 361.761C174.969 361.761 176.245 361.135 177.191 359.881C178.137 358.617 178.609 356.851 178.609 354.583C178.609 352.556 178.125 350.915 177.157 349.662C176.2 348.397 174.924 347.765 173.329 347.765C171.768 347.765 170.509 348.386 169.552 349.627C168.595 350.869 168.116 352.647 168.116 354.959ZM194.674 348.346C194.195 348.266 193.677 348.226 193.119 348.226C191.045 348.226 189.638 349.109 188.897 350.875V364H185.736V345.509H188.812L188.863 347.645C189.9 345.993 191.37 345.167 193.272 345.167C193.888 345.167 194.355 345.247 194.674 345.406V348.346ZM221.898 354.959C221.898 357.774 221.254 360.041 219.967 361.761C218.679 363.482 216.936 364.342 214.737 364.342C212.493 364.342 210.727 363.63 209.439 362.206V371.109H206.278V345.509H209.166L209.32 347.56C210.607 345.965 212.396 345.167 214.686 345.167C216.908 345.167 218.662 346.004 219.95 347.679C221.249 349.354 221.898 351.684 221.898 354.669V354.959ZM218.736 354.601C218.736 352.516 218.292 350.869 217.403 349.662C216.515 348.454 215.296 347.85 213.746 347.85C211.832 347.85 210.396 348.699 209.439 350.396V359.232C210.385 360.918 211.832 361.761 213.78 361.761C215.296 361.761 216.498 361.163 217.386 359.967C218.286 358.759 218.736 356.97 218.736 354.601ZM237.347 364C237.165 363.635 237.017 362.986 236.903 362.052C235.433 363.578 233.679 364.342 231.639 364.342C229.816 364.342 228.318 363.829 227.145 362.804C225.982 361.767 225.401 360.457 225.401 358.873C225.401 356.948 226.131 355.455 227.589 354.396C229.059 353.325 231.121 352.789 233.775 352.789H236.852V351.336C236.852 350.231 236.521 349.354 235.86 348.705C235.2 348.044 234.225 347.713 232.938 347.713C231.81 347.713 230.864 347.998 230.101 348.568C229.338 349.138 228.956 349.827 228.956 350.636H225.777C225.777 349.713 226.102 348.824 226.751 347.97C227.412 347.104 228.301 346.42 229.417 345.919C230.545 345.418 231.782 345.167 233.126 345.167C235.257 345.167 236.926 345.702 238.133 346.773C239.341 347.833 239.968 349.297 240.013 351.166V359.676C240.013 361.374 240.23 362.724 240.663 363.727V364H237.347ZM232.101 361.59C233.092 361.59 234.032 361.334 234.92 360.821C235.809 360.309 236.453 359.642 236.852 358.822V355.028H234.374C230.5 355.028 228.563 356.161 228.563 358.429C228.563 359.42 228.893 360.195 229.554 360.753C230.215 361.311 231.064 361.59 232.101 361.59ZM248.404 364H245.226V345.509H248.404V364ZM248.438 337.767H252.267L247.687 342.792H245.14L248.438 337.767ZM264.383 359.095C264.383 358.241 264.059 357.58 263.409 357.113C262.771 356.634 261.649 356.224 260.042 355.882C258.447 355.541 257.177 355.13 256.231 354.652C255.297 354.173 254.602 353.604 254.146 352.943C253.702 352.282 253.48 351.496 253.48 350.584C253.48 349.069 254.118 347.787 255.394 346.739C256.681 345.691 258.322 345.167 260.316 345.167C262.412 345.167 264.11 345.708 265.409 346.791C266.719 347.873 267.374 349.257 267.374 350.943H264.195C264.195 350.077 263.825 349.331 263.084 348.705C262.355 348.078 261.432 347.765 260.316 347.765C259.165 347.765 258.265 348.015 257.616 348.517C256.966 349.018 256.642 349.673 256.642 350.482C256.642 351.245 256.944 351.821 257.547 352.208C258.151 352.595 259.239 352.966 260.812 353.319C262.395 353.672 263.677 354.094 264.657 354.583C265.637 355.073 266.36 355.666 266.827 356.361C267.306 357.044 267.545 357.882 267.545 358.873C267.545 360.525 266.884 361.852 265.562 362.855C264.241 363.846 262.526 364.342 260.418 364.342C258.937 364.342 257.627 364.08 256.488 363.556C255.348 363.032 254.454 362.302 253.805 361.368C253.167 360.423 252.848 359.403 252.848 358.309H256.009C256.066 359.369 256.488 360.212 257.274 360.838C258.071 361.454 259.12 361.761 260.418 361.761C261.615 361.761 262.572 361.522 263.29 361.043C264.019 360.554 264.383 359.904 264.383 359.095Z" fill="white"/>
</g>
<g id="Group 1">
<rect id="Rectangle 32" x="91" y="206" width="231" height="68" fill="#0E0101"/>
<path id="recetas" d="M160.084 235.346C159.605 235.266 159.087 235.226 158.529 235.226C156.455 235.226 155.048 236.109 154.308 237.875V251H151.146V232.509H154.222L154.273 234.645C155.31 232.993 156.78 232.167 158.683 232.167C159.298 232.167 159.765 232.247 160.084 232.406V235.346ZM170.338 251.342C167.831 251.342 165.792 250.521 164.22 248.881C162.647 247.229 161.861 245.024 161.861 242.267V241.686C161.861 239.852 162.209 238.217 162.904 236.781C163.61 235.334 164.59 234.206 165.843 233.397C167.108 232.577 168.475 232.167 169.945 232.167C172.349 232.167 174.217 232.959 175.55 234.542C176.883 236.126 177.55 238.393 177.55 241.344V242.66H165.023C165.069 244.483 165.598 245.958 166.612 247.086C167.638 248.203 168.937 248.761 170.509 248.761C171.625 248.761 172.571 248.533 173.346 248.078C174.12 247.622 174.798 247.018 175.379 246.266L177.311 247.77C175.761 250.151 173.437 251.342 170.338 251.342ZM169.945 234.765C168.669 234.765 167.598 235.232 166.732 236.166C165.866 237.089 165.331 238.388 165.125 240.062H174.388V239.823C174.297 238.217 173.864 236.975 173.089 236.098C172.315 235.209 171.266 234.765 169.945 234.765ZM188.641 248.761C189.769 248.761 190.755 248.419 191.598 247.736C192.441 247.052 192.908 246.198 192.999 245.172H195.99C195.933 246.232 195.568 247.24 194.896 248.197C194.224 249.154 193.324 249.918 192.196 250.487C191.079 251.057 189.894 251.342 188.641 251.342C186.123 251.342 184.118 250.504 182.625 248.83C181.144 247.143 180.404 244.842 180.404 241.925V241.396C180.404 239.595 180.734 237.995 181.395 236.593C182.056 235.192 183.001 234.104 184.232 233.329C185.474 232.554 186.938 232.167 188.624 232.167C190.698 232.167 192.418 232.788 193.785 234.03C195.164 235.272 195.899 236.884 195.99 238.866H192.999C192.908 237.67 192.452 236.69 191.632 235.927C190.823 235.152 189.82 234.765 188.624 234.765C187.018 234.765 185.77 235.346 184.881 236.508C184.004 237.659 183.565 239.328 183.565 241.515V242.113C183.565 244.244 184.004 245.884 184.881 247.035C185.759 248.186 187.012 248.761 188.641 248.761ZM207.218 251.342C204.711 251.342 202.672 250.521 201.1 248.881C199.527 247.229 198.741 245.024 198.741 242.267V241.686C198.741 239.852 199.089 238.217 199.784 236.781C200.49 235.334 201.47 234.206 202.723 233.397C203.988 232.577 205.355 232.167 206.825 232.167C209.229 232.167 211.097 232.959 212.43 234.542C213.763 236.126 214.43 238.393 214.43 241.344V242.66H201.903C201.948 244.483 202.478 245.958 203.492 247.086C204.518 248.203 205.816 248.761 207.389 248.761C208.505 248.761 209.451 248.533 210.226 248.078C211 247.622 211.678 247.018 212.259 246.266L214.19 247.77C212.641 250.151 210.317 251.342 207.218 251.342ZM206.825 234.765C205.549 234.765 204.478 235.232 203.612 236.166C202.746 237.089 202.21 238.388 202.005 240.062H211.268V239.823C211.177 238.217 210.744 236.975 209.969 236.098C209.194 235.209 208.146 234.765 206.825 234.765ZM222.394 228.031V232.509H225.846V234.953H222.394V246.42C222.394 247.16 222.547 247.719 222.855 248.095C223.163 248.459 223.687 248.642 224.427 248.642C224.792 248.642 225.293 248.573 225.931 248.437V251C225.099 251.228 224.291 251.342 223.504 251.342C222.092 251.342 221.026 250.915 220.309 250.06C219.591 249.206 219.232 247.992 219.232 246.42V234.953H215.865V232.509H219.232V228.031H222.394ZM240.97 251C240.788 250.635 240.64 249.986 240.526 249.052C239.056 250.578 237.302 251.342 235.262 251.342C233.439 251.342 231.941 250.829 230.768 249.804C229.605 248.767 229.024 247.457 229.024 245.873C229.024 243.948 229.754 242.455 231.212 241.396C232.682 240.325 234.744 239.789 237.398 239.789H240.475V238.336C240.475 237.231 240.144 236.354 239.483 235.705C238.823 235.044 237.848 234.713 236.561 234.713C235.433 234.713 234.487 234.998 233.724 235.568C232.961 236.138 232.579 236.827 232.579 237.636H229.4C229.4 236.713 229.725 235.824 230.375 234.97C231.035 234.104 231.924 233.42 233.041 232.919C234.168 232.418 235.405 232.167 236.749 232.167C238.88 232.167 240.549 232.702 241.756 233.773C242.964 234.833 243.591 236.297 243.636 238.166V246.676C243.636 248.374 243.853 249.724 244.286 250.727V251H240.97ZM235.724 248.59C236.715 248.59 237.655 248.334 238.543 247.821C239.432 247.309 240.076 246.642 240.475 245.822V242.028H237.997C234.123 242.028 232.186 243.161 232.186 245.429C232.186 246.42 232.516 247.195 233.177 247.753C233.838 248.311 234.687 248.59 235.724 248.59ZM259.359 246.095C259.359 245.241 259.034 244.58 258.385 244.113C257.747 243.634 256.625 243.224 255.018 242.882C253.423 242.541 252.153 242.13 251.207 241.652C250.273 241.173 249.578 240.604 249.122 239.943C248.678 239.282 248.456 238.496 248.456 237.584C248.456 236.069 249.094 234.787 250.37 233.739C251.657 232.691 253.298 232.167 255.292 232.167C257.388 232.167 259.085 232.708 260.384 233.791C261.694 234.873 262.35 236.257 262.35 237.943H259.171C259.171 237.077 258.801 236.331 258.06 235.705C257.331 235.078 256.408 234.765 255.292 234.765C254.141 234.765 253.241 235.015 252.591 235.517C251.942 236.018 251.617 236.673 251.617 237.482C251.617 238.245 251.919 238.821 252.523 239.208C253.127 239.595 254.215 239.966 255.787 240.319C257.371 240.672 258.653 241.094 259.632 241.583C260.612 242.073 261.336 242.666 261.803 243.361C262.281 244.044 262.521 244.882 262.521 245.873C262.521 247.525 261.86 248.852 260.538 249.855C259.216 250.846 257.502 251.342 255.394 251.342C253.913 251.342 252.603 251.08 251.463 250.556C250.324 250.032 249.43 249.302 248.78 248.368C248.142 247.423 247.823 246.403 247.823 245.309H250.985C251.042 246.369 251.463 247.212 252.25 247.838C253.047 248.454 254.095 248.761 255.394 248.761C256.59 248.761 257.547 248.522 258.265 248.043C258.994 247.554 259.359 246.904 259.359 246.095Z" fill="white"/>
</g>
<g id="Group 4">
<rect id="Rectangle 33" x="91" y="94" width="231" height="68" fill="#0E0101"/>
<path id="home" d="M167.809 122.748C169.21 121.027 171.033 120.167 173.277 120.167C177.185 120.167 179.156 122.372 179.19 126.781V139H176.029V126.764C176.017 125.431 175.71 124.445 175.106 123.807C174.514 123.169 173.585 122.85 172.32 122.85C171.295 122.85 170.395 123.124 169.62 123.67C168.845 124.217 168.242 124.935 167.809 125.824V139H164.647V112.75H167.809V122.748ZM183.087 129.583C183.087 127.772 183.44 126.143 184.146 124.696C184.864 123.249 185.855 122.132 187.12 121.346C188.396 120.56 189.849 120.167 191.478 120.167C193.996 120.167 196.03 121.039 197.579 122.782C199.14 124.525 199.92 126.843 199.92 129.737V129.959C199.92 131.76 199.573 133.377 198.878 134.813C198.194 136.237 197.209 137.348 195.921 138.146C194.645 138.943 193.176 139.342 191.512 139.342C189.006 139.342 186.972 138.47 185.411 136.727C183.862 134.984 183.087 132.677 183.087 129.806V129.583ZM186.266 129.959C186.266 132.01 186.738 133.657 187.684 134.898C188.641 136.14 189.917 136.761 191.512 136.761C193.119 136.761 194.395 136.135 195.34 134.881C196.286 133.617 196.759 131.851 196.759 129.583C196.759 127.556 196.275 125.915 195.306 124.662C194.349 123.397 193.073 122.765 191.478 122.765C189.917 122.765 188.658 123.386 187.701 124.627C186.744 125.869 186.266 127.647 186.266 129.959ZM206.859 120.509L206.944 122.56C208.3 120.965 210.129 120.167 212.43 120.167C215.016 120.167 216.777 121.158 217.711 123.141C218.326 122.252 219.124 121.534 220.104 120.987C221.095 120.44 222.263 120.167 223.607 120.167C227.663 120.167 229.725 122.315 229.793 126.61V139H226.632V126.798C226.632 125.476 226.33 124.491 225.726 123.841C225.122 123.181 224.108 122.85 222.684 122.85C221.511 122.85 220.536 123.203 219.762 123.91C218.987 124.605 218.537 125.545 218.412 126.729V139H215.233V126.883C215.233 124.194 213.917 122.85 211.285 122.85C209.212 122.85 207.793 123.733 207.03 125.499V139H203.868V120.509H206.859ZM242.252 139.342C239.745 139.342 237.706 138.521 236.134 136.881C234.562 135.229 233.775 133.024 233.775 130.267V129.686C233.775 127.852 234.123 126.217 234.818 124.781C235.524 123.334 236.504 122.206 237.757 121.397C239.022 120.577 240.389 120.167 241.859 120.167C244.263 120.167 246.131 120.959 247.464 122.542C248.797 124.126 249.464 126.393 249.464 129.344V130.66H236.937C236.983 132.483 237.512 133.958 238.526 135.086C239.552 136.203 240.851 136.761 242.423 136.761C243.539 136.761 244.485 136.533 245.26 136.078C246.035 135.622 246.712 135.018 247.293 134.266L249.225 135.77C247.675 138.151 245.351 139.342 242.252 139.342ZM241.859 122.765C240.583 122.765 239.512 123.232 238.646 124.166C237.78 125.089 237.245 126.388 237.04 128.062H246.302V127.823C246.211 126.217 245.778 124.975 245.003 124.098C244.229 123.209 243.181 122.765 241.859 122.765Z" fill="white"/>
</g>
</g>
<g id="close">
<path id="Icon" d="M359.601 31.601C360.236 30.9663 361.264 30.9663 361.899 31.601L370.5 40.2019L379.101 31.601C379.736 30.9663 380.764 30.9663 381.399 31.601C382.034 32.2356 382.034 33.2644 381.399 33.899L372.798 42.5L381.399 51.101C382.034 51.7356 382.034 52.7644 381.399 53.399C380.764 54.0337 379.736 54.0337 379.101 53.399L370.5 44.7981L361.899 53.399C361.264 54.0337 360.236 54.0337 359.601 53.399C358.966 52.7644 358.966 51.7356 359.601 51.101L368.202 42.5L359.601 33.899C358.966 33.2644 358.966 32.2356 359.601 31.601Z" fill="#0D0D0D"/>
</g>
</g>
</svg>
