<svg width="1440" height="1684" viewBox="0 0 1440 1684" fill="none" xmlns="http://www.w3.org/2000/svg">
<g id="Cat&#195;&#161;logo (receta o ingredientes)">
<rect width="1440" height="1684" fill="white"/>
<g id="T&#195;&#173;tulo general">
<rect id="Rectangle 2" x="106" y="206" width="561" height="136" fill="#0E0101"/>
<path id="t&#195;&#173;tulo general (puede ser recetas, ingredientes o pa&#195;&#173;ses)" d="M126.873 241.375V245.98H130.424V248.494H126.873V260.289C126.873 261.051 127.031 261.625 127.348 262.012C127.664 262.387 128.203 262.574 128.965 262.574C129.34 262.574 129.855 262.504 130.512 262.363V265C129.656 265.234 128.824 265.352 128.016 265.352C126.562 265.352 125.467 264.912 124.729 264.033C123.99 263.154 123.621 261.906 123.621 260.289V248.494H120.158V245.98H123.621V241.375H126.873ZM137.771 265H134.502V245.98H137.771V265ZM137.807 238.018H141.744L137.033 243.186H134.414L137.807 238.018ZM147.545 241.375V245.98H151.096V248.494H147.545V260.289C147.545 261.051 147.703 261.625 148.02 262.012C148.336 262.387 148.875 262.574 149.637 262.574C150.012 262.574 150.527 262.504 151.184 262.363V265C150.328 265.234 149.496 265.352 148.688 265.352C147.234 265.352 146.139 264.912 145.4 264.033C144.662 263.154 144.293 261.906 144.293 260.289V248.494H140.83V245.98H144.293V241.375H147.545ZM166.652 263.119C165.387 264.607 163.529 265.352 161.08 265.352C159.053 265.352 157.506 264.766 156.439 263.594C155.385 262.41 154.852 260.664 154.84 258.355V245.98H158.092V258.268C158.092 261.15 159.264 262.592 161.607 262.592C164.092 262.592 165.744 261.666 166.564 259.814V245.98H169.816V265H166.723L166.652 263.119ZM178.307 265H175.055V238H178.307V265ZM182.666 255.314C182.666 253.451 183.029 251.775 183.756 250.287C184.494 248.799 185.514 247.65 186.814 246.842C188.127 246.033 189.621 245.629 191.297 245.629C193.887 245.629 195.979 246.525 197.572 248.318C199.178 250.111 199.98 252.496 199.98 255.473V255.701C199.98 257.553 199.623 259.217 198.908 260.693C198.205 262.158 197.191 263.301 195.867 264.121C194.555 264.941 193.043 265.352 191.332 265.352C188.754 265.352 186.662 264.455 185.057 262.662C183.463 260.869 182.666 258.496 182.666 255.543V255.314ZM185.936 255.701C185.936 257.811 186.422 259.504 187.395 260.781C188.379 262.059 189.691 262.697 191.332 262.697C192.984 262.697 194.297 262.053 195.27 260.764C196.242 259.463 196.729 257.646 196.729 255.314C196.729 253.229 196.23 251.541 195.234 250.252C194.25 248.951 192.938 248.301 191.297 248.301C189.691 248.301 188.396 248.939 187.412 250.217C186.428 251.494 185.936 253.322 185.936 255.701ZM212.215 255.332C212.215 252.367 212.9 250.012 214.271 248.266C215.643 246.508 217.459 245.629 219.721 245.629C222.041 245.629 223.852 246.449 225.152 248.09L225.311 245.98H228.281V264.543C228.281 267.004 227.549 268.943 226.084 270.361C224.631 271.779 222.674 272.488 220.213 272.488C218.842 272.488 217.5 272.195 216.188 271.609C214.875 271.023 213.873 270.221 213.182 269.201L214.869 267.25C216.264 268.973 217.969 269.834 219.984 269.834C221.566 269.834 222.797 269.389 223.676 268.498C224.566 267.607 225.012 266.354 225.012 264.736V263.102C223.711 264.602 221.936 265.352 219.686 265.352C217.459 265.352 215.654 264.455 214.271 262.662C212.9 260.869 212.215 258.426 212.215 255.332ZM215.484 255.701C215.484 257.846 215.924 259.533 216.803 260.764C217.682 261.982 218.912 262.592 220.494 262.592C222.545 262.592 224.051 261.66 225.012 259.797V251.113C224.016 249.297 222.521 248.389 220.529 248.389C218.947 248.389 217.711 249.004 216.82 250.234C215.93 251.465 215.484 253.287 215.484 255.701ZM241.096 265.352C238.518 265.352 236.42 264.508 234.803 262.82C233.186 261.121 232.377 258.854 232.377 256.018V255.42C232.377 253.533 232.734 251.852 233.449 250.375C234.176 248.887 235.184 247.727 236.473 246.895C237.773 246.051 239.18 245.629 240.691 245.629C243.164 245.629 245.086 246.443 246.457 248.072C247.828 249.701 248.514 252.033 248.514 255.068V256.422H235.629C235.676 258.297 236.221 259.814 237.264 260.975C238.318 262.123 239.654 262.697 241.271 262.697C242.42 262.697 243.393 262.463 244.189 261.994C244.986 261.525 245.684 260.904 246.281 260.131L248.268 261.678C246.674 264.127 244.283 265.352 241.096 265.352ZM240.691 248.301C239.379 248.301 238.277 248.781 237.387 249.742C236.496 250.691 235.945 252.027 235.734 253.75H245.262V253.504C245.168 251.852 244.723 250.574 243.926 249.672C243.129 248.758 242.051 248.301 240.691 248.301ZM255.369 245.98L255.475 248.371C256.928 246.543 258.826 245.629 261.17 245.629C265.189 245.629 267.217 247.896 267.252 252.432V265H264V252.414C263.988 251.043 263.672 250.029 263.051 249.373C262.441 248.717 261.486 248.389 260.186 248.389C259.131 248.389 258.205 248.67 257.408 249.232C256.611 249.795 255.99 250.533 255.545 251.447V265H252.293V245.98H255.369ZM280.049 265.352C277.471 265.352 275.373 264.508 273.756 262.82C272.139 261.121 271.33 258.854 271.33 256.018V255.42C271.33 253.533 271.688 251.852 272.402 250.375C273.129 248.887 274.137 247.727 275.426 246.895C276.727 246.051 278.133 245.629 279.645 245.629C282.117 245.629 284.039 246.443 285.41 248.072C286.781 249.701 287.467 252.033 287.467 255.068V256.422H274.582C274.629 258.297 275.174 259.814 276.217 260.975C277.271 262.123 278.607 262.697 280.225 262.697C281.373 262.697 282.346 262.463 283.143 261.994C283.939 261.525 284.637 260.904 285.234 260.131L287.221 261.678C285.627 264.127 283.236 265.352 280.049 265.352ZM279.645 248.301C278.332 248.301 277.23 248.781 276.34 249.742C275.449 250.691 274.898 252.027 274.688 253.75H284.215V253.504C284.121 251.852 283.676 250.574 282.879 249.672C282.082 248.758 281.004 248.301 279.645 248.301ZM300.439 248.898C299.947 248.816 299.414 248.775 298.84 248.775C296.707 248.775 295.26 249.684 294.498 251.5V265H291.246V245.98H294.41L294.463 248.178C295.529 246.479 297.041 245.629 298.998 245.629C299.631 245.629 300.111 245.711 300.439 245.875V248.898ZM314.484 265C314.297 264.625 314.145 263.957 314.027 262.996C312.516 264.566 310.711 265.352 308.613 265.352C306.738 265.352 305.197 264.824 303.99 263.77C302.795 262.703 302.197 261.355 302.197 259.727C302.197 257.746 302.947 256.211 304.447 255.121C305.959 254.02 308.08 253.469 310.811 253.469H313.975V251.975C313.975 250.838 313.635 249.936 312.955 249.268C312.275 248.588 311.273 248.248 309.949 248.248C308.789 248.248 307.816 248.541 307.031 249.127C306.246 249.713 305.854 250.422 305.854 251.254H302.584C302.584 250.305 302.918 249.391 303.586 248.512C304.266 247.621 305.18 246.918 306.328 246.402C307.488 245.887 308.76 245.629 310.143 245.629C312.334 245.629 314.051 246.18 315.293 247.281C316.535 248.371 317.18 249.877 317.227 251.799V260.553C317.227 262.299 317.449 263.688 317.895 264.719V265H314.484ZM309.088 262.521C310.107 262.521 311.074 262.258 311.988 261.73C312.902 261.203 313.564 260.518 313.975 259.674V255.771H311.426C307.441 255.771 305.449 256.938 305.449 259.27C305.449 260.289 305.789 261.086 306.469 261.66C307.148 262.234 308.021 262.521 309.088 262.521ZM325.857 265H322.605V238H325.857V265ZM339.885 254.611C339.885 251.963 340.236 249.42 340.939 246.982C341.654 244.545 342.715 242.33 344.121 240.338C345.527 238.346 346.986 236.939 348.498 236.119L349.166 238.264C347.455 239.576 346.049 241.58 344.947 244.275C343.857 246.971 343.26 249.988 343.154 253.328L343.137 254.822C343.137 259.346 343.963 263.271 345.615 266.6C346.611 268.592 347.795 270.15 349.166 271.275L348.498 273.262C346.939 272.395 345.451 270.941 344.033 268.902C341.268 264.918 339.885 260.154 339.885 254.611ZM368.379 255.701C368.379 258.596 367.717 260.928 366.393 262.697C365.068 264.467 363.275 265.352 361.014 265.352C358.705 265.352 356.889 264.619 355.564 263.154V272.312H352.312V245.98H355.283L355.441 248.09C356.766 246.449 358.605 245.629 360.961 245.629C363.246 245.629 365.051 246.49 366.375 248.213C367.711 249.936 368.379 252.332 368.379 255.402V255.701ZM365.127 255.332C365.127 253.188 364.67 251.494 363.756 250.252C362.842 249.01 361.588 248.389 359.994 248.389C358.025 248.389 356.549 249.262 355.564 251.008V260.096C356.537 261.83 358.025 262.697 360.029 262.697C361.588 262.697 362.824 262.082 363.738 260.852C364.664 259.609 365.127 257.77 365.127 255.332ZM384.27 263.119C383.004 264.607 381.146 265.352 378.697 265.352C376.67 265.352 375.123 264.766 374.057 263.594C373.002 262.41 372.469 260.664 372.457 258.355V245.98H375.709V258.268C375.709 261.15 376.881 262.592 379.225 262.592C381.709 262.592 383.361 261.666 384.182 259.814V245.98H387.434V265H384.34L384.27 263.119ZM400.283 265.352C397.705 265.352 395.607 264.508 393.99 262.82C392.373 261.121 391.564 258.854 391.564 256.018V255.42C391.564 253.533 391.922 251.852 392.637 250.375C393.363 248.887 394.371 247.727 395.66 246.895C396.961 246.051 398.367 245.629 399.879 245.629C402.352 245.629 404.273 246.443 405.645 248.072C407.016 249.701 407.701 252.033 407.701 255.068V256.422H394.816C394.863 258.297 395.408 259.814 396.451 260.975C397.506 262.123 398.842 262.697 400.459 262.697C401.607 262.697 402.58 262.463 403.377 261.994C404.174 261.525 404.871 260.904 405.469 260.131L407.455 261.678C405.861 264.127 403.471 265.352 400.283 265.352ZM399.879 248.301C398.566 248.301 397.465 248.781 396.574 249.742C395.684 250.691 395.133 252.027 394.922 253.75H404.449V253.504C404.355 251.852 403.91 250.574 403.113 249.672C402.316 248.758 401.238 248.301 399.879 248.301ZM410.689 255.332C410.689 252.414 411.381 250.07 412.764 248.301C414.146 246.52 415.957 245.629 418.195 245.629C420.422 245.629 422.186 246.391 423.486 247.914V238H426.738V265H423.75L423.592 262.961C422.291 264.555 420.48 265.352 418.16 265.352C415.957 265.352 414.158 264.449 412.764 262.645C411.381 260.84 410.689 258.484 410.689 255.578V255.332ZM413.941 255.701C413.941 257.857 414.387 259.545 415.277 260.764C416.168 261.982 417.398 262.592 418.969 262.592C421.031 262.592 422.537 261.666 423.486 259.814V251.078C422.514 249.285 421.02 248.389 419.004 248.389C417.41 248.389 416.168 249.004 415.277 250.234C414.387 251.465 413.941 253.287 413.941 255.701ZM439.693 265.352C437.115 265.352 435.018 264.508 433.4 262.82C431.783 261.121 430.975 258.854 430.975 256.018V255.42C430.975 253.533 431.332 251.852 432.047 250.375C432.773 248.887 433.781 247.727 435.07 246.895C436.371 246.051 437.777 245.629 439.289 245.629C441.762 245.629 443.684 246.443 445.055 248.072C446.426 249.701 447.111 252.033 447.111 255.068V256.422H434.227C434.273 258.297 434.818 259.814 435.861 260.975C436.916 262.123 438.252 262.697 439.869 262.697C441.018 262.697 441.99 262.463 442.787 261.994C443.584 261.525 444.281 260.904 444.879 260.131L446.865 261.678C445.271 264.127 442.881 265.352 439.693 265.352ZM439.289 248.301C437.977 248.301 436.875 248.781 435.984 249.742C435.094 250.691 434.543 252.027 434.332 253.75H443.859V253.504C443.766 251.852 443.32 250.574 442.523 249.672C441.727 248.758 440.648 248.301 439.289 248.301ZM470.895 259.955C470.895 259.076 470.561 258.396 469.893 257.916C469.236 257.424 468.082 257.002 466.43 256.65C464.789 256.299 463.482 255.877 462.51 255.385C461.549 254.893 460.834 254.307 460.365 253.627C459.908 252.947 459.68 252.139 459.68 251.201C459.68 249.643 460.336 248.324 461.648 247.246C462.973 246.168 464.66 245.629 466.711 245.629C468.867 245.629 470.613 246.186 471.949 247.299C473.297 248.412 473.971 249.836 473.971 251.57H470.701C470.701 250.68 470.32 249.912 469.559 249.268C468.809 248.623 467.859 248.301 466.711 248.301C465.527 248.301 464.602 248.559 463.934 249.074C463.266 249.59 462.932 250.264 462.932 251.096C462.932 251.881 463.242 252.473 463.863 252.871C464.484 253.27 465.604 253.65 467.221 254.014C468.85 254.377 470.168 254.811 471.176 255.314C472.184 255.818 472.928 256.428 473.408 257.143C473.9 257.846 474.146 258.707 474.146 259.727C474.146 261.426 473.467 262.791 472.107 263.822C470.748 264.842 468.984 265.352 466.816 265.352C465.293 265.352 463.945 265.082 462.773 264.543C461.602 264.004 460.682 263.254 460.014 262.293C459.357 261.32 459.029 260.271 459.029 259.146H462.281C462.34 260.236 462.773 261.104 463.582 261.748C464.402 262.381 465.48 262.697 466.816 262.697C468.047 262.697 469.031 262.451 469.77 261.959C470.52 261.455 470.895 260.787 470.895 259.955ZM486.275 265.352C483.697 265.352 481.6 264.508 479.982 262.82C478.365 261.121 477.557 258.854 477.557 256.018V255.42C477.557 253.533 477.914 251.852 478.629 250.375C479.355 248.887 480.363 247.727 481.652 246.895C482.953 246.051 484.359 245.629 485.871 245.629C488.344 245.629 490.266 246.443 491.637 248.072C493.008 249.701 493.693 252.033 493.693 255.068V256.422H480.809C480.855 258.297 481.4 259.814 482.443 260.975C483.498 262.123 484.834 262.697 486.451 262.697C487.6 262.697 488.572 262.463 489.369 261.994C490.166 261.525 490.863 260.904 491.461 260.131L493.447 261.678C491.854 264.127 489.463 265.352 486.275 265.352ZM485.871 248.301C484.559 248.301 483.457 248.781 482.566 249.742C481.676 250.691 481.125 252.027 480.914 253.75H490.441V253.504C490.348 251.852 489.902 250.574 489.105 249.672C488.309 248.758 487.23 248.301 485.871 248.301ZM506.666 248.898C506.174 248.816 505.641 248.775 505.066 248.775C502.934 248.775 501.486 249.684 500.725 251.5V265H497.473V245.98H500.637L500.689 248.178C501.756 246.479 503.268 245.629 505.225 245.629C505.857 245.629 506.338 245.711 506.666 245.875V248.898ZM527.795 248.898C527.303 248.816 526.77 248.775 526.195 248.775C524.062 248.775 522.615 249.684 521.854 251.5V265H518.602V245.98H521.766L521.818 248.178C522.885 246.479 524.396 245.629 526.354 245.629C526.986 245.629 527.467 245.711 527.795 245.875V248.898ZM538.342 265.352C535.764 265.352 533.666 264.508 532.049 262.82C530.432 261.121 529.623 258.854 529.623 256.018V255.42C529.623 253.533 529.98 251.852 530.695 250.375C531.422 248.887 532.43 247.727 533.719 246.895C535.02 246.051 536.426 245.629 537.938 245.629C540.41 245.629 542.332 246.443 543.703 248.072C545.074 249.701 545.76 252.033 545.76 255.068V256.422H532.875C532.922 258.297 533.467 259.814 534.51 260.975C535.564 262.123 536.9 262.697 538.518 262.697C539.666 262.697 540.639 262.463 541.436 261.994C542.232 261.525 542.93 260.904 543.527 260.131L545.514 261.678C543.92 264.127 541.529 265.352 538.342 265.352ZM537.938 248.301C536.625 248.301 535.523 248.781 534.633 249.742C533.742 250.691 533.191 252.027 532.98 253.75H542.508V253.504C542.414 251.852 541.969 250.574 541.172 249.672C540.375 248.758 539.297 248.301 537.938 248.301ZM557.168 262.697C558.328 262.697 559.342 262.346 560.209 261.643C561.076 260.939 561.557 260.061 561.65 259.006H564.727C564.668 260.096 564.293 261.133 563.602 262.117C562.91 263.102 561.984 263.887 560.824 264.473C559.676 265.059 558.457 265.352 557.168 265.352C554.578 265.352 552.516 264.49 550.98 262.768C549.457 261.033 548.695 258.666 548.695 255.666V255.121C548.695 253.27 549.035 251.623 549.715 250.182C550.395 248.74 551.367 247.621 552.633 246.824C553.91 246.027 555.416 245.629 557.15 245.629C559.283 245.629 561.053 246.268 562.459 247.545C563.877 248.822 564.633 250.48 564.727 252.52H561.65C561.557 251.289 561.088 250.281 560.244 249.496C559.412 248.699 558.381 248.301 557.15 248.301C555.498 248.301 554.215 248.898 553.301 250.094C552.398 251.277 551.947 252.994 551.947 255.244V255.859C551.947 258.051 552.398 259.738 553.301 260.922C554.203 262.105 555.492 262.697 557.168 262.697ZM576.275 265.352C573.697 265.352 571.6 264.508 569.982 262.82C568.365 261.121 567.557 258.854 567.557 256.018V255.42C567.557 253.533 567.914 251.852 568.629 250.375C569.355 248.887 570.363 247.727 571.652 246.895C572.953 246.051 574.359 245.629 575.871 245.629C578.344 245.629 580.266 246.443 581.637 248.072C583.008 249.701 583.693 252.033 583.693 255.068V256.422H570.809C570.855 258.297 571.4 259.814 572.443 260.975C573.498 262.123 574.834 262.697 576.451 262.697C577.6 262.697 578.572 262.463 579.369 261.994C580.166 261.525 580.863 260.904 581.461 260.131L583.447 261.678C581.854 264.127 579.463 265.352 576.275 265.352ZM575.871 248.301C574.559 248.301 573.457 248.781 572.566 249.742C571.676 250.691 571.125 252.027 570.914 253.75H580.441V253.504C580.348 251.852 579.902 250.574 579.105 249.672C578.309 248.758 577.23 248.301 575.871 248.301ZM591.885 241.375V245.98H595.436V248.494H591.885V260.289C591.885 261.051 592.043 261.625 592.359 262.012C592.676 262.387 593.215 262.574 593.977 262.574C594.352 262.574 594.867 262.504 595.523 262.363V265C594.668 265.234 593.836 265.352 593.027 265.352C591.574 265.352 590.479 264.912 589.74 264.033C589.002 263.154 588.633 261.906 588.633 260.289V248.494H585.17V245.98H588.633V241.375H591.885ZM610.992 265C610.805 264.625 610.652 263.957 610.535 262.996C609.023 264.566 607.219 265.352 605.121 265.352C603.246 265.352 601.705 264.824 600.498 263.77C599.303 262.703 598.705 261.355 598.705 259.727C598.705 257.746 599.455 256.211 600.955 255.121C602.467 254.02 604.588 253.469 607.318 253.469H610.482V251.975C610.482 250.838 610.143 249.936 609.463 249.268C608.783 248.588 607.781 248.248 606.457 248.248C605.297 248.248 604.324 248.541 603.539 249.127C602.754 249.713 602.361 250.422 602.361 251.254H599.092C599.092 250.305 599.426 249.391 600.094 248.512C600.773 247.621 601.688 246.918 602.836 246.402C603.996 245.887 605.268 245.629 606.65 245.629C608.842 245.629 610.559 246.18 611.801 247.281C613.043 248.371 613.688 249.877 613.734 251.799V260.553C613.734 262.299 613.957 263.688 614.402 264.719V265H610.992ZM605.596 262.521C606.615 262.521 607.582 262.258 608.496 261.73C609.41 261.203 610.072 260.518 610.482 259.674V255.771H607.934C603.949 255.771 601.957 256.938 601.957 259.27C601.957 260.289 602.297 261.086 602.977 261.66C603.656 262.234 604.529 262.521 605.596 262.521ZM629.906 259.955C629.906 259.076 629.572 258.396 628.904 257.916C628.248 257.424 627.094 257.002 625.441 256.65C623.801 256.299 622.494 255.877 621.521 255.385C620.561 254.893 619.846 254.307 619.377 253.627C618.92 252.947 618.691 252.139 618.691 251.201C618.691 249.643 619.348 248.324 620.66 247.246C621.984 246.168 623.672 245.629 625.723 245.629C627.879 245.629 629.625 246.186 630.961 247.299C632.309 248.412 632.982 249.836 632.982 251.57H629.713C629.713 250.68 629.332 249.912 628.57 249.268C627.82 248.623 626.871 248.301 625.723 248.301C624.539 248.301 623.613 248.559 622.945 249.074C622.277 249.59 621.943 250.264 621.943 251.096C621.943 251.881 622.254 252.473 622.875 252.871C623.496 253.27 624.615 253.65 626.232 254.014C627.861 254.377 629.18 254.811 630.188 255.314C631.195 255.818 631.939 256.428 632.42 257.143C632.912 257.846 633.158 258.707 633.158 259.727C633.158 261.426 632.479 262.791 631.119 263.822C629.76 264.842 627.996 265.352 625.828 265.352C624.305 265.352 622.957 265.082 621.785 264.543C620.613 264.004 619.693 263.254 619.025 262.293C618.369 261.32 618.041 260.271 618.041 259.146H621.293C621.352 260.236 621.785 261.104 622.594 261.748C623.414 262.381 624.492 262.697 625.828 262.697C627.059 262.697 628.043 262.451 628.781 261.959C629.531 261.455 629.906 260.787 629.906 259.955ZM637.289 270.098L635.443 268.832C636.545 267.297 637.119 265.715 637.166 264.086V261.15H640.348V263.699C640.348 264.883 640.055 266.066 639.469 267.25C638.895 268.434 638.168 269.383 637.289 270.098ZM125.994 307H122.742V287.98H125.994V307ZM122.479 282.936C122.479 282.408 122.637 281.963 122.953 281.6C123.281 281.236 123.762 281.055 124.395 281.055C125.027 281.055 125.508 281.236 125.836 281.6C126.164 281.963 126.328 282.408 126.328 282.936C126.328 283.463 126.164 283.902 125.836 284.254C125.508 284.605 125.027 284.781 124.395 284.781C123.762 284.781 123.281 284.605 122.953 284.254C122.637 283.902 122.479 283.463 122.479 282.936ZM134.291 287.98L134.396 290.371C135.85 288.543 137.748 287.629 140.092 287.629C144.111 287.629 146.139 289.896 146.174 294.432V307H142.922V294.414C142.91 293.043 142.594 292.029 141.973 291.373C141.363 290.717 140.408 290.389 139.107 290.389C138.053 290.389 137.127 290.67 136.33 291.232C135.533 291.795 134.912 292.533 134.467 293.447V307H131.215V287.98H134.291ZM150.305 297.332C150.305 294.367 150.99 292.012 152.361 290.266C153.732 288.508 155.549 287.629 157.811 287.629C160.131 287.629 161.941 288.449 163.242 290.09L163.4 287.98H166.371V306.543C166.371 309.004 165.639 310.943 164.174 312.361C162.721 313.779 160.764 314.488 158.303 314.488C156.932 314.488 155.59 314.195 154.277 313.609C152.965 313.023 151.963 312.221 151.271 311.201L152.959 309.25C154.354 310.973 156.059 311.834 158.074 311.834C159.656 311.834 160.887 311.389 161.766 310.498C162.656 309.607 163.102 308.354 163.102 306.736V305.102C161.801 306.602 160.025 307.352 157.775 307.352C155.549 307.352 153.744 306.455 152.361 304.662C150.99 302.869 150.305 300.426 150.305 297.332ZM153.574 297.701C153.574 299.846 154.014 301.533 154.893 302.764C155.771 303.982 157.002 304.592 158.584 304.592C160.635 304.592 162.141 303.66 163.102 301.797V293.113C162.105 291.297 160.611 290.389 158.619 290.389C157.037 290.389 155.801 291.004 154.91 292.234C154.02 293.465 153.574 295.287 153.574 297.701ZM180.486 290.898C179.994 290.816 179.461 290.775 178.887 290.775C176.754 290.775 175.307 291.684 174.545 293.5V307H171.293V287.98H174.457L174.51 290.178C175.576 288.479 177.088 287.629 179.045 287.629C179.678 287.629 180.158 287.711 180.486 287.875V290.898ZM191.033 307.352C188.455 307.352 186.357 306.508 184.74 304.82C183.123 303.121 182.314 300.854 182.314 298.018V297.42C182.314 295.533 182.672 293.852 183.387 292.375C184.113 290.887 185.121 289.727 186.41 288.895C187.711 288.051 189.117 287.629 190.629 287.629C193.102 287.629 195.023 288.443 196.395 290.072C197.766 291.701 198.451 294.033 198.451 297.068V298.422H185.566C185.613 300.297 186.158 301.814 187.201 302.975C188.256 304.123 189.592 304.697 191.209 304.697C192.357 304.697 193.33 304.463 194.127 303.994C194.924 303.525 195.621 302.904 196.219 302.131L198.205 303.678C196.611 306.127 194.221 307.352 191.033 307.352ZM190.629 290.301C189.316 290.301 188.215 290.781 187.324 291.742C186.434 292.691 185.883 294.027 185.672 295.75H195.199V295.504C195.105 293.852 194.66 292.574 193.863 291.672C193.066 290.758 191.988 290.301 190.629 290.301ZM201.439 297.332C201.439 294.414 202.131 292.07 203.514 290.301C204.896 288.52 206.707 287.629 208.945 287.629C211.172 287.629 212.936 288.391 214.236 289.914V280H217.488V307H214.5L214.342 304.961C213.041 306.555 211.23 307.352 208.91 307.352C206.707 307.352 204.908 306.449 203.514 304.645C202.131 302.84 201.439 300.484 201.439 297.578V297.332ZM204.691 297.701C204.691 299.857 205.137 301.545 206.027 302.764C206.918 303.982 208.148 304.592 209.719 304.592C211.781 304.592 213.287 303.666 214.236 301.814V293.078C213.264 291.285 211.77 290.389 209.754 290.389C208.16 290.389 206.918 291.004 206.027 292.234C205.137 293.465 204.691 295.287 204.691 297.701ZM226.084 307H222.832V287.98H226.084V307ZM222.568 282.936C222.568 282.408 222.727 281.963 223.043 281.6C223.371 281.236 223.852 281.055 224.484 281.055C225.117 281.055 225.598 281.236 225.926 281.6C226.254 281.963 226.418 282.408 226.418 282.936C226.418 283.463 226.254 283.902 225.926 284.254C225.598 284.605 225.117 284.781 224.484 284.781C223.852 284.781 223.371 284.605 223.043 284.254C222.727 283.902 222.568 283.463 222.568 282.936ZM239.197 307.352C236.619 307.352 234.521 306.508 232.904 304.82C231.287 303.121 230.479 300.854 230.479 298.018V297.42C230.479 295.533 230.836 293.852 231.551 292.375C232.277 290.887 233.285 289.727 234.574 288.895C235.875 288.051 237.281 287.629 238.793 287.629C241.266 287.629 243.188 288.443 244.559 290.072C245.93 291.701 246.615 294.033 246.615 297.068V298.422H233.73C233.777 300.297 234.322 301.814 235.365 302.975C236.42 304.123 237.756 304.697 239.373 304.697C240.521 304.697 241.494 304.463 242.291 303.994C243.088 303.525 243.785 302.904 244.383 302.131L246.369 303.678C244.775 306.127 242.385 307.352 239.197 307.352ZM238.793 290.301C237.48 290.301 236.379 290.781 235.488 291.742C234.598 292.691 234.047 294.027 233.836 295.75H243.363V295.504C243.27 293.852 242.824 292.574 242.027 291.672C241.23 290.758 240.152 290.301 238.793 290.301ZM253.471 287.98L253.576 290.371C255.029 288.543 256.928 287.629 259.271 287.629C263.291 287.629 265.318 289.896 265.354 294.432V307H262.102V294.414C262.09 293.043 261.773 292.029 261.152 291.373C260.543 290.717 259.588 290.389 258.287 290.389C257.232 290.389 256.307 290.67 255.51 291.232C254.713 291.795 254.092 292.533 253.646 293.447V307H250.395V287.98H253.471ZM274.67 283.375V287.98H278.221V290.494H274.67V302.289C274.67 303.051 274.828 303.625 275.145 304.012C275.461 304.387 276 304.574 276.762 304.574C277.137 304.574 277.652 304.504 278.309 304.363V307C277.453 307.234 276.621 307.352 275.812 307.352C274.359 307.352 273.264 306.912 272.525 306.033C271.787 305.154 271.418 303.906 271.418 302.289V290.494H267.955V287.98H271.418V283.375H274.67ZM289.928 307.352C287.35 307.352 285.252 306.508 283.635 304.82C282.018 303.121 281.209 300.854 281.209 298.018V297.42C281.209 295.533 281.566 293.852 282.281 292.375C283.008 290.887 284.016 289.727 285.305 288.895C286.605 288.051 288.012 287.629 289.523 287.629C291.996 287.629 293.918 288.443 295.289 290.072C296.66 291.701 297.346 294.033 297.346 297.068V298.422H284.461C284.508 300.297 285.053 301.814 286.096 302.975C287.15 304.123 288.486 304.697 290.104 304.697C291.252 304.697 292.225 304.463 293.021 303.994C293.818 303.525 294.516 302.904 295.113 302.131L297.1 303.678C295.506 306.127 293.115 307.352 289.928 307.352ZM289.523 290.301C288.211 290.301 287.109 290.781 286.219 291.742C285.328 292.691 284.777 294.027 284.566 295.75H294.094V295.504C294 293.852 293.555 292.574 292.758 291.672C291.961 290.758 290.883 290.301 289.523 290.301ZM312.199 301.955C312.199 301.076 311.865 300.396 311.197 299.916C310.541 299.424 309.387 299.002 307.734 298.65C306.094 298.299 304.787 297.877 303.814 297.385C302.854 296.893 302.139 296.307 301.67 295.627C301.213 294.947 300.984 294.139 300.984 293.201C300.984 291.643 301.641 290.324 302.953 289.246C304.277 288.168 305.965 287.629 308.016 287.629C310.172 287.629 311.918 288.186 313.254 289.299C314.602 290.412 315.275 291.836 315.275 293.57H312.006C312.006 292.68 311.625 291.912 310.863 291.268C310.113 290.623 309.164 290.301 308.016 290.301C306.832 290.301 305.906 290.559 305.238 291.074C304.57 291.59 304.236 292.264 304.236 293.096C304.236 293.881 304.547 294.473 305.168 294.871C305.789 295.27 306.908 295.65 308.525 296.014C310.154 296.377 311.473 296.811 312.48 297.314C313.488 297.818 314.232 298.428 314.713 299.143C315.205 299.846 315.451 300.707 315.451 301.727C315.451 303.426 314.771 304.791 313.412 305.822C312.053 306.842 310.289 307.352 308.121 307.352C306.598 307.352 305.25 307.082 304.078 306.543C302.906 306.004 301.986 305.254 301.318 304.293C300.662 303.32 300.334 302.271 300.334 301.146H303.586C303.645 302.236 304.078 303.104 304.887 303.748C305.707 304.381 306.785 304.697 308.121 304.697C309.352 304.697 310.336 304.451 311.074 303.959C311.824 303.455 312.199 302.787 312.199 301.955ZM327.756 297.314C327.756 295.451 328.119 293.775 328.846 292.287C329.584 290.799 330.604 289.65 331.904 288.842C333.217 288.033 334.711 287.629 336.387 287.629C338.977 287.629 341.068 288.525 342.662 290.318C344.268 292.111 345.07 294.496 345.07 297.473V297.701C345.07 299.553 344.713 301.217 343.998 302.693C343.295 304.158 342.281 305.301 340.957 306.121C339.645 306.941 338.133 307.352 336.422 307.352C333.844 307.352 331.752 306.455 330.146 304.662C328.553 302.869 327.756 300.496 327.756 297.543V297.314ZM331.025 297.701C331.025 299.811 331.512 301.504 332.484 302.781C333.469 304.059 334.781 304.697 336.422 304.697C338.074 304.697 339.387 304.053 340.359 302.764C341.332 301.463 341.818 299.646 341.818 297.314C341.818 295.229 341.32 293.541 340.324 292.252C339.34 290.951 338.027 290.301 336.387 290.301C334.781 290.301 333.486 290.939 332.502 292.217C331.518 293.494 331.025 295.322 331.025 297.701ZM374.145 297.701C374.145 300.596 373.482 302.928 372.158 304.697C370.834 306.467 369.041 307.352 366.779 307.352C364.471 307.352 362.654 306.619 361.33 305.154V314.312H358.078V287.98H361.049L361.207 290.09C362.531 288.449 364.371 287.629 366.727 287.629C369.012 287.629 370.816 288.49 372.141 290.213C373.477 291.936 374.145 294.332 374.145 297.402V297.701ZM370.893 297.332C370.893 295.188 370.436 293.494 369.521 292.252C368.607 291.01 367.354 290.389 365.76 290.389C363.791 290.389 362.314 291.262 361.33 293.008V302.096C362.303 303.83 363.791 304.697 365.795 304.697C367.354 304.697 368.59 304.082 369.504 302.852C370.43 301.609 370.893 299.77 370.893 297.332ZM390.035 307C389.848 306.625 389.695 305.957 389.578 304.996C388.066 306.566 386.262 307.352 384.164 307.352C382.289 307.352 380.748 306.824 379.541 305.77C378.346 304.703 377.748 303.355 377.748 301.727C377.748 299.746 378.498 298.211 379.998 297.121C381.51 296.02 383.631 295.469 386.361 295.469H389.525V293.975C389.525 292.838 389.186 291.936 388.506 291.268C387.826 290.588 386.824 290.248 385.5 290.248C384.34 290.248 383.367 290.541 382.582 291.127C381.797 291.713 381.404 292.422 381.404 293.254H378.135C378.135 292.305 378.469 291.391 379.137 290.512C379.816 289.621 380.73 288.918 381.879 288.402C383.039 287.887 384.311 287.629 385.693 287.629C387.885 287.629 389.602 288.18 390.844 289.281C392.086 290.371 392.73 291.877 392.777 293.799V302.553C392.777 304.299 393 305.688 393.445 306.719V307H390.035ZM384.639 304.521C385.658 304.521 386.625 304.258 387.539 303.73C388.453 303.203 389.115 302.518 389.525 301.674V297.771H386.977C382.992 297.771 381 298.938 381 301.27C381 302.289 381.34 303.086 382.02 303.66C382.699 304.234 383.572 304.521 384.639 304.521ZM401.408 307H398.139V287.98H401.408V307ZM401.443 280.018H405.381L400.67 285.186H398.051L401.443 280.018ZM417.844 301.955C417.844 301.076 417.51 300.396 416.842 299.916C416.186 299.424 415.031 299.002 413.379 298.65C411.738 298.299 410.432 297.877 409.459 297.385C408.498 296.893 407.783 296.307 407.314 295.627C406.857 294.947 406.629 294.139 406.629 293.201C406.629 291.643 407.285 290.324 408.598 289.246C409.922 288.168 411.609 287.629 413.66 287.629C415.816 287.629 417.562 288.186 418.898 289.299C420.246 290.412 420.92 291.836 420.92 293.57H417.65C417.65 292.68 417.27 291.912 416.508 291.268C415.758 290.623 414.809 290.301 413.66 290.301C412.477 290.301 411.551 290.559 410.883 291.074C410.215 291.59 409.881 292.264 409.881 293.096C409.881 293.881 410.191 294.473 410.812 294.871C411.434 295.27 412.553 295.65 414.17 296.014C415.799 296.377 417.117 296.811 418.125 297.314C419.133 297.818 419.877 298.428 420.357 299.143C420.85 299.846 421.096 300.707 421.096 301.727C421.096 303.426 420.416 304.791 419.057 305.822C417.697 306.842 415.934 307.352 413.766 307.352C412.242 307.352 410.895 307.082 409.723 306.543C408.551 306.004 407.631 305.254 406.963 304.293C406.307 303.32 405.979 302.271 405.979 301.146H409.23C409.289 302.236 409.723 303.104 410.531 303.748C411.352 304.381 412.43 304.697 413.766 304.697C414.996 304.697 415.98 304.451 416.719 303.959C417.469 303.455 417.844 302.787 417.844 301.955ZM433.225 307.352C430.646 307.352 428.549 306.508 426.932 304.82C425.314 303.121 424.506 300.854 424.506 298.018V297.42C424.506 295.533 424.863 293.852 425.578 292.375C426.305 290.887 427.312 289.727 428.602 288.895C429.902 288.051 431.309 287.629 432.82 287.629C435.293 287.629 437.215 288.443 438.586 290.072C439.957 291.701 440.643 294.033 440.643 297.068V298.422H427.758C427.805 300.297 428.35 301.814 429.393 302.975C430.447 304.123 431.783 304.697 433.4 304.697C434.549 304.697 435.521 304.463 436.318 303.994C437.115 303.525 437.812 302.904 438.41 302.131L440.396 303.678C438.803 306.127 436.412 307.352 433.225 307.352ZM432.82 290.301C431.508 290.301 430.406 290.781 429.516 291.742C428.625 292.691 428.074 294.027 427.863 295.75H437.391V295.504C437.297 293.852 436.852 292.574 436.055 291.672C435.258 290.758 434.18 290.301 432.82 290.301ZM455.496 301.955C455.496 301.076 455.162 300.396 454.494 299.916C453.838 299.424 452.684 299.002 451.031 298.65C449.391 298.299 448.084 297.877 447.111 297.385C446.15 296.893 445.436 296.307 444.967 295.627C444.51 294.947 444.281 294.139 444.281 293.201C444.281 291.643 444.938 290.324 446.25 289.246C447.574 288.168 449.262 287.629 451.312 287.629C453.469 287.629 455.215 288.186 456.551 289.299C457.898 290.412 458.572 291.836 458.572 293.57H455.303C455.303 292.68 454.922 291.912 454.16 291.268C453.41 290.623 452.461 290.301 451.312 290.301C450.129 290.301 449.203 290.559 448.535 291.074C447.867 291.59 447.533 292.264 447.533 293.096C447.533 293.881 447.844 294.473 448.465 294.871C449.086 295.27 450.205 295.65 451.822 296.014C453.451 296.377 454.77 296.811 455.777 297.314C456.785 297.818 457.529 298.428 458.01 299.143C458.502 299.846 458.748 300.707 458.748 301.727C458.748 303.426 458.068 304.791 456.709 305.822C455.35 306.842 453.586 307.352 451.418 307.352C449.895 307.352 448.547 307.082 447.375 306.543C446.203 306.004 445.283 305.254 444.615 304.293C443.959 303.32 443.631 302.271 443.631 301.146H446.883C446.941 302.236 447.375 303.104 448.184 303.748C449.004 304.381 450.082 304.697 451.418 304.697C452.648 304.697 453.633 304.451 454.371 303.959C455.121 303.455 455.496 302.787 455.496 301.955ZM470.49 296.787C470.49 299.4 470.145 301.908 469.453 304.311C468.773 306.701 467.725 308.91 466.307 310.938C464.9 312.965 463.424 314.406 461.877 315.262L461.191 313.275C462.996 311.893 464.443 309.748 465.533 306.842C466.635 303.924 467.197 300.689 467.221 297.139V296.576C467.221 294.115 466.963 291.83 466.447 289.721C465.932 287.6 465.211 285.701 464.285 284.025C463.371 282.35 462.34 281.043 461.191 280.105L461.877 278.119C463.424 278.975 464.895 280.404 466.289 282.408C467.695 284.412 468.744 286.621 469.436 289.035C470.139 291.449 470.49 294.033 470.49 296.787Z" fill="white"/>
</g>
<g id="Barra de navegaci&#195;&#179;n">
<g id="Ingredientes">
<rect id="Rectangle 16" x="1141" y="39" width="231" height="68" fill="#0E0101"/>
<path id="ingredientes" d="M1165.83 84H1162.67V65.5088H1165.83V84ZM1162.41 60.604C1162.41 60.0913 1162.56 59.6584 1162.87 59.3052C1163.19 58.952 1163.66 58.7754 1164.27 58.7754C1164.89 58.7754 1165.35 58.952 1165.67 59.3052C1165.99 59.6584 1166.15 60.0913 1166.15 60.604C1166.15 61.1167 1165.99 61.5439 1165.67 61.8857C1165.35 62.2275 1164.89 62.3984 1164.27 62.3984C1163.66 62.3984 1163.19 62.2275 1162.87 61.8857C1162.56 61.5439 1162.41 61.1167 1162.41 60.604ZM1173.89 65.5088L1174 67.833C1175.41 66.0557 1177.26 65.167 1179.53 65.167C1183.44 65.167 1185.41 67.3716 1185.45 71.7808V84H1182.29V71.7637C1182.27 70.4307 1181.97 69.4451 1181.36 68.8071C1180.77 68.1691 1179.84 67.8501 1178.58 67.8501C1177.55 67.8501 1176.65 68.1235 1175.88 68.6704C1175.1 69.2173 1174.5 69.9351 1174.06 70.8237V84H1170.9V65.5088H1173.89ZM1189.46 74.6006C1189.46 71.7181 1190.13 69.4281 1191.46 67.7305C1192.8 66.0215 1194.56 65.167 1196.76 65.167C1199.02 65.167 1200.78 65.9645 1202.04 67.5596L1202.19 65.5088H1205.08V83.5557C1205.08 85.9482 1204.37 87.8338 1202.95 89.2124C1201.53 90.591 1199.63 91.2803 1197.24 91.2803C1195.91 91.2803 1194.6 90.9954 1193.33 90.4258C1192.05 89.8561 1191.08 89.0757 1190.4 88.0845L1192.04 86.1875C1193.4 87.8623 1195.06 88.6997 1197.02 88.6997C1198.55 88.6997 1199.75 88.2668 1200.61 87.4009C1201.47 86.535 1201.9 85.3159 1201.9 83.7437V82.1543C1200.64 83.6126 1198.91 84.3418 1196.73 84.3418C1194.56 84.3418 1192.81 83.4702 1191.46 81.7271C1190.13 79.9839 1189.46 77.6084 1189.46 74.6006ZM1192.64 74.9595C1192.64 77.0444 1193.07 78.6851 1193.92 79.8813C1194.78 81.0662 1195.97 81.6587 1197.51 81.6587C1199.51 81.6587 1200.97 80.7529 1201.9 78.9414V70.499C1200.94 68.7331 1199.48 67.8501 1197.55 67.8501C1196.01 67.8501 1194.81 68.4482 1193.94 69.6445C1193.07 70.8408 1192.64 72.6125 1192.64 74.9595ZM1218.81 68.3457C1218.33 68.266 1217.81 68.2261 1217.25 68.2261C1215.18 68.2261 1213.77 69.109 1213.03 70.875V84H1209.87V65.5088H1212.94L1213 67.645C1214.03 65.993 1215.5 65.167 1217.4 65.167C1218.02 65.167 1218.49 65.2467 1218.81 65.4062V68.3457ZM1229.06 84.3418C1226.55 84.3418 1224.51 83.5215 1222.94 81.8809C1221.37 80.2288 1220.58 78.0243 1220.58 75.2671V74.686C1220.58 72.8517 1220.93 71.2168 1221.63 69.7812C1222.33 68.3343 1223.31 67.2064 1224.57 66.3975C1225.83 65.5771 1227.2 65.167 1228.67 65.167C1231.07 65.167 1232.94 65.9588 1234.27 67.5425C1235.61 69.1261 1236.27 71.3934 1236.27 74.3442V75.6602H1223.75C1223.79 77.4831 1224.32 78.9585 1225.33 80.0864C1226.36 81.203 1227.66 81.7612 1229.23 81.7612C1230.35 81.7612 1231.29 81.5334 1232.07 81.0776C1232.84 80.6219 1233.52 80.0181 1234.1 79.2661L1236.03 80.77C1234.48 83.1512 1232.16 84.3418 1229.06 84.3418ZM1228.67 67.7646C1227.39 67.7646 1226.32 68.2318 1225.45 69.166C1224.59 70.0889 1224.05 71.3877 1223.85 73.0625H1233.11V72.8232C1233.02 71.2168 1232.59 69.9749 1231.81 69.0977C1231.04 68.209 1229.99 67.7646 1228.67 67.7646ZM1239.18 74.6006C1239.18 71.7637 1239.85 69.485 1241.19 67.7646C1242.54 66.0329 1244.3 65.167 1246.47 65.167C1248.64 65.167 1250.35 65.9076 1251.62 67.3887V57.75H1254.78V84H1251.88L1251.72 82.0176C1250.46 83.5671 1248.7 84.3418 1246.44 84.3418C1244.3 84.3418 1242.55 83.4645 1241.19 81.71C1239.85 79.9554 1239.18 77.6654 1239.18 74.8398V74.6006ZM1242.34 74.9595C1242.34 77.0558 1242.77 78.6965 1243.64 79.8813C1244.5 81.0662 1245.7 81.6587 1247.23 81.6587C1249.23 81.6587 1250.7 80.7586 1251.62 78.9585V70.4648C1250.67 68.7217 1249.22 67.8501 1247.26 67.8501C1245.71 67.8501 1244.5 68.4482 1243.64 69.6445C1242.77 70.8408 1242.34 72.6125 1242.34 74.9595ZM1263.14 84H1259.98V65.5088H1263.14V84ZM1259.72 60.604C1259.72 60.0913 1259.87 59.6584 1260.18 59.3052C1260.5 58.952 1260.97 58.7754 1261.58 58.7754C1262.2 58.7754 1262.66 58.952 1262.98 59.3052C1263.3 59.6584 1263.46 60.0913 1263.46 60.604C1263.46 61.1167 1263.3 61.5439 1262.98 61.8857C1262.66 62.2275 1262.2 62.3984 1261.58 62.3984C1260.97 62.3984 1260.5 62.2275 1260.18 61.8857C1259.87 61.5439 1259.72 61.1167 1259.72 60.604ZM1275.89 84.3418C1273.38 84.3418 1271.34 83.5215 1269.77 81.8809C1268.2 80.2288 1267.41 78.0243 1267.41 75.2671V74.686C1267.41 72.8517 1267.76 71.2168 1268.45 69.7812C1269.16 68.3343 1270.14 67.2064 1271.39 66.3975C1272.66 65.5771 1274.02 65.167 1275.49 65.167C1277.9 65.167 1279.77 65.9588 1281.1 67.5425C1282.43 69.1261 1283.1 71.3934 1283.1 74.3442V75.6602H1270.57C1270.62 77.4831 1271.15 78.9585 1272.16 80.0864C1273.19 81.203 1274.48 81.7612 1276.06 81.7612C1277.17 81.7612 1278.12 81.5334 1278.89 81.0776C1279.67 80.6219 1280.35 80.0181 1280.93 79.2661L1282.86 80.77C1281.31 83.1512 1278.99 84.3418 1275.89 84.3418ZM1275.49 67.7646C1274.22 67.7646 1273.15 68.2318 1272.28 69.166C1271.41 70.0889 1270.88 71.3877 1270.67 73.0625H1279.94V72.8232C1279.85 71.2168 1279.41 69.9749 1278.64 69.0977C1277.86 68.209 1276.81 67.7646 1275.49 67.7646ZM1289.76 65.5088L1289.87 67.833C1291.28 66.0557 1293.12 65.167 1295.4 65.167C1299.31 65.167 1301.28 67.3716 1301.32 71.7808V84H1298.15V71.7637C1298.14 70.4307 1297.84 69.4451 1297.23 68.8071C1296.64 68.1691 1295.71 67.8501 1294.45 67.8501C1293.42 67.8501 1292.52 68.1235 1291.75 68.6704C1290.97 69.2173 1290.37 69.9351 1289.93 70.8237V84H1286.77V65.5088H1289.76ZM1310.37 61.0312V65.5088H1313.83V67.9526H1310.37V79.4199C1310.37 80.1605 1310.53 80.7188 1310.83 81.0947C1311.14 81.4593 1311.67 81.6416 1312.41 81.6416C1312.77 81.6416 1313.27 81.5732 1313.91 81.4365V84C1313.08 84.2279 1312.27 84.3418 1311.48 84.3418C1310.07 84.3418 1309.01 83.9146 1308.29 83.0601C1307.57 82.2056 1307.21 80.9922 1307.21 79.4199V67.9526H1303.85V65.5088H1307.21V61.0312H1310.37ZM1325.21 84.3418C1322.7 84.3418 1320.66 83.5215 1319.09 81.8809C1317.52 80.2288 1316.73 78.0243 1316.73 75.2671V74.686C1316.73 72.8517 1317.08 71.2168 1317.77 69.7812C1318.48 68.3343 1319.46 67.2064 1320.71 66.3975C1321.98 65.5771 1323.34 65.167 1324.81 65.167C1327.22 65.167 1329.09 65.9588 1330.42 67.5425C1331.75 69.1261 1332.42 71.3934 1332.42 74.3442V75.6602H1319.89C1319.94 77.4831 1320.47 78.9585 1321.48 80.0864C1322.51 81.203 1323.81 81.7612 1325.38 81.7612C1326.49 81.7612 1327.44 81.5334 1328.22 81.0776C1328.99 80.6219 1329.67 80.0181 1330.25 79.2661L1332.18 80.77C1330.63 83.1512 1328.31 84.3418 1325.21 84.3418ZM1324.81 67.7646C1323.54 67.7646 1322.47 68.2318 1321.6 69.166C1320.74 70.0889 1320.2 71.3877 1320 73.0625H1329.26V72.8232C1329.17 71.2168 1328.73 69.9749 1327.96 69.0977C1327.18 68.209 1326.14 67.7646 1324.81 67.7646ZM1346.86 79.0952C1346.86 78.2407 1346.54 77.5799 1345.89 77.1128C1345.25 76.6343 1344.13 76.2241 1342.52 75.8823C1340.92 75.5405 1339.65 75.1304 1338.71 74.6519C1337.77 74.1733 1337.08 73.6037 1336.62 72.9429C1336.18 72.2821 1335.96 71.4959 1335.96 70.5845C1335.96 69.0692 1336.6 67.7874 1337.87 66.7393C1339.16 65.6911 1340.8 65.167 1342.79 65.167C1344.89 65.167 1346.59 65.7082 1347.89 66.7905C1349.2 67.8729 1349.85 69.2572 1349.85 70.9434H1346.67C1346.67 70.0775 1346.3 69.3312 1345.56 68.7046C1344.83 68.078 1343.91 67.7646 1342.79 67.7646C1341.64 67.7646 1340.74 68.0153 1340.09 68.5166C1339.44 69.0179 1339.12 69.673 1339.12 70.4819C1339.12 71.2453 1339.42 71.8206 1340.02 72.208C1340.63 72.5954 1341.72 72.9657 1343.29 73.3188C1344.87 73.672 1346.15 74.0936 1347.13 74.5835C1348.11 75.0734 1348.84 75.6659 1349.3 76.3608C1349.78 77.0444 1350.02 77.8818 1350.02 78.873C1350.02 80.5251 1349.36 81.8524 1348.04 82.855C1346.72 83.8462 1345 84.3418 1342.9 84.3418C1341.41 84.3418 1340.1 84.0798 1338.96 83.5557C1337.83 83.0316 1336.93 82.3024 1336.28 81.3682C1335.64 80.4225 1335.32 79.4028 1335.32 78.3091H1338.49C1338.54 79.3687 1338.96 80.2118 1339.75 80.8384C1340.55 81.4536 1341.6 81.7612 1342.9 81.7612C1344.09 81.7612 1345.05 81.522 1345.77 81.0435C1346.5 80.5535 1346.86 79.9041 1346.86 79.0952Z" fill="white"/>
</g>
<g id="Por pa&#195;&#173;s">
<rect id="Rectangle 17" x="877" y="38" width="231" height="68" fill="#0E0101"/>
<path id="por pais" d="M948.013 73.9595C948.013 76.7736 947.369 79.0409 946.082 80.7612C944.794 82.4816 943.051 83.3418 940.852 83.3418C938.608 83.3418 936.842 82.6297 935.554 81.2056V90.1094H932.393V64.5088H935.281L935.435 66.5596C936.722 64.9645 938.511 64.167 940.801 64.167C943.022 64.167 944.777 65.0044 946.064 66.6792C947.363 68.354 948.013 70.6839 948.013 73.6689V73.9595ZM944.851 73.6006C944.851 71.5156 944.407 69.8693 943.518 68.6616C942.629 67.4539 941.41 66.8501 939.861 66.8501C937.947 66.8501 936.511 67.6989 935.554 69.3965V78.2319C936.5 79.9181 937.947 80.7612 939.895 80.7612C941.41 80.7612 942.612 80.1631 943.501 78.9668C944.401 77.7591 944.851 75.9704 944.851 73.6006ZM951.208 73.5835C951.208 71.772 951.562 70.1427 952.268 68.6958C952.986 67.2489 953.977 66.1323 955.242 65.3462C956.518 64.5601 957.97 64.167 959.6 64.167C962.118 64.167 964.151 65.0386 965.701 66.7817C967.262 68.5249 968.042 70.8434 968.042 73.7373V73.9595C968.042 75.7596 967.694 77.3774 967 78.813C966.316 80.2371 965.33 81.348 964.043 82.1455C962.767 82.943 961.297 83.3418 959.634 83.3418C957.127 83.3418 955.094 82.4702 953.533 80.7271C951.983 78.9839 951.208 76.6768 951.208 73.8057V73.5835ZM954.387 73.9595C954.387 76.0103 954.86 77.6566 955.806 78.8984C956.763 80.1403 958.039 80.7612 959.634 80.7612C961.24 80.7612 962.516 80.1346 963.462 78.8813C964.408 77.6167 964.88 75.8507 964.88 73.5835C964.88 71.5555 964.396 69.9149 963.428 68.6616C962.471 67.397 961.195 66.7646 959.6 66.7646C958.039 66.7646 956.78 67.3856 955.823 68.6274C954.866 69.8693 954.387 71.6466 954.387 73.9595ZM980.945 67.3457C980.466 67.266 979.948 67.2261 979.39 67.2261C977.316 67.2261 975.909 68.109 975.168 69.875V83H972.007V64.5088H975.083L975.134 66.645C976.171 64.993 977.641 64.167 979.543 64.167C980.159 64.167 980.626 64.2467 980.945 64.4062V67.3457ZM1008.17 73.9595C1008.17 76.7736 1007.53 79.0409 1006.24 80.7612C1004.95 82.4816 1003.21 83.3418 1001.01 83.3418C998.764 83.3418 996.998 82.6297 995.71 81.2056V90.1094H992.549V64.5088H995.437L995.591 66.5596C996.878 64.9645 998.667 64.167 1000.96 64.167C1003.18 64.167 1004.93 65.0044 1006.22 66.6792C1007.52 68.354 1008.17 70.6839 1008.17 73.6689V73.9595ZM1005.01 73.6006C1005.01 71.5156 1004.56 69.8693 1003.67 68.6616C1002.79 67.4539 1001.57 66.8501 1000.02 66.8501C998.103 66.8501 996.667 67.6989 995.71 69.3965V78.2319C996.656 79.9181 998.103 80.7612 1000.05 80.7612C1001.57 80.7612 1002.77 80.1631 1003.66 78.9668C1004.56 77.7591 1005.01 75.9704 1005.01 73.6006ZM1023.62 83C1023.44 82.6354 1023.29 81.986 1023.17 81.0518C1021.7 82.5785 1019.95 83.3418 1017.91 83.3418C1016.09 83.3418 1014.59 82.8291 1013.42 81.8037C1012.25 80.7669 1011.67 79.4567 1011.67 77.873C1011.67 75.9476 1012.4 74.4551 1013.86 73.3955C1015.33 72.3245 1017.39 71.7891 1020.05 71.7891H1023.12V70.3364C1023.12 69.2313 1022.79 68.354 1022.13 67.7046C1021.47 67.0438 1020.5 66.7134 1019.21 66.7134C1018.08 66.7134 1017.14 66.9982 1016.37 67.5679C1015.61 68.1375 1015.23 68.8268 1015.23 69.6357H1012.05C1012.05 68.7129 1012.37 67.8242 1013.02 66.9697C1013.68 66.1038 1014.57 65.4202 1015.69 64.9189C1016.82 64.4176 1018.05 64.167 1019.4 64.167C1021.53 64.167 1023.2 64.7025 1024.4 65.7734C1025.61 66.833 1026.24 68.297 1026.28 70.1655V78.6763C1026.28 80.3739 1026.5 81.724 1026.93 82.7266V83H1023.62ZM1018.37 80.5903C1019.36 80.5903 1020.3 80.334 1021.19 79.8213C1022.08 79.3086 1022.72 78.6421 1023.12 77.8218V74.0278H1020.64C1016.77 74.0278 1014.83 75.1615 1014.83 77.4287C1014.83 78.4199 1015.16 79.1947 1015.83 79.7529C1016.49 80.3112 1017.33 80.5903 1018.37 80.5903ZM1034.68 83H1031.51V64.5088H1034.68V83ZM1031.26 59.604C1031.26 59.0913 1031.41 58.6584 1031.72 58.3052C1032.04 57.952 1032.5 57.7754 1033.12 57.7754C1033.74 57.7754 1034.2 57.952 1034.52 58.3052C1034.84 58.6584 1035 59.0913 1035 59.604C1035 60.1167 1034.84 60.5439 1034.52 60.8857C1034.2 61.2275 1033.74 61.3984 1033.12 61.3984C1032.5 61.3984 1032.04 61.2275 1031.72 60.8857C1031.41 60.5439 1031.26 60.1167 1031.26 59.604ZM1050.52 78.0952C1050.52 77.2407 1050.19 76.5799 1049.54 76.1128C1048.91 75.6343 1047.78 75.2241 1046.18 74.8823C1044.58 74.5405 1043.31 74.1304 1042.37 73.6519C1041.43 73.1733 1040.74 72.6037 1040.28 71.9429C1039.84 71.2821 1039.61 70.4959 1039.61 69.5845C1039.61 68.0692 1040.25 66.7874 1041.53 65.7393C1042.82 64.6911 1044.46 64.167 1046.45 64.167C1048.55 64.167 1050.24 64.7082 1051.54 65.7905C1052.85 66.8729 1053.51 68.2572 1053.51 69.9434H1050.33C1050.33 69.0775 1049.96 68.3312 1049.22 67.7046C1048.49 67.078 1047.57 66.7646 1046.45 66.7646C1045.3 66.7646 1044.4 67.0153 1043.75 67.5166C1043.1 68.0179 1042.78 68.673 1042.78 69.4819C1042.78 70.2453 1043.08 70.8206 1043.68 71.208C1044.29 71.5954 1045.37 71.9657 1046.95 72.3188C1048.53 72.672 1049.81 73.0936 1050.79 73.5835C1051.77 74.0734 1052.49 74.6659 1052.96 75.3608C1053.44 76.0444 1053.68 76.8818 1053.68 77.873C1053.68 79.5251 1053.02 80.8524 1051.7 81.855C1050.38 82.8462 1048.66 83.3418 1046.55 83.3418C1045.07 83.3418 1043.76 83.0798 1042.62 82.5557C1041.48 82.0316 1040.59 81.3024 1039.94 80.3682C1039.3 79.4225 1038.98 78.4028 1038.98 77.3091H1042.14C1042.2 78.3687 1042.62 79.2118 1043.41 79.8384C1044.21 80.4536 1045.25 80.7612 1046.55 80.7612C1047.75 80.7612 1048.71 80.522 1049.42 80.0435C1050.15 79.5535 1050.52 78.9041 1050.52 78.0952Z" fill="white"/>
</g>
<g id="Ver todas">
<rect id="Rectangle 18" x="613" y="38" width="231" height="68" fill="#0E0101"/>
<path id="recetas" d="M682.331 67.3457C681.852 67.266 681.334 67.2261 680.775 67.2261C678.702 67.2261 677.295 68.109 676.554 69.875V83H673.393V64.5088H676.469L676.52 66.645C677.557 64.993 679.027 64.167 680.929 64.167C681.544 64.167 682.012 64.2467 682.331 64.4062V67.3457ZM692.584 83.3418C690.078 83.3418 688.039 82.5215 686.466 80.8809C684.894 79.2288 684.108 77.0243 684.108 74.2671V73.686C684.108 71.8517 684.455 70.2168 685.15 68.7812C685.857 67.3343 686.837 66.2064 688.09 65.3975C689.354 64.5771 690.722 64.167 692.191 64.167C694.595 64.167 696.464 64.9588 697.797 66.5425C699.13 68.1261 699.796 70.3934 699.796 73.3442V74.6602H687.27C687.315 76.4831 687.845 77.9585 688.859 79.0864C689.884 80.203 691.183 80.7612 692.755 80.7612C693.872 80.7612 694.818 80.5334 695.592 80.0776C696.367 79.6219 697.045 79.0181 697.626 78.2661L699.557 79.77C698.008 82.1512 695.683 83.3418 692.584 83.3418ZM692.191 66.7646C690.915 66.7646 689.844 67.2318 688.979 68.166C688.113 69.0889 687.577 70.3877 687.372 72.0625H696.635V71.8232C696.544 70.2168 696.111 68.9749 695.336 68.0977C694.561 67.209 693.513 66.7646 692.191 66.7646ZM710.888 80.7612C712.016 80.7612 713.001 80.4194 713.844 79.7358C714.687 79.0522 715.154 78.1978 715.246 77.1724H718.236C718.179 78.2319 717.815 79.2402 717.143 80.1973C716.47 81.1543 715.57 81.9176 714.442 82.4873C713.326 83.057 712.141 83.3418 710.888 83.3418C708.37 83.3418 706.365 82.5044 704.872 80.8296C703.391 79.1434 702.65 76.842 702.65 73.9253V73.3955C702.65 71.5954 702.981 69.9946 703.642 68.5933C704.302 67.1919 705.248 66.1038 706.479 65.3291C707.72 64.5544 709.184 64.167 710.871 64.167C712.944 64.167 714.665 64.7879 716.032 66.0298C717.41 67.2716 718.145 68.8838 718.236 70.8662H715.246C715.154 69.6699 714.699 68.6901 713.878 67.9268C713.069 67.152 712.067 66.7646 710.871 66.7646C709.264 66.7646 708.017 67.3457 707.128 68.5078C706.251 69.6585 705.812 71.3276 705.812 73.5151V74.1133C705.812 76.2438 706.251 77.8844 707.128 79.0352C708.005 80.1859 709.258 80.7612 710.888 80.7612ZM729.464 83.3418C726.958 83.3418 724.918 82.5215 723.346 80.8809C721.774 79.2288 720.988 77.0243 720.988 74.2671V73.686C720.988 71.8517 721.335 70.2168 722.03 68.7812C722.737 67.3343 723.716 66.2064 724.97 65.3975C726.234 64.5771 727.602 64.167 729.071 64.167C731.475 64.167 733.344 64.9588 734.677 66.5425C736.01 68.1261 736.676 70.3934 736.676 73.3442V74.6602H724.149C724.195 76.4831 724.725 77.9585 725.739 79.0864C726.764 80.203 728.063 80.7612 729.635 80.7612C730.752 80.7612 731.697 80.5334 732.472 80.0776C733.247 79.6219 733.925 79.0181 734.506 78.2661L736.437 79.77C734.888 82.1512 732.563 83.3418 729.464 83.3418ZM729.071 66.7646C727.795 66.7646 726.724 67.2318 725.858 68.166C724.993 69.0889 724.457 70.3877 724.252 72.0625H733.515V71.8232C733.424 70.2168 732.991 68.9749 732.216 68.0977C731.441 67.209 730.393 66.7646 729.071 66.7646ZM744.64 60.0312V64.5088H748.092V66.9526H744.64V78.4199C744.64 79.1605 744.794 79.7188 745.102 80.0947C745.409 80.4593 745.933 80.6416 746.674 80.6416C747.038 80.6416 747.54 80.5732 748.178 80.4365V83C747.346 83.2279 746.537 83.3418 745.751 83.3418C744.338 83.3418 743.273 82.9146 742.555 82.0601C741.837 81.2056 741.479 79.9922 741.479 78.4199V66.9526H738.112V64.5088H741.479V60.0312H744.64ZM763.217 83C763.035 82.6354 762.886 81.986 762.772 81.0518C761.303 82.5785 759.548 83.3418 757.509 83.3418C755.686 83.3418 754.188 82.8291 753.014 81.8037C751.852 80.7669 751.271 79.4567 751.271 77.873C751.271 75.9476 752 74.4551 753.458 73.3955C754.928 72.3245 756.99 71.7891 759.645 71.7891H762.721V70.3364C762.721 69.2313 762.391 68.354 761.73 67.7046C761.069 67.0438 760.095 66.7134 758.808 66.7134C757.68 66.7134 756.734 66.9982 755.971 67.5679C755.207 68.1375 754.826 68.8268 754.826 69.6357H751.647C751.647 68.7129 751.972 67.8242 752.621 66.9697C753.282 66.1038 754.171 65.4202 755.287 64.9189C756.415 64.4176 757.651 64.167 758.996 64.167C761.126 64.167 762.795 64.7025 764.003 65.7734C765.211 66.833 765.837 68.297 765.883 70.1655V78.6763C765.883 80.3739 766.099 81.724 766.532 82.7266V83H763.217ZM757.97 80.5903C758.961 80.5903 759.901 80.334 760.79 79.8213C761.679 79.3086 762.322 78.6421 762.721 77.8218V74.0278H760.243C756.369 74.0278 754.433 75.1615 754.433 77.4287C754.433 78.4199 754.763 79.1947 755.424 79.7529C756.085 80.3112 756.933 80.5903 757.97 80.5903ZM781.605 78.0952C781.605 77.2407 781.281 76.5799 780.631 76.1128C779.993 75.6343 778.871 75.2241 777.265 74.8823C775.67 74.5405 774.399 74.1304 773.454 73.6519C772.519 73.1733 771.824 72.6037 771.369 71.9429C770.924 71.2821 770.702 70.4959 770.702 69.5845C770.702 68.0692 771.34 66.7874 772.616 65.7393C773.904 64.6911 775.544 64.167 777.538 64.167C779.634 64.167 781.332 64.7082 782.631 65.7905C783.941 66.8729 784.596 68.2572 784.596 69.9434H781.417C781.417 69.0775 781.047 68.3312 780.307 67.7046C779.577 67.078 778.655 66.7646 777.538 66.7646C776.387 66.7646 775.487 67.0153 774.838 67.5166C774.188 68.0179 773.864 68.673 773.864 69.4819C773.864 70.2453 774.166 70.8206 774.77 71.208C775.373 71.5954 776.461 71.9657 778.034 72.3188C779.617 72.672 780.899 73.0936 781.879 73.5835C782.859 74.0734 783.582 74.6659 784.049 75.3608C784.528 76.0444 784.767 76.8818 784.767 77.873C784.767 79.5251 784.106 80.8524 782.785 81.855C781.463 82.8462 779.748 83.3418 777.641 83.3418C776.16 83.3418 774.849 83.0798 773.71 82.5557C772.571 82.0316 771.676 81.3024 771.027 80.3682C770.389 79.4225 770.07 78.4028 770.07 77.3091H773.231C773.288 78.3687 773.71 79.2118 774.496 79.8384C775.294 80.4536 776.342 80.7612 777.641 80.7612C778.837 80.7612 779.794 80.522 780.512 80.0435C781.241 79.5535 781.605 78.9041 781.605 78.0952Z" fill="white"/>
</g>
<g id="Home">
<rect id="Rectangle 19" x="106" y="38" width="231" height="68" fill="#0E0101"/>
<path id="home" d="M182.554 66.7476C183.956 65.0272 185.778 64.167 188.023 64.167C191.931 64.167 193.902 66.3716 193.936 70.7808V83H190.774V70.7637C190.763 69.4307 190.455 68.4451 189.852 67.8071C189.259 67.1691 188.331 66.8501 187.066 66.8501C186.041 66.8501 185.14 67.1235 184.366 67.6704C183.591 68.2173 182.987 68.9351 182.554 69.8237V83H179.393V56.75H182.554V66.7476ZM197.833 73.5835C197.833 71.772 198.186 70.1427 198.892 68.6958C199.61 67.2489 200.601 66.1323 201.866 65.3462C203.142 64.5601 204.594 64.167 206.224 64.167C208.742 64.167 210.775 65.0386 212.325 66.7817C213.886 68.5249 214.666 70.8434 214.666 73.7373V73.9595C214.666 75.7596 214.319 77.3774 213.624 78.813C212.94 80.2371 211.954 81.348 210.667 82.1455C209.391 82.943 207.921 83.3418 206.258 83.3418C203.751 83.3418 201.718 82.4702 200.157 80.7271C198.607 78.9839 197.833 76.6768 197.833 73.8057V73.5835ZM201.011 73.9595C201.011 76.0103 201.484 77.6566 202.43 78.8984C203.387 80.1403 204.663 80.7612 206.258 80.7612C207.864 80.7612 209.14 80.1346 210.086 78.8813C211.032 77.6167 211.504 75.8507 211.504 73.5835C211.504 71.5555 211.02 69.9149 210.052 68.6616C209.095 67.397 207.819 66.7646 206.224 66.7646C204.663 66.7646 203.404 67.3856 202.447 68.6274C201.49 69.8693 201.011 71.6466 201.011 73.9595ZM221.604 64.5088L221.69 66.5596C223.046 64.9645 224.874 64.167 227.176 64.167C229.762 64.167 231.522 65.1582 232.457 67.1406C233.072 66.252 233.869 65.5342 234.849 64.9873C235.84 64.4404 237.008 64.167 238.353 64.167C242.409 64.167 244.471 66.3146 244.539 70.6099V83H241.377V70.7979C241.377 69.4762 241.076 68.4907 240.472 67.8413C239.868 67.1805 238.854 66.8501 237.43 66.8501C236.256 66.8501 235.282 67.2033 234.507 67.9097C233.733 68.6047 233.283 69.5446 233.157 70.7295V83H229.979V70.8833C229.979 68.1945 228.663 66.8501 226.031 66.8501C223.957 66.8501 222.539 67.7331 221.775 69.499V83H218.614V64.5088H221.604ZM256.998 83.3418C254.491 83.3418 252.452 82.5215 250.879 80.8809C249.307 79.2288 248.521 77.0243 248.521 74.2671V73.686C248.521 71.8517 248.868 70.2168 249.563 68.7812C250.27 67.3343 251.25 66.2064 252.503 65.3975C253.768 64.5771 255.135 64.167 256.604 64.167C259.008 64.167 260.877 64.9588 262.21 66.5425C263.543 68.1261 264.209 70.3934 264.209 73.3442V74.6602H251.683C251.728 76.4831 252.258 77.9585 253.272 79.0864C254.297 80.203 255.596 80.7612 257.168 80.7612C258.285 80.7612 259.231 80.5334 260.005 80.0776C260.78 79.6219 261.458 79.0181 262.039 78.2661L263.97 79.77C262.421 82.1512 260.097 83.3418 256.998 83.3418ZM256.604 66.7646C255.328 66.7646 254.257 67.2318 253.392 68.166C252.526 69.0889 251.99 70.3877 251.785 72.0625H261.048V71.8232C260.957 70.2168 260.524 68.9749 259.749 68.0977C258.974 67.209 257.926 66.7646 256.604 66.7646Z" fill="white"/>
</g>
</g>
<g id="Orden">
<rect id="Rectangle 36" x="1124" y="240" width="231" height="68" fill="#0E0101"/>
<path id="orden" d="M1196.56 275.583C1196.56 273.772 1196.91 272.143 1197.61 270.696C1198.33 269.249 1199.32 268.132 1200.59 267.346C1201.86 266.56 1203.32 266.167 1204.95 266.167C1207.46 266.167 1209.5 267.039 1211.05 268.782C1212.61 270.525 1213.39 272.843 1213.39 275.737V275.959C1213.39 277.76 1213.04 279.377 1212.35 280.813C1211.66 282.237 1210.68 283.348 1209.39 284.146C1208.11 284.943 1206.64 285.342 1204.98 285.342C1202.47 285.342 1200.44 284.47 1198.88 282.727C1197.33 280.984 1196.56 278.677 1196.56 275.806V275.583ZM1199.73 275.959C1199.73 278.01 1200.21 279.657 1201.15 280.898C1202.11 282.14 1203.39 282.761 1204.98 282.761C1206.59 282.761 1207.86 282.135 1208.81 280.881C1209.75 279.617 1210.23 277.851 1210.23 275.583C1210.23 273.556 1209.74 271.915 1208.77 270.662C1207.82 269.397 1206.54 268.765 1204.95 268.765C1203.39 268.765 1202.13 269.386 1201.17 270.627C1200.21 271.869 1199.73 273.647 1199.73 275.959ZM1226.29 269.346C1225.81 269.266 1225.29 269.226 1224.74 269.226C1222.66 269.226 1221.26 270.109 1220.52 271.875V285H1217.35V266.509H1220.43L1220.48 268.645C1221.52 266.993 1222.99 266.167 1224.89 266.167C1225.51 266.167 1225.97 266.247 1226.29 266.406V269.346ZM1228.1 275.601C1228.1 272.764 1228.78 270.485 1230.12 268.765C1231.46 267.033 1233.22 266.167 1235.4 266.167C1237.57 266.167 1239.28 266.908 1240.54 268.389V258.75H1243.71V285H1240.8L1240.65 283.018C1239.38 284.567 1237.62 285.342 1235.37 285.342C1233.22 285.342 1231.48 284.465 1230.12 282.71C1228.78 280.955 1228.1 278.665 1228.1 275.84V275.601ZM1231.26 275.959C1231.26 278.056 1231.7 279.696 1232.56 280.881C1233.43 282.066 1234.63 282.659 1236.15 282.659C1238.16 282.659 1239.62 281.759 1240.54 279.958V271.465C1239.6 269.722 1238.15 268.85 1236.19 268.85C1234.64 268.85 1233.43 269.448 1232.56 270.645C1231.7 271.841 1231.26 273.612 1231.26 275.959ZM1256.3 285.342C1253.79 285.342 1251.76 284.521 1250.18 282.881C1248.61 281.229 1247.82 279.024 1247.82 276.267V275.686C1247.82 273.852 1248.17 272.217 1248.87 270.781C1249.57 269.334 1250.55 268.206 1251.81 267.397C1253.07 266.577 1254.44 266.167 1255.91 266.167C1258.31 266.167 1260.18 266.959 1261.51 268.542C1262.85 270.126 1263.51 272.393 1263.51 275.344V276.66H1250.99C1251.03 278.483 1251.56 279.958 1252.58 281.086C1253.6 282.203 1254.9 282.761 1256.47 282.761C1257.59 282.761 1258.53 282.533 1259.31 282.078C1260.08 281.622 1260.76 281.018 1261.34 280.266L1263.27 281.77C1261.72 284.151 1259.4 285.342 1256.3 285.342ZM1255.91 268.765C1254.63 268.765 1253.56 269.232 1252.7 270.166C1251.83 271.089 1251.29 272.388 1251.09 274.062H1260.35V273.823C1260.26 272.217 1259.83 270.975 1259.05 270.098C1258.28 269.209 1257.23 268.765 1255.91 268.765ZM1270.18 266.509L1270.28 268.833C1271.69 267.056 1273.54 266.167 1275.82 266.167C1279.73 266.167 1281.7 268.372 1281.73 272.781V285H1278.57V272.764C1278.56 271.431 1278.25 270.445 1277.65 269.807C1277.05 269.169 1276.13 268.85 1274.86 268.85C1273.84 268.85 1272.94 269.124 1272.16 269.67C1271.39 270.217 1270.78 270.935 1270.35 271.824V285H1267.19V266.509H1270.18Z" fill="white"/>
</g>
<g id="Item">
<rect id="Rectangle 5" x="99" y="441" width="253" height="227" fill="#0E0101"/>
<g id="Group 22">
<rect id="Rectangle 11" x="99" y="682" width="255" height="68" fill="#0E0101"/>
<path id="titulo" d="M126.682 705.031V709.509H130.134V711.953H126.682V723.42C126.682 724.16 126.836 724.719 127.144 725.095C127.451 725.459 127.975 725.642 128.716 725.642C129.08 725.642 129.582 725.573 130.22 725.437V728C129.388 728.228 128.579 728.342 127.793 728.342C126.38 728.342 125.315 727.915 124.597 727.06C123.879 726.206 123.521 724.992 123.521 723.42V711.953H120.154V709.509H123.521V705.031H126.682ZM137.278 728H134.116V709.509H137.278V728ZM133.86 704.604C133.86 704.091 134.014 703.658 134.321 703.305C134.64 702.952 135.107 702.775 135.723 702.775C136.338 702.775 136.805 702.952 137.124 703.305C137.443 703.658 137.603 704.091 137.603 704.604C137.603 705.117 137.443 705.544 137.124 705.886C136.805 706.228 136.338 706.398 135.723 706.398C135.107 706.398 134.64 706.228 134.321 705.886C134.014 705.544 133.86 705.117 133.86 704.604ZM146.643 705.031V709.509H150.095V711.953H146.643V723.42C146.643 724.16 146.797 724.719 147.104 725.095C147.412 725.459 147.936 725.642 148.677 725.642C149.041 725.642 149.543 725.573 150.181 725.437V728C149.349 728.228 148.54 728.342 147.754 728.342C146.341 728.342 145.276 727.915 144.558 727.06C143.84 726.206 143.481 724.992 143.481 723.42V711.953H140.115V709.509H143.481V705.031H146.643ZM165.22 726.171C163.989 727.618 162.183 728.342 159.802 728.342C157.831 728.342 156.327 727.772 155.291 726.633C154.265 725.482 153.747 723.785 153.735 721.54V709.509H156.897V721.455C156.897 724.257 158.036 725.659 160.315 725.659C162.73 725.659 164.337 724.759 165.134 722.958V709.509H168.296V728H165.288L165.22 726.171ZM176.55 728H173.389V701.75H176.55V728ZM180.789 718.583C180.789 716.772 181.142 715.143 181.848 713.696C182.566 712.249 183.557 711.132 184.822 710.346C186.098 709.56 187.55 709.167 189.18 709.167C191.698 709.167 193.731 710.039 195.281 711.782C196.842 713.525 197.622 715.843 197.622 718.737V718.959C197.622 720.76 197.275 722.377 196.58 723.813C195.896 725.237 194.91 726.348 193.623 727.146C192.347 727.943 190.877 728.342 189.214 728.342C186.707 728.342 184.674 727.47 183.113 725.727C181.563 723.984 180.789 721.677 180.789 718.806V718.583ZM183.967 718.959C183.967 721.01 184.44 722.657 185.386 723.898C186.343 725.14 187.619 725.761 189.214 725.761C190.82 725.761 192.096 725.135 193.042 723.881C193.988 722.617 194.46 720.851 194.46 718.583C194.46 716.556 193.976 714.915 193.008 713.662C192.051 712.397 190.775 711.765 189.18 711.765C187.619 711.765 186.36 712.386 185.403 713.627C184.446 714.869 183.967 716.647 183.967 718.959Z" fill="white"/>
</g>
</g>
<g id="Item_2">
<rect id="Rectangle 6" x="428" y="441" width="253" height="227" fill="#0E0101"/>
<g id="Group 23">
<rect id="Rectangle 12" x="428" y="682" width="255" height="68" fill="#0E0101"/>
<path id="titulo_2" d="M455.682 705.031V709.509H459.134V711.953H455.682V723.42C455.682 724.16 455.836 724.719 456.144 725.095C456.451 725.459 456.975 725.642 457.716 725.642C458.08 725.642 458.582 725.573 459.22 725.437V728C458.388 728.228 457.579 728.342 456.793 728.342C455.38 728.342 454.315 727.915 453.597 727.06C452.879 726.206 452.521 724.992 452.521 723.42V711.953H449.154V709.509H452.521V705.031H455.682ZM466.278 728H463.116V709.509H466.278V728ZM462.86 704.604C462.86 704.091 463.014 703.658 463.321 703.305C463.64 702.952 464.107 702.775 464.723 702.775C465.338 702.775 465.805 702.952 466.124 703.305C466.443 703.658 466.603 704.091 466.603 704.604C466.603 705.117 466.443 705.544 466.124 705.886C465.805 706.228 465.338 706.398 464.723 706.398C464.107 706.398 463.64 706.228 463.321 705.886C463.014 705.544 462.86 705.117 462.86 704.604ZM475.643 705.031V709.509H479.095V711.953H475.643V723.42C475.643 724.16 475.797 724.719 476.104 725.095C476.412 725.459 476.936 725.642 477.677 725.642C478.041 725.642 478.543 725.573 479.181 725.437V728C478.349 728.228 477.54 728.342 476.754 728.342C475.341 728.342 474.276 727.915 473.558 727.06C472.84 726.206 472.481 724.992 472.481 723.42V711.953H469.115V709.509H472.481V705.031H475.643ZM494.22 726.171C492.989 727.618 491.183 728.342 488.802 728.342C486.831 728.342 485.327 727.772 484.291 726.633C483.265 725.482 482.747 723.785 482.735 721.54V709.509H485.897V721.455C485.897 724.257 487.036 725.659 489.315 725.659C491.73 725.659 493.337 724.759 494.134 722.958V709.509H497.296V728H494.288L494.22 726.171ZM505.55 728H502.389V701.75H505.55V728ZM509.789 718.583C509.789 716.772 510.142 715.143 510.848 713.696C511.566 712.249 512.557 711.132 513.822 710.346C515.098 709.56 516.55 709.167 518.18 709.167C520.698 709.167 522.731 710.039 524.281 711.782C525.842 713.525 526.622 715.843 526.622 718.737V718.959C526.622 720.76 526.275 722.377 525.58 723.813C524.896 725.237 523.91 726.348 522.623 727.146C521.347 727.943 519.877 728.342 518.214 728.342C515.707 728.342 513.674 727.47 512.113 725.727C510.563 723.984 509.789 721.677 509.789 718.806V718.583ZM512.967 718.959C512.967 721.01 513.44 722.657 514.386 723.898C515.343 725.14 516.619 725.761 518.214 725.761C519.82 725.761 521.096 725.135 522.042 723.881C522.988 722.617 523.46 720.851 523.46 718.583C523.46 716.556 522.976 714.915 522.008 713.662C521.051 712.397 519.775 711.765 518.18 711.765C516.619 711.765 515.36 712.386 514.403 713.627C513.446 714.869 512.967 716.647 512.967 718.959Z" fill="white"/>
</g>
</g>
<g id="Item_3">
<rect id="Rectangle 7" x="757" y="441" width="253" height="227" fill="#0E0101"/>
<g id="Group 24">
<rect id="Rectangle 13" x="757" y="682" width="255" height="68" fill="#0E0101"/>
<path id="titulo_3" d="M784.682 705.031V709.509H788.134V711.953H784.682V723.42C784.682 724.16 784.836 724.719 785.144 725.095C785.451 725.459 785.975 725.642 786.716 725.642C787.08 725.642 787.582 725.573 788.22 725.437V728C787.388 728.228 786.579 728.342 785.793 728.342C784.38 728.342 783.315 727.915 782.597 727.06C781.879 726.206 781.521 724.992 781.521 723.42V711.953H778.154V709.509H781.521V705.031H784.682ZM795.278 728H792.116V709.509H795.278V728ZM791.86 704.604C791.86 704.091 792.014 703.658 792.321 703.305C792.64 702.952 793.107 702.775 793.723 702.775C794.338 702.775 794.805 702.952 795.124 703.305C795.443 703.658 795.603 704.091 795.603 704.604C795.603 705.117 795.443 705.544 795.124 705.886C794.805 706.228 794.338 706.398 793.723 706.398C793.107 706.398 792.64 706.228 792.321 705.886C792.014 705.544 791.86 705.117 791.86 704.604ZM804.643 705.031V709.509H808.095V711.953H804.643V723.42C804.643 724.16 804.797 724.719 805.104 725.095C805.412 725.459 805.936 725.642 806.677 725.642C807.041 725.642 807.543 725.573 808.181 725.437V728C807.349 728.228 806.54 728.342 805.754 728.342C804.341 728.342 803.276 727.915 802.558 727.06C801.84 726.206 801.481 724.992 801.481 723.42V711.953H798.115V709.509H801.481V705.031H804.643ZM823.22 726.171C821.989 727.618 820.183 728.342 817.802 728.342C815.831 728.342 814.327 727.772 813.291 726.633C812.265 725.482 811.747 723.785 811.735 721.54V709.509H814.897V721.455C814.897 724.257 816.036 725.659 818.315 725.659C820.73 725.659 822.337 724.759 823.134 722.958V709.509H826.296V728H823.288L823.22 726.171ZM834.55 728H831.389V701.75H834.55V728ZM838.789 718.583C838.789 716.772 839.142 715.143 839.848 713.696C840.566 712.249 841.557 711.132 842.822 710.346C844.098 709.56 845.55 709.167 847.18 709.167C849.698 709.167 851.731 710.039 853.281 711.782C854.842 713.525 855.622 715.843 855.622 718.737V718.959C855.622 720.76 855.275 722.377 854.58 723.813C853.896 725.237 852.91 726.348 851.623 727.146C850.347 727.943 848.877 728.342 847.214 728.342C844.707 728.342 842.674 727.47 841.113 725.727C839.563 723.984 838.789 721.677 838.789 718.806V718.583ZM841.967 718.959C841.967 721.01 842.44 722.657 843.386 723.898C844.343 725.14 845.619 725.761 847.214 725.761C848.82 725.761 850.096 725.135 851.042 723.881C851.988 722.617 852.46 720.851 852.46 718.583C852.46 716.556 851.976 714.915 851.008 713.662C850.051 712.397 848.775 711.765 847.18 711.765C845.619 711.765 844.36 712.386 843.403 713.627C842.446 714.869 841.967 716.647 841.967 718.959Z" fill="white"/>
</g>
</g>
<g id="Item_4">
<rect id="Rectangle 9" x="1086" y="441" width="253" height="227" fill="#0E0101"/>
<g id="Group 25">
<rect id="Rectangle 14" x="1086" y="682" width="255" height="68" fill="#0E0101"/>
<path id="titulo_4" d="M1113.68 705.031V709.509H1117.13V711.953H1113.68V723.42C1113.68 724.16 1113.84 724.719 1114.14 725.095C1114.45 725.459 1114.98 725.642 1115.72 725.642C1116.08 725.642 1116.58 725.573 1117.22 725.437V728C1116.39 728.228 1115.58 728.342 1114.79 728.342C1113.38 728.342 1112.31 727.915 1111.6 727.06C1110.88 726.206 1110.52 724.992 1110.52 723.42V711.953H1107.15V709.509H1110.52V705.031H1113.68ZM1124.28 728H1121.12V709.509H1124.28V728ZM1120.86 704.604C1120.86 704.091 1121.01 703.658 1121.32 703.305C1121.64 702.952 1122.11 702.775 1122.72 702.775C1123.34 702.775 1123.81 702.952 1124.12 703.305C1124.44 703.658 1124.6 704.091 1124.6 704.604C1124.6 705.117 1124.44 705.544 1124.12 705.886C1123.81 706.228 1123.34 706.398 1122.72 706.398C1122.11 706.398 1121.64 706.228 1121.32 705.886C1121.01 705.544 1120.86 705.117 1120.86 704.604ZM1133.64 705.031V709.509H1137.1V711.953H1133.64V723.42C1133.64 724.16 1133.8 724.719 1134.1 725.095C1134.41 725.459 1134.94 725.642 1135.68 725.642C1136.04 725.642 1136.54 725.573 1137.18 725.437V728C1136.35 728.228 1135.54 728.342 1134.75 728.342C1133.34 728.342 1132.28 727.915 1131.56 727.06C1130.84 726.206 1130.48 724.992 1130.48 723.42V711.953H1127.11V709.509H1130.48V705.031H1133.64ZM1152.22 726.171C1150.99 727.618 1149.18 728.342 1146.8 728.342C1144.83 728.342 1143.33 727.772 1142.29 726.633C1141.27 725.482 1140.75 723.785 1140.74 721.54V709.509H1143.9V721.455C1143.9 724.257 1145.04 725.659 1147.31 725.659C1149.73 725.659 1151.34 724.759 1152.13 722.958V709.509H1155.3V728H1152.29L1152.22 726.171ZM1163.55 728H1160.39V701.75H1163.55V728ZM1167.79 718.583C1167.79 716.772 1168.14 715.143 1168.85 713.696C1169.57 712.249 1170.56 711.132 1171.82 710.346C1173.1 709.56 1174.55 709.167 1176.18 709.167C1178.7 709.167 1180.73 710.039 1182.28 711.782C1183.84 713.525 1184.62 715.843 1184.62 718.737V718.959C1184.62 720.76 1184.27 722.377 1183.58 723.813C1182.9 725.237 1181.91 726.348 1180.62 727.146C1179.35 727.943 1177.88 728.342 1176.21 728.342C1173.71 728.342 1171.67 727.47 1170.11 725.727C1168.56 723.984 1167.79 721.677 1167.79 718.806V718.583ZM1170.97 718.959C1170.97 721.01 1171.44 722.657 1172.39 723.898C1173.34 725.14 1174.62 725.761 1176.21 725.761C1177.82 725.761 1179.1 725.135 1180.04 723.881C1180.99 722.617 1181.46 720.851 1181.46 718.583C1181.46 716.556 1180.98 714.915 1180.01 713.662C1179.05 712.397 1177.77 711.765 1176.18 711.765C1174.62 711.765 1173.36 712.386 1172.4 713.627C1171.45 714.869 1170.97 716.647 1170.97 718.959Z" fill="white"/>
</g>
</g>
<g id="Item_5">
<rect id="Rectangle 20" x="99" y="804" width="253" height="227" fill="#0E0101"/>
<g id="Group 26">
<rect id="Rectangle 24" x="99" y="1045" width="255" height="68" fill="#0E0101"/>
<path id="titulo_5" d="M126.682 1068.03V1072.51H130.134V1074.95H126.682V1086.42C126.682 1087.16 126.836 1087.72 127.144 1088.09C127.451 1088.46 127.975 1088.64 128.716 1088.64C129.08 1088.64 129.582 1088.57 130.22 1088.44V1091C129.388 1091.23 128.579 1091.34 127.793 1091.34C126.38 1091.34 125.315 1090.91 124.597 1090.06C123.879 1089.21 123.521 1087.99 123.521 1086.42V1074.95H120.154V1072.51H123.521V1068.03H126.682ZM137.278 1091H134.116V1072.51H137.278V1091ZM133.86 1067.6C133.86 1067.09 134.014 1066.66 134.321 1066.31C134.64 1065.95 135.107 1065.78 135.723 1065.78C136.338 1065.78 136.805 1065.95 137.124 1066.31C137.443 1066.66 137.603 1067.09 137.603 1067.6C137.603 1068.12 137.443 1068.54 137.124 1068.89C136.805 1069.23 136.338 1069.4 135.723 1069.4C135.107 1069.4 134.64 1069.23 134.321 1068.89C134.014 1068.54 133.86 1068.12 133.86 1067.6ZM146.643 1068.03V1072.51H150.095V1074.95H146.643V1086.42C146.643 1087.16 146.797 1087.72 147.104 1088.09C147.412 1088.46 147.936 1088.64 148.677 1088.64C149.041 1088.64 149.543 1088.57 150.181 1088.44V1091C149.349 1091.23 148.54 1091.34 147.754 1091.34C146.341 1091.34 145.276 1090.91 144.558 1090.06C143.84 1089.21 143.481 1087.99 143.481 1086.42V1074.95H140.115V1072.51H143.481V1068.03H146.643ZM165.22 1089.17C163.989 1090.62 162.183 1091.34 159.802 1091.34C157.831 1091.34 156.327 1090.77 155.291 1089.63C154.265 1088.48 153.747 1086.78 153.735 1084.54V1072.51H156.897V1084.45C156.897 1087.26 158.036 1088.66 160.315 1088.66C162.73 1088.66 164.337 1087.76 165.134 1085.96V1072.51H168.296V1091H165.288L165.22 1089.17ZM176.55 1091H173.389V1064.75H176.55V1091ZM180.789 1081.58C180.789 1079.77 181.142 1078.14 181.848 1076.7C182.566 1075.25 183.557 1074.13 184.822 1073.35C186.098 1072.56 187.55 1072.17 189.18 1072.17C191.698 1072.17 193.731 1073.04 195.281 1074.78C196.842 1076.52 197.622 1078.84 197.622 1081.74V1081.96C197.622 1083.76 197.275 1085.38 196.58 1086.81C195.896 1088.24 194.91 1089.35 193.623 1090.15C192.347 1090.94 190.877 1091.34 189.214 1091.34C186.707 1091.34 184.674 1090.47 183.113 1088.73C181.563 1086.98 180.789 1084.68 180.789 1081.81V1081.58ZM183.967 1081.96C183.967 1084.01 184.44 1085.66 185.386 1086.9C186.343 1088.14 187.619 1088.76 189.214 1088.76C190.82 1088.76 192.096 1088.13 193.042 1086.88C193.988 1085.62 194.46 1083.85 194.46 1081.58C194.46 1079.56 193.976 1077.91 193.008 1076.66C192.051 1075.4 190.775 1074.76 189.18 1074.76C187.619 1074.76 186.36 1075.39 185.403 1076.63C184.446 1077.87 183.967 1079.65 183.967 1081.96Z" fill="white"/>
</g>
</g>
<g id="Item_6">
<rect id="Rectangle 21" x="428" y="804" width="253" height="227" fill="#0E0101"/>
<g id="Group 27">
<rect id="Rectangle 25" x="428" y="1045" width="255" height="68" fill="#0E0101"/>
<path id="titulo_6" d="M455.682 1068.03V1072.51H459.134V1074.95H455.682V1086.42C455.682 1087.16 455.836 1087.72 456.144 1088.09C456.451 1088.46 456.975 1088.64 457.716 1088.64C458.08 1088.64 458.582 1088.57 459.22 1088.44V1091C458.388 1091.23 457.579 1091.34 456.793 1091.34C455.38 1091.34 454.315 1090.91 453.597 1090.06C452.879 1089.21 452.521 1087.99 452.521 1086.42V1074.95H449.154V1072.51H452.521V1068.03H455.682ZM466.278 1091H463.116V1072.51H466.278V1091ZM462.86 1067.6C462.86 1067.09 463.014 1066.66 463.321 1066.31C463.64 1065.95 464.107 1065.78 464.723 1065.78C465.338 1065.78 465.805 1065.95 466.124 1066.31C466.443 1066.66 466.603 1067.09 466.603 1067.6C466.603 1068.12 466.443 1068.54 466.124 1068.89C465.805 1069.23 465.338 1069.4 464.723 1069.4C464.107 1069.4 463.64 1069.23 463.321 1068.89C463.014 1068.54 462.86 1068.12 462.86 1067.6ZM475.643 1068.03V1072.51H479.095V1074.95H475.643V1086.42C475.643 1087.16 475.797 1087.72 476.104 1088.09C476.412 1088.46 476.936 1088.64 477.677 1088.64C478.041 1088.64 478.543 1088.57 479.181 1088.44V1091C478.349 1091.23 477.54 1091.34 476.754 1091.34C475.341 1091.34 474.276 1090.91 473.558 1090.06C472.84 1089.21 472.481 1087.99 472.481 1086.42V1074.95H469.115V1072.51H472.481V1068.03H475.643ZM494.22 1089.17C492.989 1090.62 491.183 1091.34 488.802 1091.34C486.831 1091.34 485.327 1090.77 484.291 1089.63C483.265 1088.48 482.747 1086.78 482.735 1084.54V1072.51H485.897V1084.45C485.897 1087.26 487.036 1088.66 489.315 1088.66C491.73 1088.66 493.337 1087.76 494.134 1085.96V1072.51H497.296V1091H494.288L494.22 1089.17ZM505.55 1091H502.389V1064.75H505.55V1091ZM509.789 1081.58C509.789 1079.77 510.142 1078.14 510.848 1076.7C511.566 1075.25 512.557 1074.13 513.822 1073.35C515.098 1072.56 516.55 1072.17 518.18 1072.17C520.698 1072.17 522.731 1073.04 524.281 1074.78C525.842 1076.52 526.622 1078.84 526.622 1081.74V1081.96C526.622 1083.76 526.275 1085.38 525.58 1086.81C524.896 1088.24 523.91 1089.35 522.623 1090.15C521.347 1090.94 519.877 1091.34 518.214 1091.34C515.707 1091.34 513.674 1090.47 512.113 1088.73C510.563 1086.98 509.789 1084.68 509.789 1081.81V1081.58ZM512.967 1081.96C512.967 1084.01 513.44 1085.66 514.386 1086.9C515.343 1088.14 516.619 1088.76 518.214 1088.76C519.82 1088.76 521.096 1088.13 522.042 1086.88C522.988 1085.62 523.46 1083.85 523.46 1081.58C523.46 1079.56 522.976 1077.91 522.008 1076.66C521.051 1075.4 519.775 1074.76 518.18 1074.76C516.619 1074.76 515.36 1075.39 514.403 1076.63C513.446 1077.87 512.967 1079.65 512.967 1081.96Z" fill="white"/>
</g>
</g>
<g id="Item_7">
<rect id="Rectangle 22" x="758" y="804" width="253" height="227" fill="#0E0101"/>
<g id="Group 28">
<rect id="Rectangle 26" x="757" y="1045" width="255" height="68" fill="#0E0101"/>
<path id="titulo_7" d="M784.682 1068.03V1072.51H788.134V1074.95H784.682V1086.42C784.682 1087.16 784.836 1087.72 785.144 1088.09C785.451 1088.46 785.975 1088.64 786.716 1088.64C787.08 1088.64 787.582 1088.57 788.22 1088.44V1091C787.388 1091.23 786.579 1091.34 785.793 1091.34C784.38 1091.34 783.315 1090.91 782.597 1090.06C781.879 1089.21 781.521 1087.99 781.521 1086.42V1074.95H778.154V1072.51H781.521V1068.03H784.682ZM795.278 1091H792.116V1072.51H795.278V1091ZM791.86 1067.6C791.86 1067.09 792.014 1066.66 792.321 1066.31C792.64 1065.95 793.107 1065.78 793.723 1065.78C794.338 1065.78 794.805 1065.95 795.124 1066.31C795.443 1066.66 795.603 1067.09 795.603 1067.6C795.603 1068.12 795.443 1068.54 795.124 1068.89C794.805 1069.23 794.338 1069.4 793.723 1069.4C793.107 1069.4 792.64 1069.23 792.321 1068.89C792.014 1068.54 791.86 1068.12 791.86 1067.6ZM804.643 1068.03V1072.51H808.095V1074.95H804.643V1086.42C804.643 1087.16 804.797 1087.72 805.104 1088.09C805.412 1088.46 805.936 1088.64 806.677 1088.64C807.041 1088.64 807.543 1088.57 808.181 1088.44V1091C807.349 1091.23 806.54 1091.34 805.754 1091.34C804.341 1091.34 803.276 1090.91 802.558 1090.06C801.84 1089.21 801.481 1087.99 801.481 1086.42V1074.95H798.115V1072.51H801.481V1068.03H804.643ZM823.22 1089.17C821.989 1090.62 820.183 1091.34 817.802 1091.34C815.831 1091.34 814.327 1090.77 813.291 1089.63C812.265 1088.48 811.747 1086.78 811.735 1084.54V1072.51H814.897V1084.45C814.897 1087.26 816.036 1088.66 818.315 1088.66C820.73 1088.66 822.337 1087.76 823.134 1085.96V1072.51H826.296V1091H823.288L823.22 1089.17ZM834.55 1091H831.389V1064.75H834.55V1091ZM838.789 1081.58C838.789 1079.77 839.142 1078.14 839.848 1076.7C840.566 1075.25 841.557 1074.13 842.822 1073.35C844.098 1072.56 845.55 1072.17 847.18 1072.17C849.698 1072.17 851.731 1073.04 853.281 1074.78C854.842 1076.52 855.622 1078.84 855.622 1081.74V1081.96C855.622 1083.76 855.275 1085.38 854.58 1086.81C853.896 1088.24 852.91 1089.35 851.623 1090.15C850.347 1090.94 848.877 1091.34 847.214 1091.34C844.707 1091.34 842.674 1090.47 841.113 1088.73C839.563 1086.98 838.789 1084.68 838.789 1081.81V1081.58ZM841.967 1081.96C841.967 1084.01 842.44 1085.66 843.386 1086.9C844.343 1088.14 845.619 1088.76 847.214 1088.76C848.82 1088.76 850.096 1088.13 851.042 1086.88C851.988 1085.62 852.46 1083.85 852.46 1081.58C852.46 1079.56 851.976 1077.91 851.008 1076.66C850.051 1075.4 848.775 1074.76 847.18 1074.76C845.619 1074.76 844.36 1075.39 843.403 1076.63C842.446 1077.87 841.967 1079.65 841.967 1081.96Z" fill="white"/>
</g>
</g>
<g id="Item_8">
<rect id="Rectangle 23" x="1086" y="804" width="253" height="227" fill="#0E0101"/>
<g id="Group 29">
<rect id="Rectangle 27" x="1086" y="1045" width="255" height="68" fill="#0E0101"/>
<path id="titulo_8" d="M1113.68 1068.03V1072.51H1117.13V1074.95H1113.68V1086.42C1113.68 1087.16 1113.84 1087.72 1114.14 1088.09C1114.45 1088.46 1114.98 1088.64 1115.72 1088.64C1116.08 1088.64 1116.58 1088.57 1117.22 1088.44V1091C1116.39 1091.23 1115.58 1091.34 1114.79 1091.34C1113.38 1091.34 1112.31 1090.91 1111.6 1090.06C1110.88 1089.21 1110.52 1087.99 1110.52 1086.42V1074.95H1107.15V1072.51H1110.52V1068.03H1113.68ZM1124.28 1091H1121.12V1072.51H1124.28V1091ZM1120.86 1067.6C1120.86 1067.09 1121.01 1066.66 1121.32 1066.31C1121.64 1065.95 1122.11 1065.78 1122.72 1065.78C1123.34 1065.78 1123.81 1065.95 1124.12 1066.31C1124.44 1066.66 1124.6 1067.09 1124.6 1067.6C1124.6 1068.12 1124.44 1068.54 1124.12 1068.89C1123.81 1069.23 1123.34 1069.4 1122.72 1069.4C1122.11 1069.4 1121.64 1069.23 1121.32 1068.89C1121.01 1068.54 1120.86 1068.12 1120.86 1067.6ZM1133.64 1068.03V1072.51H1137.1V1074.95H1133.64V1086.42C1133.64 1087.16 1133.8 1087.72 1134.1 1088.09C1134.41 1088.46 1134.94 1088.64 1135.68 1088.64C1136.04 1088.64 1136.54 1088.57 1137.18 1088.44V1091C1136.35 1091.23 1135.54 1091.34 1134.75 1091.34C1133.34 1091.34 1132.28 1090.91 1131.56 1090.06C1130.84 1089.21 1130.48 1087.99 1130.48 1086.42V1074.95H1127.11V1072.51H1130.48V1068.03H1133.64ZM1152.22 1089.17C1150.99 1090.62 1149.18 1091.34 1146.8 1091.34C1144.83 1091.34 1143.33 1090.77 1142.29 1089.63C1141.27 1088.48 1140.75 1086.78 1140.74 1084.54V1072.51H1143.9V1084.45C1143.9 1087.26 1145.04 1088.66 1147.31 1088.66C1149.73 1088.66 1151.34 1087.76 1152.13 1085.96V1072.51H1155.3V1091H1152.29L1152.22 1089.17ZM1163.55 1091H1160.39V1064.75H1163.55V1091ZM1167.79 1081.58C1167.79 1079.77 1168.14 1078.14 1168.85 1076.7C1169.57 1075.25 1170.56 1074.13 1171.82 1073.35C1173.1 1072.56 1174.55 1072.17 1176.18 1072.17C1178.7 1072.17 1180.73 1073.04 1182.28 1074.78C1183.84 1076.52 1184.62 1078.84 1184.62 1081.74V1081.96C1184.62 1083.76 1184.27 1085.38 1183.58 1086.81C1182.9 1088.24 1181.91 1089.35 1180.62 1090.15C1179.35 1090.94 1177.88 1091.34 1176.21 1091.34C1173.71 1091.34 1171.67 1090.47 1170.11 1088.73C1168.56 1086.98 1167.79 1084.68 1167.79 1081.81V1081.58ZM1170.97 1081.96C1170.97 1084.01 1171.44 1085.66 1172.39 1086.9C1173.34 1088.14 1174.62 1088.76 1176.21 1088.76C1177.82 1088.76 1179.1 1088.13 1180.04 1086.88C1180.99 1085.62 1181.46 1083.85 1181.46 1081.58C1181.46 1079.56 1180.98 1077.91 1180.01 1076.66C1179.05 1075.4 1177.77 1074.76 1176.18 1074.76C1174.62 1074.76 1173.36 1075.39 1172.4 1076.63C1171.45 1077.87 1170.97 1079.65 1170.97 1081.96Z" fill="white"/>
</g>
</g>
<g id="Item_9">
<rect id="Rectangle 28" x="99" y="1177" width="253" height="227" fill="#0E0101"/>
<g id="Group 30">
<rect id="Rectangle 32" x="99" y="1418" width="255" height="68" fill="#0E0101"/>
<path id="titulo_9" d="M126.682 1441.03V1445.51H130.134V1447.95H126.682V1459.42C126.682 1460.16 126.836 1460.72 127.144 1461.09C127.451 1461.46 127.975 1461.64 128.716 1461.64C129.08 1461.64 129.582 1461.57 130.22 1461.44V1464C129.388 1464.23 128.579 1464.34 127.793 1464.34C126.38 1464.34 125.315 1463.91 124.597 1463.06C123.879 1462.21 123.521 1460.99 123.521 1459.42V1447.95H120.154V1445.51H123.521V1441.03H126.682ZM137.278 1464H134.116V1445.51H137.278V1464ZM133.86 1440.6C133.86 1440.09 134.014 1439.66 134.321 1439.31C134.64 1438.95 135.107 1438.78 135.723 1438.78C136.338 1438.78 136.805 1438.95 137.124 1439.31C137.443 1439.66 137.603 1440.09 137.603 1440.6C137.603 1441.12 137.443 1441.54 137.124 1441.89C136.805 1442.23 136.338 1442.4 135.723 1442.4C135.107 1442.4 134.64 1442.23 134.321 1441.89C134.014 1441.54 133.86 1441.12 133.86 1440.6ZM146.643 1441.03V1445.51H150.095V1447.95H146.643V1459.42C146.643 1460.16 146.797 1460.72 147.104 1461.09C147.412 1461.46 147.936 1461.64 148.677 1461.64C149.041 1461.64 149.543 1461.57 150.181 1461.44V1464C149.349 1464.23 148.54 1464.34 147.754 1464.34C146.341 1464.34 145.276 1463.91 144.558 1463.06C143.84 1462.21 143.481 1460.99 143.481 1459.42V1447.95H140.115V1445.51H143.481V1441.03H146.643ZM165.22 1462.17C163.989 1463.62 162.183 1464.34 159.802 1464.34C157.831 1464.34 156.327 1463.77 155.291 1462.63C154.265 1461.48 153.747 1459.78 153.735 1457.54V1445.51H156.897V1457.45C156.897 1460.26 158.036 1461.66 160.315 1461.66C162.73 1461.66 164.337 1460.76 165.134 1458.96V1445.51H168.296V1464H165.288L165.22 1462.17ZM176.55 1464H173.389V1437.75H176.55V1464ZM180.789 1454.58C180.789 1452.77 181.142 1451.14 181.848 1449.7C182.566 1448.25 183.557 1447.13 184.822 1446.35C186.098 1445.56 187.55 1445.17 189.18 1445.17C191.698 1445.17 193.731 1446.04 195.281 1447.78C196.842 1449.52 197.622 1451.84 197.622 1454.74V1454.96C197.622 1456.76 197.275 1458.38 196.58 1459.81C195.896 1461.24 194.91 1462.35 193.623 1463.15C192.347 1463.94 190.877 1464.34 189.214 1464.34C186.707 1464.34 184.674 1463.47 183.113 1461.73C181.563 1459.98 180.789 1457.68 180.789 1454.81V1454.58ZM183.967 1454.96C183.967 1457.01 184.44 1458.66 185.386 1459.9C186.343 1461.14 187.619 1461.76 189.214 1461.76C190.82 1461.76 192.096 1461.13 193.042 1459.88C193.988 1458.62 194.46 1456.85 194.46 1454.58C194.46 1452.56 193.976 1450.91 193.008 1449.66C192.051 1448.4 190.775 1447.76 189.18 1447.76C187.619 1447.76 186.36 1448.39 185.403 1449.63C184.446 1450.87 183.967 1452.65 183.967 1454.96Z" fill="white"/>
</g>
</g>
<g id="Item_10">
<rect id="Rectangle 29" x="428" y="1177" width="253" height="227" fill="#0E0101"/>
<g id="Group 31">
<rect id="Rectangle 33" x="428" y="1418" width="255" height="68" fill="#0E0101"/>
<path id="titulo_10" d="M455.682 1441.03V1445.51H459.134V1447.95H455.682V1459.42C455.682 1460.16 455.836 1460.72 456.144 1461.09C456.451 1461.46 456.975 1461.64 457.716 1461.64C458.08 1461.64 458.582 1461.57 459.22 1461.44V1464C458.388 1464.23 457.579 1464.34 456.793 1464.34C455.38 1464.34 454.315 1463.91 453.597 1463.06C452.879 1462.21 452.521 1460.99 452.521 1459.42V1447.95H449.154V1445.51H452.521V1441.03H455.682ZM466.278 1464H463.116V1445.51H466.278V1464ZM462.86 1440.6C462.86 1440.09 463.014 1439.66 463.321 1439.31C463.64 1438.95 464.107 1438.78 464.723 1438.78C465.338 1438.78 465.805 1438.95 466.124 1439.31C466.443 1439.66 466.603 1440.09 466.603 1440.6C466.603 1441.12 466.443 1441.54 466.124 1441.89C465.805 1442.23 465.338 1442.4 464.723 1442.4C464.107 1442.4 463.64 1442.23 463.321 1441.89C463.014 1441.54 462.86 1441.12 462.86 1440.6ZM475.643 1441.03V1445.51H479.095V1447.95H475.643V1459.42C475.643 1460.16 475.797 1460.72 476.104 1461.09C476.412 1461.46 476.936 1461.64 477.677 1461.64C478.041 1461.64 478.543 1461.57 479.181 1461.44V1464C478.349 1464.23 477.54 1464.34 476.754 1464.34C475.341 1464.34 474.276 1463.91 473.558 1463.06C472.84 1462.21 472.481 1460.99 472.481 1459.42V1447.95H469.115V1445.51H472.481V1441.03H475.643ZM494.22 1462.17C492.989 1463.62 491.183 1464.34 488.802 1464.34C486.831 1464.34 485.327 1463.77 484.291 1462.63C483.265 1461.48 482.747 1459.78 482.735 1457.54V1445.51H485.897V1457.45C485.897 1460.26 487.036 1461.66 489.315 1461.66C491.73 1461.66 493.337 1460.76 494.134 1458.96V1445.51H497.296V1464H494.288L494.22 1462.17ZM505.55 1464H502.389V1437.75H505.55V1464ZM509.789 1454.58C509.789 1452.77 510.142 1451.14 510.848 1449.7C511.566 1448.25 512.557 1447.13 513.822 1446.35C515.098 1445.56 516.55 1445.17 518.18 1445.17C520.698 1445.17 522.731 1446.04 524.281 1447.78C525.842 1449.52 526.622 1451.84 526.622 1454.74V1454.96C526.622 1456.76 526.275 1458.38 525.58 1459.81C524.896 1461.24 523.91 1462.35 522.623 1463.15C521.347 1463.94 519.877 1464.34 518.214 1464.34C515.707 1464.34 513.674 1463.47 512.113 1461.73C510.563 1459.98 509.789 1457.68 509.789 1454.81V1454.58ZM512.967 1454.96C512.967 1457.01 513.44 1458.66 514.386 1459.9C515.343 1461.14 516.619 1461.76 518.214 1461.76C519.82 1461.76 521.096 1461.13 522.042 1459.88C522.988 1458.62 523.46 1456.85 523.46 1454.58C523.46 1452.56 522.976 1450.91 522.008 1449.66C521.051 1448.4 519.775 1447.76 518.18 1447.76C516.619 1447.76 515.36 1448.39 514.403 1449.63C513.446 1450.87 512.967 1452.65 512.967 1454.96Z" fill="white"/>
</g>
</g>
<g id="Item_11">
<rect id="Rectangle 30" x="757" y="1177" width="253" height="227" fill="#0E0101"/>
<g id="Group 32">
<rect id="Rectangle 34" x="757" y="1418" width="255" height="68" fill="#0E0101"/>
<path id="titulo_11" d="M784.682 1441.03V1445.51H788.134V1447.95H784.682V1459.42C784.682 1460.16 784.836 1460.72 785.144 1461.09C785.451 1461.46 785.975 1461.64 786.716 1461.64C787.08 1461.64 787.582 1461.57 788.22 1461.44V1464C787.388 1464.23 786.579 1464.34 785.793 1464.34C784.38 1464.34 783.315 1463.91 782.597 1463.06C781.879 1462.21 781.521 1460.99 781.521 1459.42V1447.95H778.154V1445.51H781.521V1441.03H784.682ZM795.278 1464H792.116V1445.51H795.278V1464ZM791.86 1440.6C791.86 1440.09 792.014 1439.66 792.321 1439.31C792.64 1438.95 793.107 1438.78 793.723 1438.78C794.338 1438.78 794.805 1438.95 795.124 1439.31C795.443 1439.66 795.603 1440.09 795.603 1440.6C795.603 1441.12 795.443 1441.54 795.124 1441.89C794.805 1442.23 794.338 1442.4 793.723 1442.4C793.107 1442.4 792.64 1442.23 792.321 1441.89C792.014 1441.54 791.86 1441.12 791.86 1440.6ZM804.643 1441.03V1445.51H808.095V1447.95H804.643V1459.42C804.643 1460.16 804.797 1460.72 805.104 1461.09C805.412 1461.46 805.936 1461.64 806.677 1461.64C807.041 1461.64 807.543 1461.57 808.181 1461.44V1464C807.349 1464.23 806.54 1464.34 805.754 1464.34C804.341 1464.34 803.276 1463.91 802.558 1463.06C801.84 1462.21 801.481 1460.99 801.481 1459.42V1447.95H798.115V1445.51H801.481V1441.03H804.643ZM823.22 1462.17C821.989 1463.62 820.183 1464.34 817.802 1464.34C815.831 1464.34 814.327 1463.77 813.291 1462.63C812.265 1461.48 811.747 1459.78 811.735 1457.54V1445.51H814.897V1457.45C814.897 1460.26 816.036 1461.66 818.315 1461.66C820.73 1461.66 822.337 1460.76 823.134 1458.96V1445.51H826.296V1464H823.288L823.22 1462.17ZM834.55 1464H831.389V1437.75H834.55V1464ZM838.789 1454.58C838.789 1452.77 839.142 1451.14 839.848 1449.7C840.566 1448.25 841.557 1447.13 842.822 1446.35C844.098 1445.56 845.55 1445.17 847.18 1445.17C849.698 1445.17 851.731 1446.04 853.281 1447.78C854.842 1449.52 855.622 1451.84 855.622 1454.74V1454.96C855.622 1456.76 855.275 1458.38 854.58 1459.81C853.896 1461.24 852.91 1462.35 851.623 1463.15C850.347 1463.94 848.877 1464.34 847.214 1464.34C844.707 1464.34 842.674 1463.47 841.113 1461.73C839.563 1459.98 838.789 1457.68 838.789 1454.81V1454.58ZM841.967 1454.96C841.967 1457.01 842.44 1458.66 843.386 1459.9C844.343 1461.14 845.619 1461.76 847.214 1461.76C848.82 1461.76 850.096 1461.13 851.042 1459.88C851.988 1458.62 852.46 1456.85 852.46 1454.58C852.46 1452.56 851.976 1450.91 851.008 1449.66C850.051 1448.4 848.775 1447.76 847.18 1447.76C845.619 1447.76 844.36 1448.39 843.403 1449.63C842.446 1450.87 841.967 1452.65 841.967 1454.96Z" fill="white"/>
</g>
</g>
<g id="Item_12">
<rect id="Rectangle 31" x="1086" y="1177" width="253" height="227" fill="#0E0101"/>
<g id="Group 33">
<rect id="Rectangle 35" x="1086" y="1418" width="255" height="68" fill="#0E0101"/>
<path id="titulo_12" d="M1113.68 1441.03V1445.51H1117.13V1447.95H1113.68V1459.42C1113.68 1460.16 1113.84 1460.72 1114.14 1461.09C1114.45 1461.46 1114.98 1461.64 1115.72 1461.64C1116.08 1461.64 1116.58 1461.57 1117.22 1461.44V1464C1116.39 1464.23 1115.58 1464.34 1114.79 1464.34C1113.38 1464.34 1112.31 1463.91 1111.6 1463.06C1110.88 1462.21 1110.52 1460.99 1110.52 1459.42V1447.95H1107.15V1445.51H1110.52V1441.03H1113.68ZM1124.28 1464H1121.12V1445.51H1124.28V1464ZM1120.86 1440.6C1120.86 1440.09 1121.01 1439.66 1121.32 1439.31C1121.64 1438.95 1122.11 1438.78 1122.72 1438.78C1123.34 1438.78 1123.81 1438.95 1124.12 1439.31C1124.44 1439.66 1124.6 1440.09 1124.6 1440.6C1124.6 1441.12 1124.44 1441.54 1124.12 1441.89C1123.81 1442.23 1123.34 1442.4 1122.72 1442.4C1122.11 1442.4 1121.64 1442.23 1121.32 1441.89C1121.01 1441.54 1120.86 1441.12 1120.86 1440.6ZM1133.64 1441.03V1445.51H1137.1V1447.95H1133.64V1459.42C1133.64 1460.16 1133.8 1460.72 1134.1 1461.09C1134.41 1461.46 1134.94 1461.64 1135.68 1461.64C1136.04 1461.64 1136.54 1461.57 1137.18 1461.44V1464C1136.35 1464.23 1135.54 1464.34 1134.75 1464.34C1133.34 1464.34 1132.28 1463.91 1131.56 1463.06C1130.84 1462.21 1130.48 1460.99 1130.48 1459.42V1447.95H1127.11V1445.51H1130.48V1441.03H1133.64ZM1152.22 1462.17C1150.99 1463.62 1149.18 1464.34 1146.8 1464.34C1144.83 1464.34 1143.33 1463.77 1142.29 1462.63C1141.27 1461.48 1140.75 1459.78 1140.74 1457.54V1445.51H1143.9V1457.45C1143.9 1460.26 1145.04 1461.66 1147.31 1461.66C1149.73 1461.66 1151.34 1460.76 1152.13 1458.96V1445.51H1155.3V1464H1152.29L1152.22 1462.17ZM1163.55 1464H1160.39V1437.75H1163.55V1464ZM1167.79 1454.58C1167.79 1452.77 1168.14 1451.14 1168.85 1449.7C1169.57 1448.25 1170.56 1447.13 1171.82 1446.35C1173.1 1445.56 1174.55 1445.17 1176.18 1445.17C1178.7 1445.17 1180.73 1446.04 1182.28 1447.78C1183.84 1449.52 1184.62 1451.84 1184.62 1454.74V1454.96C1184.62 1456.76 1184.27 1458.38 1183.58 1459.81C1182.9 1461.24 1181.91 1462.35 1180.62 1463.15C1179.35 1463.94 1177.88 1464.34 1176.21 1464.34C1173.71 1464.34 1171.67 1463.47 1170.11 1461.73C1168.56 1459.98 1167.79 1457.68 1167.79 1454.81V1454.58ZM1170.97 1454.96C1170.97 1457.01 1171.44 1458.66 1172.39 1459.9C1173.34 1461.14 1174.62 1461.76 1176.21 1461.76C1177.82 1461.76 1179.1 1461.13 1180.04 1459.88C1180.99 1458.62 1181.46 1456.85 1181.46 1454.58C1181.46 1452.56 1180.98 1450.91 1180.01 1449.66C1179.05 1448.4 1177.77 1447.76 1176.18 1447.76C1174.62 1447.76 1173.36 1448.39 1172.4 1449.63C1171.45 1450.87 1170.97 1452.65 1170.97 1454.96Z" fill="white"/>
</g>
</g>
</g>
</svg>
